<?xml version="1.0" encoding="utf-8"?>
<!-- Generator: Adobe Illustrator 16.0.0, SVG Export Plug-In . SVG Version: 6.00 Build 0)  -->
<!DOCTYPE svg PUBLIC "-//W3C//DTD SVG 1.1//EN" "http://www.w3.org/Graphics/SVG/1.1/DTD/svg11.dtd">
<svg version="1.1" xmlns="http://www.w3.org/2000/svg" xmlns:xlink="http://www.w3.org/1999/xlink" x="0px" y="0px"
	 width="113.565px" height="104.726px" viewBox="0 0 113.565 104.726" enable-background="new 0 0 113.565 104.726"
	 xml:space="preserve">
<g id="Capa_1">
	<image overflow="visible" width="281" height="526" xlink:href="424E35BA.jpg"  transform="matrix(1 0 0 1 989.7554 -581.5376)">
	</image>
</g>
<g id="Capa_2">
</g>
<g id="Capa_2_copia">
	<image overflow="visible" width="1628" height="624" xlink:href="424E35BE.jpg"  transform="matrix(1 0 0 1 -30.3853 250.1094)">
	</image>
	<g>
		<g>
			<path fill="#FFFFFF" d="M537.918-379.327l-23.34,1.035c0,0-24.25,3.986-24.768-20.726c-0.518-24.709-1.345-64.198-1.345-64.198
				s-2.725-18.271,22.28-18.925c25.004-0.655,25.004-0.655,25.004-0.655L537.918-379.327z"/>
			<g>
				<defs>
					<path id="SVGID_1_" d="M537.918-379.327l-23.34,1.035c0,0-24.25,3.986-24.768-20.726c-0.518-24.709-1.345-64.198-1.345-64.198
						s-2.725-18.271,22.28-18.925c25.004-0.655,25.004-0.655,25.004-0.655L537.918-379.327z"/>
				</defs>
				<clipPath id="SVGID_2_">
					<use xlink:href="#SVGID_1_"  overflow="visible"/>
				</clipPath>
				<g clip-path="url(#SVGID_2_)">
					<path fill="#D6D6E5" d="M533.486-485.44c-14.949-0.185-31.477-4.177-41.476,10.001c-4.04,5.727-4.263,13.435-4.423,20.157
						c-0.189,8.03-0.684,16.029-1.092,24.05c-0.77,15.089-0.643,31.883,8.88,44.478c9.125,12.07,26.374,8.799,39.458,9.988
						c3.211,0.293,3.184-4.711,0-5c-11.85-1.078-27.76,2.25-35.99-8.634c-8.555-11.316-7.969-27.413-7.348-40.832
						c0.285-6.168,0.781-12.323,0.956-18.496c0.183-6.433-0.085-12.974,1.882-19.177c5.291-16.686,26.15-11.695,39.152-11.535
						C536.713-480.401,536.709-485.401,533.486-485.44L533.486-485.44z"/>
				</g>
			</g>
		</g>
		
			<image overflow="visible" width="512" height="512" xlink:href="../../img brutas/iconoBebida.png"  transform="matrix(0.1029 0 0 0.1029 489.3267 -460.2158)">
		</image>
	</g>
	<g>
		<g>
			<path fill="#D6D6E5" d="M638.755-379.327l-23.34,1.035c0,0-24.25,3.986-24.768-20.726c-0.518-24.709-1.345-64.198-1.345-64.198
				s-2.725-18.271,22.28-18.925c25.004-0.655,25.004-0.655,25.004-0.655L638.755-379.327z"/>
			<g>
				<defs>
					<path id="SVGID_3_" d="M638.755-379.327l-23.34,1.035c0,0-24.25,3.986-24.768-20.726c-0.518-24.709-1.345-64.198-1.345-64.198
						s-2.725-18.271,22.28-18.925c25.004-0.655,25.004-0.655,25.004-0.655L638.755-379.327z"/>
				</defs>
				<clipPath id="SVGID_4_">
					<use xlink:href="#SVGID_3_"  overflow="visible"/>
				</clipPath>
				<g clip-path="url(#SVGID_4_)">
					<path fill="#D6D6E5" d="M634.324-485.44c-14.949-0.185-31.477-4.177-41.476,10.001c-4.04,5.727-4.263,13.435-4.423,20.157
						c-0.189,8.03-0.684,16.029-1.092,24.05c-0.77,15.089-0.643,31.883,8.88,44.478c9.125,12.07,26.374,8.799,39.458,9.988
						c3.211,0.293,3.184-4.711,0-5c-11.85-1.078-27.76,2.25-35.99-8.634c-8.555-11.316-7.969-27.413-7.348-40.832
						c0.285-6.168,0.781-12.323,0.956-18.496c0.183-6.433-0.085-12.974,1.882-19.177c5.291-16.686,26.15-11.695,39.152-11.535
						C637.55-480.401,637.546-485.401,634.324-485.44L634.324-485.44z"/>
				</g>
			</g>
		</g>
		
			<image overflow="visible" width="512" height="512" xlink:href="../../img brutas/iconoBebida.png"  transform="matrix(0.1029 0 0 0.1029 590.1641 -460.2158)">
		</image>
	</g>
	<g>
		<g>
			<path fill="#FFFFFF" d="M536.917-531.705l-23.34,1.034c0,0-24.25,3.987-24.768-20.725c-0.518-24.711-1.345-64.199-1.345-64.199
				s-2.725-18.271,22.28-18.925c25.004-0.655,25.004-0.655,25.004-0.655L536.917-531.705z"/>
			<g>
				<defs>
					<path id="SVGID_5_" d="M536.917-531.705l-23.34,1.034c0,0-24.25,3.987-24.768-20.725c-0.518-24.711-1.345-64.199-1.345-64.199
						s-2.725-18.271,22.28-18.925c25.004-0.655,25.004-0.655,25.004-0.655L536.917-531.705z"/>
				</defs>
				<clipPath id="SVGID_6_">
					<use xlink:href="#SVGID_5_"  overflow="visible"/>
				</clipPath>
				<g clip-path="url(#SVGID_6_)">
					<path fill="#D6D6E5" d="M532.485-637.82c-14.949-0.185-31.477-4.177-41.476,10.001c-4.04,5.727-4.263,13.435-4.423,20.157
						c-0.189,8.03-0.684,16.029-1.092,24.05c-0.77,15.089-0.643,31.884,8.88,44.479c9.125,12.07,26.374,8.798,39.458,9.988
						c3.211,0.293,3.184-4.711,0-5c-11.85-1.078-27.76,2.25-35.99-8.636c-8.555-11.314-7.969-27.413-7.348-40.832
						c0.285-6.168,0.781-12.323,0.956-18.496c0.183-6.433-0.085-12.974,1.882-19.177c5.291-16.686,26.15-11.695,39.152-11.535
						C535.711-632.781,535.708-637.781,532.485-637.82L532.485-637.82z"/>
				</g>
			</g>
		</g>
	</g>
	
		<image overflow="visible" width="512" height="512" xlink:href="../../img brutas/iconoPatatas.png"  transform="matrix(0.0831 0 0 0.0831 494.3926 -605.0664)">
	</image>
	<g>
		<g>
			<path fill="#D6D6E5" d="M637.754-531.705l-23.34,1.034c0,0-24.25,3.987-24.768-20.725c-0.518-24.711-1.345-64.199-1.345-64.199
				s-2.725-18.271,22.28-18.925c25.004-0.655,25.004-0.655,25.004-0.655L637.754-531.705z"/>
			<g>
				<defs>
					<path id="SVGID_7_" d="M637.754-531.705l-23.34,1.034c0,0-24.25,3.987-24.768-20.725c-0.518-24.711-1.345-64.199-1.345-64.199
						s-2.725-18.271,22.28-18.925c25.004-0.655,25.004-0.655,25.004-0.655L637.754-531.705z"/>
				</defs>
				<clipPath id="SVGID_8_">
					<use xlink:href="#SVGID_7_"  overflow="visible"/>
				</clipPath>
				<g clip-path="url(#SVGID_8_)">
					<path fill="#D6D6E5" d="M633.322-637.82c-14.949-0.185-31.477-4.177-41.476,10.001c-4.04,5.727-4.263,13.435-4.423,20.157
						c-0.189,8.03-0.684,16.029-1.092,24.05c-0.77,15.089-0.643,31.884,8.88,44.479c9.125,12.07,26.374,8.798,39.458,9.988
						c3.211,0.293,3.184-4.711,0-5c-11.85-1.078-27.76,2.25-35.99-8.636c-8.555-11.314-7.969-27.413-7.348-40.832
						c0.285-6.168,0.781-12.323,0.956-18.496c0.183-6.433-0.085-12.974,1.882-19.177c5.291-16.686,26.15-11.695,39.152-11.535
						C636.549-632.781,636.545-637.781,633.322-637.82L633.322-637.82z"/>
				</g>
			</g>
		</g>
	</g>
	
		<image overflow="visible" width="512" height="512" xlink:href="../../img brutas/iconoPatatas.png"  transform="matrix(0.0831 0 0 0.0831 595.23 -605.0664)">
	</image>
	<g>
		<g>
			<path fill="#D6D6E5" d="M636.754-222.994l-23.34,1.033c0,0-24.25,3.988-24.768-20.723s-1.345-64.199-1.345-64.199
				s-2.725-18.27,22.28-18.924c25.004-0.655,25.004-0.655,25.004-0.655L636.754-222.994z"/>
			<g>
				<defs>
					<path id="SVGID_9_" d="M636.754-222.994l-23.34,1.033c0,0-24.25,3.988-24.768-20.723s-1.345-64.199-1.345-64.199
						s-2.725-18.27,22.28-18.924c25.004-0.655,25.004-0.655,25.004-0.655L636.754-222.994z"/>
				</defs>
				<clipPath id="SVGID_10_">
					<use xlink:href="#SVGID_9_"  overflow="visible"/>
				</clipPath>
				<g clip-path="url(#SVGID_10_)">
					<path fill="#D6D6E5" d="M632.323-329.107c-14.949-0.185-31.477-4.177-41.476,10.001c-4.04,5.728-4.263,13.435-4.423,20.157
						c-0.189,8.029-0.684,16.027-1.092,24.049c-0.77,15.088-0.643,31.883,8.88,44.479c9.125,12.07,26.374,8.797,39.458,9.988
						c3.211,0.293,3.184-4.711,0-5c-11.85-1.078-27.76,2.25-35.99-8.637c-8.555-11.313-7.969-27.412-7.348-40.83
						c0.285-6.168,0.781-12.324,0.956-18.496c0.183-6.432-0.085-12.973,1.882-19.176c5.291-16.686,26.15-11.695,39.152-11.535
						C635.549-324.068,635.545-329.068,632.323-329.107L632.323-329.107z"/>
				</g>
			</g>
		</g>
		
			<image overflow="visible" width="512" height="512" xlink:href="../../img brutas/iconoPizza.png"  transform="matrix(0.077 0 0 0.077 595.1406 -293.8125)">
		</image>
	</g>
	<g>
		<g>
			<path fill="#FEFEFE" d="M535.917-222.994l-23.34,1.033c0,0-24.25,3.988-24.768-20.723s-1.345-64.199-1.345-64.199
				s-2.725-18.27,22.28-18.924c25.004-0.655,25.004-0.655,25.004-0.655L535.917-222.994z"/>
			<g>
				<defs>
					<path id="SVGID_11_" d="M535.917-222.994l-23.34,1.033c0,0-24.25,3.988-24.768-20.723s-1.345-64.199-1.345-64.199
						s-2.725-18.27,22.28-18.924c25.004-0.655,25.004-0.655,25.004-0.655L535.917-222.994z"/>
				</defs>
				<clipPath id="SVGID_12_">
					<use xlink:href="#SVGID_11_"  overflow="visible"/>
				</clipPath>
				<g clip-path="url(#SVGID_12_)">
					<path fill="#D6D6E5" d="M531.485-329.107c-14.949-0.185-31.477-4.177-41.476,10.001c-4.04,5.728-4.263,13.435-4.423,20.157
						c-0.189,8.029-0.684,16.027-1.092,24.049c-0.77,15.088-0.643,31.883,8.88,44.479c9.125,12.07,26.374,8.797,39.458,9.988
						c3.211,0.293,3.184-4.711,0-5c-11.85-1.078-27.76,2.25-35.99-8.637c-8.555-11.313-7.969-27.412-7.348-40.83
						c0.285-6.168,0.781-12.324,0.956-18.496c0.183-6.432-0.085-12.973,1.882-19.176c5.291-16.686,26.15-11.695,39.152-11.535
						C534.712-324.068,534.708-329.068,531.485-329.107L531.485-329.107z"/>
				</g>
			</g>
		</g>
		
			<image overflow="visible" width="512" height="512" xlink:href="../../img brutas/iconoPizza.png"  transform="matrix(0.077 0 0 0.077 494.3032 -293.8125)">
		</image>
	</g>
	<g>
		<path fill-rule="evenodd" clip-rule="evenodd" fill="#EBB880" d="M39.622,71.314c-1.072-0.773-2.319-1.191-3.502-1.74
			c0.02-0.911,0.302-1.83-0.897-2.386c-3.196-1.479-6.347-3.052-9.472-4.686c-5.041-2.638-10.204-5.039-15.315-7.539
			c-0.016-3.758,1.382-5.377,5.35-6.193c0.134,0.446,0.199,0.928,0.411,1.333c2.522,4.801,7.941,8.058,13.83,6.622
			c5.251-1.279,8.319-4.659,9.572-9.819c0.719-2.962-0.384-5.659-1.248-8.39c4.975-2.182,9.935-4.402,14.935-6.529
			c1.959-0.834,3.729-2.087,5.832-2.594c0.514,0.997,0.858,2.142,1.57,2.969c4.868,5.653,12.504,6.727,18.273,1.497
			c4.29-3.889,4.986-8.965,2.973-14.382c1.134-0.813,2.309-1.542,3.717-1.779c0.686,1.262,0.641,2.712,1.023,4.058
			c0.791,2.782,1.687,5.551,1.905,8.464c0.055,0.729,0.514,1.058,1.125,1.274c0.118,0.039,0.236,0.078,0.354,0.118l0.078-0.046
			l0.083,0.035c0.398,1.231,0.58,2.497,0.603,3.789c-1.021,0.262-1.403,0.857-1.239,1.947c0.435,2.896,0.555,5.826,0.652,8.749
			c0.125,3.736-0.079,7.468-0.229,11.202c-0.095,2.379-0.574,4.691-0.757,7.049c-0.277,3.563-1.209,7.029-1.844,10.54
			c-0.953,5.278-2.692,10.341-4.052,15.509c-0.151,0.571-0.392,0.878-1.042,0.474c-0.87-0.538-1.767-1.045-2.684-1.5
			c-4.333-2.153-8.681-4.279-13.015-6.43c-1.507-0.748-3.011-1.505-4.509-2.274c-6.604-3.388-13.277-6.642-19.919-9.955
			C41.132,70.176,40.285,70.313,39.622,71.314z M83.744,65.93c1.091-0.588,1.292-1.416,0.681-2.476
			c-0.516-0.895-0.953-1.842-1.544-2.682c-0.655-0.932-1.518-2.086-2.766-1.347c-2.438,1.443-4.787,3.088-5.553,6.106
			c-0.944,3.715,0.739,7.102,3.372,9.678c0.627,0.613,1.393,0.498,2.09,0.06c1.129-0.712,2.128-1.578,3.04-2.557
			c0.808-0.868,0.931-1.717,0.063-2.608C83.812,68.784,84.365,67.444,83.744,65.93z M53.149,53.167
			c-1.042-0.725-1.858-0.506-2.688,0.447c-1.251,1.438-2.337,3.005-2.944,4.775c-1.428,4.16-0.574,8.198,2.032,11.5
			c3.77,4.777,9.225,6.181,14.73,3.783c6.112-2.661,8.704-8.573,6.942-15.005c-1.297-4.731-6.343-9.112-12.019-8.779
			c-1.362,0.078-2.188,0.485-2.188,1.956C55.599,51.91,54.332,52.415,53.149,53.167z M77.93,50.755
			c2.585,0.284,4.547-0.868,6.083-2.987c0.728-1.007,1.209-2.114,1.748-3.215c1.296-2.644,1.083-3.301-1.609-4.282
			c-0.22-0.081-0.442-0.158-0.666-0.228c-2.858-0.863-5.708-1.439-8.285,0.723c-2.165,1.816-3.485,4.173-4.129,6.905
			c-0.227,0.96,0.368,1.525,1.167,1.859C74.027,50.28,75.849,50.917,77.93,50.755z M56.588,40.235
			c0.051-1.678-0.561-3.226-1.049-4.776c-0.544-1.729-1.284-1.992-3.028-1.424c-0.445,0.145-0.877,0.326-1.32,0.477
			c-3.016,1.026-5.041,2.892-5.771,6.152c-0.46,2.058,0.032,3.946,0.54,5.827c0.694,2.569,1.526,2.892,4.008,1.965
			c0.265-0.099,0.52-0.223,0.786-0.315C54.566,46.824,56.502,44.197,56.588,40.235z"/>
		<path fill-rule="evenodd" clip-rule="evenodd" fill="#0C0806" d="M38.351,38.517c0.864,2.73,1.966,5.428,1.248,8.39
			c-1.252,5.16-4.32,8.54-9.572,9.819c-5.888,1.436-11.307-1.821-13.83-6.622c-0.212-0.405-0.277-0.887-0.411-1.333
			c-0.307-1.184-0.615-2.368-0.932-3.591c-2.267,0.994-4.451,1.95-6.632,2.91c-1.196,0.527-1.807,1.42-1.827,2.758
			c-0.021,1.396,0.595,2.313,1.832,2.905c0.756,0.36,1.475,0.804,2.209,1.211c5.111,2.5,10.274,4.901,15.315,7.539
			c3.125,1.634,6.276,3.206,9.472,4.686c1.2,0.556,0.917,1.475,0.897,2.386c-0.743,0.871-1.451,1.175-2.513,0.306
			c-0.777-0.638-1.812-0.96-2.738-1.413c-4.587-2.235-9.243-4.344-13.74-6.748c-2.938-1.569-6.015-2.836-8.927-4.441
			c-0.935-0.513-1.887-1.029-2.725-1.68c-3.37-2.624-2.884-7.868,0.892-10.01c1.268-0.72,2.67-1.127,3.988-1.72
			c5.347-2.401,10.608-5.001,15.998-7.302c6.069-2.59,12.07-5.322,18.085-8.029c5.887-2.649,11.807-5.223,17.695-7.871
			c5.971-2.687,11.988-5.269,17.912-8.063c0.501-0.236,1.096-0.271,1.606-0.494c1.901-0.824,3.527-1.697,4.626-3.824
			c2.409-4.658,9.423-6.324,13.984-2.766c1.569,1.226,2.756,2.954,3.351,4.947c1.421,4.758,2.827,9.555,3.555,14.446
			c0.87,5.845,1.861,11.688,1.99,17.652c0.08,3.649,0.286,7.31,0.141,10.95c-0.197,4.956-0.349,9.921-1.262,14.838
			c-0.582,3.136-0.765,6.344-1.539,9.458c-0.872,3.505-1.644,7.036-2.597,10.518c-0.627,2.29-1.453,4.53-2.267,6.765
			c-2.325,6.365-10.33,8.61-15.722,3.712c-0.913-0.829-1.58-1.907-1.975-3.034c-0.313-0.891-0.916-1.278-1.609-1.621
			c-4.114-2.03-8.268-3.979-12.365-6.043c-5.968-3.007-11.94-6.005-17.917-8.995c-2.468-1.235-4.968-2.405-7.425-3.66
			c-1.37-0.7-2.726-1.429-4.084-2.15c-0.806-0.428-1.189-1.058-0.917-1.987c0.664-1.002,1.51-1.139,2.563-0.613
			c6.642,3.313,13.315,6.567,19.919,9.955c1.498,0.77,3.002,1.526,4.509,2.274c4.334,2.15,8.682,4.276,13.015,6.43
			c0.917,0.455,1.814,0.962,2.684,1.5c0.65,0.404,0.891,0.098,1.042-0.474c1.359-5.168,3.099-10.23,4.052-15.509
			c0.634-3.511,1.567-6.977,1.844-10.54c0.183-2.357,0.662-4.67,0.757-7.049c0.15-3.734,0.353-7.466,0.229-11.202
			c-0.097-2.923-0.217-5.853-0.652-8.749c-0.164-1.09,0.217-1.686,1.239-1.949c1.303-0.016,1.988,0.746,1.964,1.932
			c-0.08,4.087,0.691,8.125,0.619,12.208c-0.033,1.933-0.362,3.839-0.322,5.784c0.068,3.32-0.174,6.621-0.792,9.903
			c-0.611,3.244-0.838,6.566-1.574,9.776c-1.143,4.986-2.576,9.901-4.209,14.757c-0.874,2.596-0.218,5.074,1.677,6.917
			c3.729,3.626,9.308,1.043,10.443-2.176c2.22-6.291,3.958-12.729,5.289-19.268c0.604-2.962,0.73-6.011,1.276-8.969
			c1.046-5.666,0.962-11.385,1.177-17.081c0.091-2.432-0.327-4.933-0.36-7.38c-0.081-5.801-1.103-11.458-2.109-17.12
			c-0.772-4.345-1.711-8.665-3.103-12.869C100.133,9.798,99.064,8.091,97.1,7.2c-2.742-1.241-5.254-0.379-7.329,1.457
			c-1.896,1.677-2.129,3.967-1.525,6.403c1.171,4.725,2.593,9.391,3.225,14.247c0.162,1.243-0.191,1.879-1.253,2.294l-0.083-0.035
			l-0.078,0.046c-0.118-0.04-0.236-0.079-0.354-0.118c-0.611-0.217-1.07-0.545-1.125-1.274c-0.218-2.913-1.114-5.682-1.905-8.464
			c-0.382-1.346-0.337-2.796-1.023-4.058c0.054-1.06-0.419-2.021-0.563-3.046c-0.044-0.316-0.104-0.641-0.632-0.452
			c-1.63,0.581-3.238,1.195-4.781,2.137c0.934,0.981,1.549,2.095,2.259,3.141c2.014,5.417,1.317,10.493-2.973,14.382
			c-5.769,5.229-13.406,4.156-18.273-1.497c-0.712-0.827-1.056-1.972-1.57-2.969c-0.322-1.12-0.643-2.24-1.008-3.517
			c-7.326,3.25-14.671,6.51-22.019,9.771C36.899,36.674,37.625,37.596,38.351,38.517z M28.13,53.92
			c2.268-0.033,5.067-1.093,6.919-3.996c2.424-3.794,2.227-8.987-1.187-12.013c-0.44-0.392-0.822-0.831-1.583-0.51
			c-4.415,1.858-8.681,4.059-13.168,5.752c-0.6,0.227-0.979,0.534-1.005,1.322C17.929,49.591,22.008,53.912,28.13,53.92z
			 M70.773,33.966c1.334,0.222,2.707-0.336,4.108-0.972c5.413-2.452,6.769-10.606,2.4-14.685c-0.326-0.304-0.581-0.601-1.204-0.368
			c-4.804,1.797-9.314,4.259-14.07,6.161c-0.519,0.207-0.894,0.478-0.793,1.146C61.956,30.205,64.764,33.931,70.773,33.966z"/>
		<path fill-rule="evenodd" clip-rule="evenodd" fill="#E9A761" d="M90.218,31.602c1.062-0.415,1.415-1.051,1.253-2.294
			c-0.632-4.856-2.053-9.522-3.225-14.247c-0.604-2.437-0.371-4.727,1.525-6.403C91.846,6.821,94.358,5.959,97.1,7.2
			c1.964,0.891,3.033,2.598,3.697,4.604c1.392,4.204,2.331,8.524,3.103,12.869c1.006,5.662,2.028,11.319,2.109,17.12
			c0.034,2.447,0.451,4.948,0.36,7.38c-0.215,5.696-0.131,11.415-1.177,17.081c-0.546,2.958-0.672,6.007-1.276,8.969
			c-1.332,6.538-3.069,12.977-5.289,19.268c-1.135,3.219-6.714,5.802-10.443,2.176c-1.895-1.843-2.55-4.321-1.677-6.917
			c1.633-4.855,3.066-9.771,4.209-14.757c0.736-3.21,0.963-6.532,1.574-9.776c0.618-3.282,0.861-6.583,0.792-9.903
			c-0.04-1.945,0.289-3.852,0.322-5.784c0.072-4.083-0.699-8.121-0.619-12.208c0.024-1.186-0.661-1.947-1.964-1.932
			C90.798,34.099,90.616,32.833,90.218,31.602z"/>
		<path fill-rule="evenodd" clip-rule="evenodd" fill="#DC4A55" d="M53.149,53.167c1.183-0.752,2.45-1.257,3.867-1.322
			c0.389,0.991,1.156,1.294,2.154,1.21c2.217-0.188,4.107,0.48,5.867,1.891c3.155,2.528,4.498,5.952,3.298,9.758
			c-1.595,5.056-5.729,8.144-11.816,6.411c-6.333-1.801-8.77-9.987-3.861-15.323C53.423,54.956,53.796,54.195,53.149,53.167z"/>
		<path fill-rule="evenodd" clip-rule="evenodd" fill="#0C0806" d="M53.149,53.167c0.647,1.028,0.274,1.789-0.492,2.624
			c-4.908,5.336-2.472,13.522,3.861,15.323c6.087,1.732,10.222-1.355,11.816-6.411c1.2-3.806-0.143-7.229-3.298-9.758
			c-1.76-1.41-3.65-2.078-5.867-1.891c-0.999,0.084-1.765-0.219-2.154-1.21c-0.001-1.471,0.826-1.878,2.188-1.956
			c5.676-0.333,10.722,4.048,12.019,8.779c1.762,6.432-0.83,12.344-6.942,15.005c-5.505,2.397-10.96,0.994-14.73-3.783
			c-2.606-3.302-3.46-7.34-2.032-11.5c0.606-1.771,1.692-3.337,2.944-4.775C51.291,52.661,52.107,52.442,53.149,53.167z"/>
		<path fill-rule="evenodd" clip-rule="evenodd" fill="#0C0806" d="M77.93,50.755c-2.082,0.162-3.903-0.475-5.692-1.225
			c-0.799-0.334-1.394-0.899-1.167-1.859c0.645-2.732,1.965-5.089,4.129-6.905c2.577-2.162,5.426-1.586,8.285-0.723
			c0.224,0.069,0.446,0.146,0.666,0.228c2.692,0.981,2.905,1.639,1.609,4.282c-0.539,1.101-1.02,2.208-1.748,3.215
			C82.478,49.887,80.515,51.039,77.93,50.755z M79.949,42.424c-0.801,0.038-1.704-0.014-2.507,0.487
			c-1.376,0.859-2.014,2.311-2.866,3.588c-0.19,0.283-0.176,0.567,0.22,0.793c2.321,1.312,5.224,0.734,6.824-1.396
			c0.622-0.827,1.553-1.908,1.243-2.693C82.503,42.295,81.051,42.54,79.949,42.424z"/>
		<path fill-rule="evenodd" clip-rule="evenodd" fill="#0C0806" d="M56.588,40.235c-0.086,3.962-2.022,6.589-5.834,7.905
			c-0.266,0.093-0.521,0.217-0.786,0.315c-2.482,0.927-3.314,0.604-4.008-1.965c-0.508-1.881-1-3.77-0.54-5.827
			c0.73-3.261,2.756-5.126,5.771-6.152c0.443-0.15,0.875-0.332,1.32-0.477c1.744-0.568,2.484-0.306,3.028,1.424
			C56.028,37.01,56.64,38.558,56.588,40.235z M48.351,42.465c0.002,0.704,0.087,1.389,0.219,2.091
			c0.231,1.23,0.763,1.123,1.634,0.685c3.075-1.555,4.212-4.508,2.892-7.608c-0.192-0.453-0.391-0.604-0.958-0.39
			C49.681,38.17,48.346,39.948,48.351,42.465z"/>
		<path fill-rule="evenodd" clip-rule="evenodd" fill="#E9A761" d="M38.351,38.517c-0.725-0.921-1.451-1.843-2.26-2.869
			c7.348-3.261,14.693-6.521,22.019-9.771c0.365,1.276,0.686,2.396,1.008,3.517c-2.103,0.507-3.873,1.76-5.832,2.594
			C48.286,34.114,43.326,36.335,38.351,38.517z"/>
		<path fill-rule="evenodd" clip-rule="evenodd" fill="#0C0806" d="M83.125,70.104c0.868,0.892,0.745,1.74-0.063,2.608
			c-0.911,0.979-1.91,1.845-3.04,2.557c-0.698,0.438-1.463,0.554-2.09-0.06c-2.632-2.576-4.316-5.963-3.372-9.678
			c0.767-3.019,3.116-4.663,5.553-6.106c1.249-0.739,2.111,0.415,2.766,1.347c0.591,0.84,1.028,1.787,1.544,2.682
			c0.611,1.06,0.411,1.888-0.681,2.476c-0.992,0.082-1.747-0.189-2.112-1.234c-0.183-0.521-0.554-0.975-0.785-1.482
			c-0.202-0.442-0.416-0.407-0.751-0.158c-2.791,2.073-3.8,4.488-1.826,7.718c0.927,1.52,0.934,1.551,2.196,0.219
			C81.216,70.197,81.924,69.457,83.125,70.104z"/>
		<path fill-rule="evenodd" clip-rule="evenodd" fill="#E9A761" d="M10.436,54.964c-0.734-0.407-1.453-0.851-2.209-1.211
			c-1.237-0.593-1.853-1.51-1.832-2.905c0.02-1.338,0.631-2.23,1.827-2.758c2.181-0.96,4.365-1.916,6.632-2.91
			c0.317,1.223,0.625,2.407,0.932,3.591C11.818,49.587,10.42,51.206,10.436,54.964z"/>
		<path fill-rule="evenodd" clip-rule="evenodd" fill="#B3CD4A" d="M83.125,70.104c-1.201-0.647-1.909,0.093-2.659,0.887
			c-1.262,1.332-1.269,1.301-2.196-0.219c-1.974-3.229-0.965-5.645,1.826-7.718c0.335-0.249,0.55-0.284,0.751,0.158
			c0.231,0.508,0.602,0.962,0.785,1.482c0.365,1.045,1.12,1.316,2.112,1.234C84.365,67.444,83.812,68.784,83.125,70.104z"/>
		<path fill-rule="evenodd" clip-rule="evenodd" fill="#E9A761" d="M81.934,19.478c-0.71-1.046-1.326-2.159-2.259-3.141
			c1.543-0.941,3.151-1.556,4.781-2.137c0.529-0.188,0.588,0.136,0.632,0.452c0.144,1.025,0.617,1.986,0.563,3.046
			C84.242,17.936,83.068,18.665,81.934,19.478z"/>
		<path fill-rule="evenodd" clip-rule="evenodd" fill="#E9A761" d="M89.704,31.494c0.118,0.039,0.236,0.078,0.354,0.118
			C89.94,31.572,89.822,31.533,89.704,31.494z"/>
		<path fill-rule="evenodd" clip-rule="evenodd" fill="#DC4A55" d="M28.13,53.92c-6.122-0.008-10.201-4.329-10.024-9.444
			c0.026-0.788,0.405-1.096,1.005-1.322c4.487-1.693,8.753-3.894,13.168-5.752c0.761-0.321,1.143,0.118,1.583,0.51
			c3.414,3.025,3.611,8.219,1.187,12.013C33.197,52.827,30.397,53.887,28.13,53.92z"/>
		<path fill-rule="evenodd" clip-rule="evenodd" fill="#DC4A55" d="M70.773,33.966c-6.009-0.035-8.817-3.761-9.559-8.717
			c-0.1-0.669,0.274-0.939,0.793-1.146c4.756-1.902,9.266-4.364,14.07-6.161c0.623-0.232,0.877,0.064,1.204,0.368
			c4.369,4.078,3.013,12.232-2.4,14.685C73.48,33.63,72.107,34.188,70.773,33.966z"/>
		<path fill-rule="evenodd" clip-rule="evenodd" fill="#B3CD4A" d="M79.949,42.424c1.102,0.116,2.555-0.129,2.913,0.779
			c0.31,0.785-0.621,1.866-1.243,2.693c-1.6,2.13-4.503,2.707-6.824,1.396c-0.396-0.226-0.41-0.51-0.22-0.793
			c0.852-1.277,1.49-2.729,2.866-3.588C78.245,42.41,79.148,42.462,79.949,42.424z"/>
		<path fill-rule="evenodd" clip-rule="evenodd" fill="#B3CD4A" d="M48.351,42.465c-0.004-2.517,1.331-4.295,3.787-5.223
			c0.566-0.215,0.765-0.063,0.958,0.39c1.321,3.101,0.184,6.054-2.892,7.608c-0.871,0.438-1.402,0.546-1.634-0.685
			C48.438,43.854,48.353,43.169,48.351,42.465z"/>
	</g>
	<g>
		<path fill-rule="evenodd" clip-rule="evenodd" fill="#EBB880" d="M220.896,70.853c-6.643,3.313-13.316,6.567-19.92,9.955
			c-1.497,0.77-3.002,1.526-4.508,2.274c-4.335,2.15-8.683,4.276-13.016,6.43c-0.917,0.455-1.814,0.962-2.684,1.5
			c-0.65,0.404-0.892,0.098-1.043-0.474c-1.359-5.168-3.099-10.23-4.051-15.509c-0.635-3.511-1.567-6.977-1.844-10.54
			c-0.184-2.357-0.662-4.67-0.758-7.049c-0.149-3.734-0.353-7.466-0.229-11.202c0.098-2.923,0.218-5.853,0.652-8.749
			c0.164-1.09-0.217-1.686-1.238-1.947c0.023-1.292,0.205-2.558,0.603-3.789l0.083-0.035l0.077,0.046
			c0.118-0.04,0.236-0.079,0.354-0.118c0.611-0.217,1.07-0.545,1.125-1.274c0.218-2.913,1.114-5.682,1.904-8.464
			c0.383-1.346,0.338-2.796,1.023-4.058c1.408,0.237,2.583,0.967,3.717,1.779c-2.014,5.417-1.316,10.493,2.973,14.382
			c5.77,5.229,13.406,4.156,18.273-1.497c0.713-0.827,1.057-1.972,1.57-2.969c2.103,0.507,3.873,1.76,5.832,2.594
			c5,2.127,9.96,4.348,14.936,6.529c-0.864,2.73-1.967,5.428-1.248,8.39c1.252,5.16,4.32,8.54,9.572,9.819
			c5.888,1.436,11.307-1.821,13.829-6.622c0.212-0.405,0.277-0.887,0.411-1.333c3.968,0.816,5.365,2.436,5.35,6.193
			c-5.111,2.5-10.273,4.901-15.314,7.539c-3.125,1.634-6.275,3.206-9.473,4.686c-1.199,0.556-0.917,1.475-0.896,2.386
			c-1.184,0.549-2.431,0.967-3.502,1.74C222.794,70.464,221.948,70.327,220.896,70.853z M179.954,70.256
			c-0.867,0.892-0.744,1.74,0.063,2.608c0.911,0.979,1.91,1.845,3.04,2.557c0.697,0.438,1.463,0.554,2.09-0.06
			c2.633-2.576,4.316-5.963,3.371-9.678c-0.766-3.019-3.115-4.663-5.553-6.106c-1.248-0.739-2.111,0.415-2.766,1.347
			c-0.592,0.84-1.029,1.787-1.545,2.682c-0.611,1.06-0.41,1.888,0.681,2.476C178.714,67.596,179.268,68.936,179.954,70.256z
			 M206.063,51.996c0.002-1.471-0.825-1.878-2.188-1.956c-5.676-0.333-10.721,4.048-12.019,8.779
			c-1.763,6.432,0.829,12.344,6.942,15.005c5.505,2.397,10.96,0.994,14.73-3.783c2.605-3.302,3.459-7.34,2.031-11.5
			c-0.605-1.771-1.691-3.337-2.943-4.775c-0.829-0.953-1.646-1.172-2.688-0.447C208.747,52.566,207.481,52.062,206.063,51.996z
			 M190.841,49.682c0.799-0.334,1.395-0.899,1.168-1.859c-0.645-2.732-1.965-5.089-4.13-6.905c-2.577-2.162-5.427-1.586-8.284-0.723
			c-0.225,0.069-0.447,0.146-0.666,0.228c-2.693,0.981-2.906,1.639-1.609,4.282c0.538,1.101,1.02,2.208,1.748,3.215
			c1.535,2.119,3.497,3.271,6.082,2.987C187.231,51.068,189.053,50.432,190.841,49.682z M212.325,48.292
			c0.266,0.093,0.521,0.217,0.786,0.315c2.482,0.927,3.313,0.604,4.009-1.965c0.508-1.881,1-3.77,0.539-5.827
			c-0.73-3.261-2.756-5.126-5.771-6.152c-0.442-0.15-0.875-0.332-1.32-0.477c-1.744-0.568-2.483-0.306-3.027,1.424
			c-0.488,1.551-1.1,3.099-1.049,4.776C206.577,44.349,208.513,46.976,212.325,48.292z"/>
		<path fill-rule="evenodd" clip-rule="evenodd" fill="#0C0806" d="M226.989,35.799c-7.348-3.261-14.693-6.521-22.02-9.771
			c-0.365,1.276-0.686,2.396-1.008,3.517c-0.514,0.997-0.857,2.142-1.57,2.969c-4.867,5.653-12.504,6.727-18.273,1.497
			c-4.289-3.889-4.986-8.965-2.973-14.382c0.711-1.046,1.326-2.159,2.26-3.141c-1.543-0.941-3.151-1.556-4.781-2.137
			c-0.529-0.188-0.588,0.136-0.633,0.452c-0.143,1.025-0.617,1.986-0.563,3.046c-0.686,1.262-0.641,2.712-1.023,4.058
			c-0.79,2.782-1.687,5.551-1.904,8.464c-0.055,0.729-0.514,1.058-1.125,1.274c-0.118,0.039-0.236,0.078-0.354,0.118l-0.077-0.046
			l-0.083,0.035c-1.062-0.415-1.415-1.051-1.253-2.294c0.632-4.856,2.053-9.522,3.225-14.247c0.604-2.437,0.371-4.727-1.525-6.403
			c-2.074-1.836-4.586-2.698-7.328-1.457c-1.965,0.891-3.033,2.598-3.697,4.604c-1.391,4.204-2.33,8.524-3.102,12.869
			c-1.007,5.662-2.028,11.319-2.109,17.12c-0.033,2.447-0.451,4.948-0.36,7.38c0.216,5.696,0.131,11.415,1.177,17.081
			c0.547,2.958,0.673,6.007,1.277,8.969c1.331,6.538,3.068,12.977,5.289,19.268c1.135,3.219,6.714,5.802,10.442,2.176
			c1.895-1.843,2.55-4.321,1.677-6.917c-1.633-4.855-3.066-9.771-4.209-14.757c-0.736-3.21-0.963-6.532-1.574-9.776
			c-0.618-3.282-0.861-6.583-0.793-9.903c0.041-1.945-0.288-3.852-0.321-5.784c-0.071-4.083,0.699-8.121,0.619-12.208
			c-0.024-1.186,0.661-1.947,1.964-1.932c1.021,0.264,1.402,0.859,1.238,1.949c-0.435,2.896-0.555,5.826-0.652,8.749
			c-0.124,3.736,0.079,7.468,0.229,11.202c0.096,2.379,0.574,4.691,0.758,7.049c0.276,3.563,1.209,7.029,1.844,10.54
			c0.952,5.278,2.691,10.341,4.051,15.509c0.151,0.571,0.393,0.878,1.043,0.474c0.869-0.538,1.767-1.045,2.684-1.5
			c4.333-2.153,8.681-4.279,13.016-6.43c1.506-0.748,3.011-1.505,4.508-2.274c6.604-3.388,13.277-6.642,19.92-9.955
			c1.053-0.525,1.898-0.389,2.563,0.613c0.273,0.93-0.11,1.56-0.916,1.987c-1.359,0.722-2.715,1.45-4.084,2.15
			c-2.457,1.255-4.957,2.425-7.426,3.66c-5.976,2.99-11.947,5.988-17.916,8.995c-4.098,2.063-8.251,4.013-12.365,6.043
			c-0.693,0.343-1.296,0.73-1.608,1.621c-0.396,1.127-1.062,2.205-1.975,3.034c-5.392,4.898-13.397,2.653-15.722-3.712
			c-0.814-2.234-1.641-4.475-2.268-6.765c-0.953-3.481-1.726-7.013-2.598-10.518c-0.773-3.114-0.956-6.322-1.538-9.458
			c-0.913-4.917-1.065-9.882-1.263-14.838c-0.145-3.641,0.061-7.301,0.141-10.95c0.129-5.964,1.12-11.808,1.99-17.652
			c0.729-4.892,2.135-9.688,3.555-14.446c0.596-1.993,1.782-3.722,3.352-4.947c4.561-3.559,11.575-1.893,13.984,2.766
			c1.099,2.127,2.725,3,4.626,3.824c0.511,0.223,1.104,0.258,1.606,0.494c5.923,2.794,11.939,5.376,17.911,8.063
			c5.888,2.648,11.808,5.222,17.694,7.871c6.016,2.707,12.018,5.439,18.086,8.029c5.389,2.301,10.65,4.9,15.998,7.302
			c1.318,0.593,2.72,1,3.988,1.72c3.775,2.142,4.262,7.386,0.891,10.01c-0.838,0.65-1.79,1.167-2.725,1.68
			c-2.912,1.605-5.989,2.872-8.928,4.441c-4.496,2.404-9.152,4.513-13.74,6.748c-0.926,0.453-1.961,0.775-2.738,1.413
			c-1.062,0.869-1.77,0.565-2.512-0.306c-0.021-0.911-0.303-1.83,0.896-2.386c3.197-1.479,6.348-3.052,9.473-4.686
			c5.041-2.638,10.203-5.039,15.314-7.539c0.734-0.407,1.453-0.851,2.209-1.211c1.238-0.593,1.854-1.51,1.832-2.905
			c-0.02-1.338-0.631-2.23-1.826-2.758c-2.182-0.96-4.365-1.916-6.633-2.91c-0.316,1.223-0.625,2.407-0.932,3.591
			c-0.134,0.446-0.199,0.928-0.411,1.333c-2.522,4.801-7.941,8.058-13.829,6.622c-5.252-1.279-8.32-4.659-9.572-9.819
			c-0.719-2.962,0.384-5.659,1.248-8.39C225.454,37.747,226.181,36.825,226.989,35.799z M244.974,44.627
			c-0.025-0.788-0.404-1.096-1.005-1.322c-4.487-1.693-8.753-3.894-13.169-5.752c-0.761-0.321-1.143,0.118-1.582,0.51
			c-3.414,3.025-3.611,8.219-1.188,12.013c1.853,2.903,4.652,3.963,6.92,3.996C241.071,54.063,245.151,49.742,244.974,44.627z
			 M201.865,25.4c0.101-0.669-0.274-0.939-0.794-1.146c-4.756-1.902-9.266-4.364-14.069-6.161c-0.622-0.232-0.878,0.064-1.204,0.368
			c-4.368,4.078-3.012,12.232,2.4,14.685c1.401,0.636,2.774,1.193,4.108,0.972C198.315,34.082,201.124,30.356,201.865,25.4z"/>
		<path fill-rule="evenodd" clip-rule="evenodd" fill="#E9A761" d="M172.861,31.753c-1.062-0.415-1.415-1.051-1.253-2.294
			c0.632-4.856,2.053-9.522,3.225-14.247c0.604-2.437,0.371-4.727-1.525-6.403c-2.074-1.836-4.586-2.698-7.328-1.457
			c-1.965,0.891-3.033,2.598-3.697,4.604c-1.391,4.204-2.33,8.524-3.102,12.869c-1.007,5.662-2.028,11.319-2.109,17.12
			c-0.033,2.447-0.451,4.948-0.36,7.38c0.216,5.696,0.131,11.415,1.177,17.081c0.547,2.958,0.673,6.007,1.277,8.969
			c1.331,6.538,3.068,12.977,5.289,19.268c1.135,3.219,6.714,5.802,10.442,2.176c1.895-1.843,2.55-4.321,1.677-6.917
			c-1.633-4.855-3.066-9.771-4.209-14.757c-0.736-3.21-0.963-6.532-1.574-9.776c-0.618-3.282-0.861-6.583-0.793-9.903
			c0.041-1.945-0.288-3.852-0.321-5.784c-0.071-4.083,0.699-8.121,0.619-12.208c-0.024-1.186,0.661-1.947,1.964-1.932
			C172.282,34.25,172.464,32.984,172.861,31.753z"/>
		<path fill-rule="evenodd" clip-rule="evenodd" fill="#DC4A55" d="M209.931,53.318c-1.184-0.752-2.449-1.257-3.867-1.322
			c-0.389,0.991-1.155,1.294-2.154,1.21c-2.217-0.188-4.106,0.48-5.866,1.891c-3.155,2.528-4.498,5.952-3.298,9.758
			c1.595,5.056,5.729,8.144,11.816,6.411c6.334-1.801,8.77-9.987,3.861-15.323C209.656,55.107,209.283,54.347,209.931,53.318z"/>
		<path fill-rule="evenodd" clip-rule="evenodd" fill="#0C0806" d="M209.931,53.318c-0.647,1.028-0.274,1.789,0.492,2.624
			c4.908,5.336,2.473,13.522-3.861,15.323c-6.087,1.732-10.222-1.355-11.816-6.411c-1.2-3.806,0.143-7.229,3.298-9.758
			c1.76-1.41,3.649-2.078,5.866-1.891c0.999,0.084,1.766-0.219,2.154-1.21c0.002-1.471-0.825-1.878-2.188-1.956
			c-5.676-0.333-10.721,4.048-12.019,8.779c-1.763,6.432,0.829,12.344,6.942,15.005c5.505,2.397,10.96,0.994,14.73-3.783
			c2.605-3.302,3.459-7.34,2.031-11.5c-0.605-1.771-1.691-3.337-2.943-4.775C211.789,52.813,210.972,52.594,209.931,53.318z"/>
		<path fill-rule="evenodd" clip-rule="evenodd" fill="#0C0806" d="M179.067,47.919c-0.729-1.007-1.21-2.114-1.748-3.215
			c-1.297-2.644-1.084-3.301,1.609-4.282c0.219-0.081,0.441-0.158,0.666-0.228c2.857-0.863,5.707-1.439,8.284,0.723
			c2.165,1.816,3.485,4.173,4.13,6.905c0.227,0.96-0.369,1.525-1.168,1.859c-1.788,0.75-3.609,1.387-5.691,1.225
			C182.564,51.19,180.603,50.038,179.067,47.919z M180.218,43.354c-0.31,0.785,0.621,1.866,1.243,2.693
			c1.601,2.13,4.503,2.707,6.823,1.396c0.396-0.226,0.41-0.51,0.221-0.793c-0.853-1.277-1.49-2.729-2.867-3.588
			c-0.803-0.501-1.706-0.449-2.507-0.487C182.028,42.691,180.576,42.446,180.218,43.354z"/>
		<path fill-rule="evenodd" clip-rule="evenodd" fill="#0C0806" d="M207.54,35.61c0.544-1.729,1.283-1.992,3.027-1.424
			c0.445,0.145,0.878,0.326,1.32,0.477c3.016,1.026,5.041,2.892,5.771,6.152c0.461,2.058-0.031,3.946-0.539,5.827
			c-0.695,2.569-1.526,2.892-4.009,1.965c-0.265-0.099-0.521-0.223-0.786-0.315c-3.813-1.316-5.748-3.943-5.834-7.905
			C206.44,38.709,207.052,37.161,207.54,35.61z M210.942,37.394c-0.566-0.215-0.766-0.063-0.957,0.39
			c-1.321,3.101-0.184,6.054,2.891,7.608c0.871,0.438,1.402,0.546,1.635-0.685c0.131-0.702,0.217-1.387,0.219-2.091
			C214.733,40.1,213.398,38.321,210.942,37.394z"/>
		<path fill-rule="evenodd" clip-rule="evenodd" fill="#E9A761" d="M224.729,38.668c0.725-0.921,1.451-1.843,2.26-2.869
			c-7.348-3.261-14.693-6.521-22.02-9.771c-0.365,1.276-0.686,2.396-1.008,3.517c2.103,0.507,3.873,1.76,5.832,2.594
			C214.794,34.266,219.754,36.486,224.729,38.668z"/>
		<path fill-rule="evenodd" clip-rule="evenodd" fill="#0C0806" d="M179.954,70.256c-0.867,0.892-0.744,1.74,0.063,2.608
			c0.911,0.979,1.91,1.845,3.04,2.557c0.697,0.438,1.463,0.554,2.09-0.06c2.633-2.576,4.316-5.963,3.371-9.678
			c-0.766-3.019-3.115-4.663-5.553-6.106c-1.248-0.739-2.111,0.415-2.766,1.347c-0.592,0.84-1.029,1.787-1.545,2.682
			c-0.611,1.06-0.41,1.888,0.681,2.476c0.991,0.082,1.747-0.189,2.112-1.234c0.182-0.521,0.553-0.975,0.784-1.482
			c0.202-0.442,0.416-0.407,0.751-0.158c2.791,2.073,3.801,4.488,1.826,7.718c-0.927,1.52-0.934,1.551-2.195,0.219
			C181.863,70.349,181.155,69.608,179.954,70.256z"/>
		<path fill-rule="evenodd" clip-rule="evenodd" fill="#E9A761" d="M252.644,55.115c0.734-0.407,1.453-0.851,2.209-1.211
			c1.238-0.593,1.854-1.51,1.832-2.905c-0.02-1.338-0.631-2.23-1.826-2.758c-2.182-0.96-4.365-1.916-6.633-2.91
			c-0.316,1.223-0.625,2.407-0.932,3.591C251.262,49.738,252.659,51.357,252.644,55.115z"/>
		<path fill-rule="evenodd" clip-rule="evenodd" fill="#B3CD4A" d="M179.954,70.256c1.201-0.647,1.909,0.093,2.66,0.887
			c1.262,1.332,1.269,1.301,2.195-0.219c1.975-3.229,0.965-5.645-1.826-7.718c-0.335-0.249-0.549-0.284-0.751,0.158
			c-0.231,0.508-0.603,0.962-0.784,1.482c-0.365,1.045-1.121,1.316-2.112,1.234C178.714,67.596,179.268,68.936,179.954,70.256z"/>
		<path fill-rule="evenodd" clip-rule="evenodd" fill="#E9A761" d="M181.146,19.629c0.711-1.046,1.326-2.159,2.26-3.141
			c-1.543-0.941-3.151-1.556-4.781-2.137c-0.529-0.188-0.588,0.136-0.633,0.452c-0.143,1.025-0.617,1.986-0.563,3.046
			C178.837,18.087,180.012,18.816,181.146,19.629z"/>
		<path fill-rule="evenodd" clip-rule="evenodd" fill="#E9A761" d="M173.376,31.646c-0.118,0.039-0.236,0.078-0.354,0.118
			C173.14,31.724,173.258,31.685,173.376,31.646z"/>
		<path fill-rule="evenodd" clip-rule="evenodd" fill="#DC4A55" d="M234.95,54.071c6.121-0.008,10.201-4.329,10.023-9.444
			c-0.025-0.788-0.404-1.096-1.005-1.322c-4.487-1.693-8.753-3.894-13.169-5.752c-0.761-0.321-1.143,0.118-1.582,0.51
			c-3.414,3.025-3.611,8.219-1.188,12.013C229.883,52.979,232.683,54.038,234.95,54.071z"/>
		<path fill-rule="evenodd" clip-rule="evenodd" fill="#DC4A55" d="M192.307,34.117c6.009-0.035,8.817-3.761,9.559-8.717
			c0.101-0.669-0.274-0.939-0.794-1.146c-4.756-1.902-9.266-4.364-14.069-6.161c-0.622-0.232-0.878,0.064-1.204,0.368
			c-4.368,4.078-3.012,12.232,2.4,14.685C189.6,33.781,190.973,34.339,192.307,34.117z"/>
		<path fill-rule="evenodd" clip-rule="evenodd" fill="#B3CD4A" d="M183.131,42.575c-1.103,0.116-2.555-0.129-2.913,0.779
			c-0.31,0.785,0.621,1.866,1.243,2.693c1.601,2.13,4.503,2.707,6.823,1.396c0.396-0.226,0.41-0.51,0.221-0.793
			c-0.853-1.277-1.49-2.729-2.867-3.588C184.835,42.562,183.932,42.613,183.131,42.575z"/>
		<path fill-rule="evenodd" clip-rule="evenodd" fill="#B3CD4A" d="M214.729,42.616c0.004-2.517-1.331-4.295-3.787-5.223
			c-0.566-0.215-0.766-0.063-0.957,0.39c-1.321,3.101-0.184,6.054,2.891,7.608c0.871,0.438,1.402,0.546,1.635-0.685
			C214.642,44.005,214.728,43.32,214.729,42.616z"/>
	</g>
</g>
<g id="Capa_4">
</g>
<g id="guías">
</g>
</svg>
