<?xml version="1.0" encoding="utf-8"?>
<!-- Generator: Adobe Illustrator 17.0.0, SVG Export Plug-In . SVG Version: 6.00 Build 0)  -->
<!DOCTYPE svg PUBLIC "-//W3C//DTD SVG 1.1//EN" "http://www.w3.org/Graphics/SVG/1.1/DTD/svg11.dtd">
<svg version="1.1" xmlns="http://www.w3.org/2000/svg" xmlns:xlink="http://www.w3.org/1999/xlink" x="0px" y="0px"
	 width="39.649px" height="39.649px" viewBox="0 0 39.649 39.649" enable-background="new 0 0 39.649 39.649" xml:space="preserve">
<g id="Capa_2">
	<g>
		<circle fill="#5C5A5B" cx="-26.676" cy="67.628" r="19.111"/>
		<path fill="#FFFAFA" d="M-34.742,73.08V57.885c0,0,0.992-0.881,3.258-0.881c2.375,0,3.322,0.881,3.322,0.881v4.619h8.302
			c0,0,1.251,0.984,1.251,2.406c0,1.468-1.251,2.452-1.251,2.452c-4.778,0-8.302,0-8.302,0v4.386c0,0,0,0.646,0.397,1.115
			c0.464,0.548,1.055,0.53,1.055,0.53h6.85c0,0,1.251,0.97,1.251,2.47c0,1.404-1.251,2.388-1.251,2.388c-4.543,0-8.302,0-8.302,0
			s-2.999,0.027-4.931-1.529C-34.742,75.394-34.742,73.08-34.742,73.08z"/>
	</g>
	<path fill="#FEFEFE" d="M-26.676,0.713c-10.555,0-19.111,8.556-19.111,19.111s8.556,19.111,19.111,19.111
		s19.111-8.556,19.111-19.111S-16.121,0.713-26.676,0.713z M-27.765,25.06c0.464,0.548,1.055,0.53,1.055,0.53h6.85
		c0,0,1.251,0.97,1.251,2.47c0,1.404-1.251,2.388-1.251,2.388c-4.543,0-8.302,0-8.302,0s-2.999,0.027-4.931-1.529
		c-1.649-1.328-1.649-3.643-1.649-3.643V10.082c0,0,0.992-0.881,3.258-0.881c2.375,0,3.322,0.881,3.322,0.881V14.7h8.302
		c0,0,1.251,0.984,1.251,2.406c0,1.468-1.251,2.452-1.251,2.452c-4.778,0-8.302,0-8.302,0v4.386
		C-28.163,23.945-28.163,24.591-27.765,25.06z"/>
</g>
<g id="guías">
	<g>
		<circle fill="#5C5A5B" cx="19.824" cy="67.628" r="19.111"/>
		<path fill="#FEFEFE" d="M22.053,60.304h3.203v-4.238h-4c0,0-2.788,0.03-3.891,1.328c-1.234,1.453-1.234,2.91-1.234,2.91v4.012
			h-1.739v4h1.739V79.19h5.125V68.315h4v-4h-4v-2.877c0,0,0.005-0.686,0.177-0.936C21.573,60.299,22.053,60.304,22.053,60.304z"/>
	</g>
	<path fill="#FEFEFE" d="M19.824,0.713C9.27,0.713,0.713,9.27,0.713,19.824S9.27,38.936,19.824,38.936s19.111-8.556,19.111-19.111
		S30.379,0.713,19.824,0.713z M25.257,12.5h-3.203c0,0-0.48-0.005-0.62,0.199c-0.172,0.25-0.177,0.936-0.177,0.936v2.877h4v4h-4
		v10.875h-5.125V20.512h-1.739v-4h1.739V12.5c0,0,0-1.457,1.234-2.91c1.102-1.298,3.891-1.328,3.891-1.328h4V12.5z"/>
	<path fill="#FEFEFE" d="M89.923,68.91c-0.03,0.526-0.068,1.05-0.133,1.573c-0.151,1.227-0.417,2.429-0.803,3.603
		c-0.859,2.615-2.213,4.944-4.065,6.98c-1.923,2.115-4.203,3.727-6.841,4.832c-0.398,0.167-0.8,0.324-1.211,0.455
		c-0.269,0.086-0.545,0.086-0.812-0.013c-0.342-0.127-0.563-0.457-0.565-0.854C75.49,85,75.495,84.514,75.5,84.028
		c0.013-1.382,0.027-2.765,0.006-4.147c-0.013-0.858-0.19-1.684-0.616-2.442c-0.174-0.311-0.391-0.588-0.672-0.838
		c0.155-0.02,0.294-0.037,0.431-0.055c1.032-0.138,2.048-0.341,3.031-0.694c0.896-0.322,1.73-0.756,2.47-1.362
		c0.996-0.815,1.694-1.841,2.151-3.038c0.282-0.74,0.46-1.506,0.568-2.29c0.108-0.784,0.152-1.572,0.128-2.363
		c-0.055-1.814-0.671-3.411-1.872-4.776c-0.072-0.081-0.084-0.142-0.048-0.245c0.287-0.805,0.377-1.637,0.329-2.488
		c-0.048-0.829-0.238-1.626-0.534-2.4c-0.024-0.063-0.056-0.093-0.124-0.103c-0.372-0.058-0.738-0.017-1.102,0.055
		c-0.864,0.172-1.662,0.519-2.436,0.928c-0.54,0.285-1.061,0.603-1.565,0.947c-0.071,0.048-0.131,0.06-0.215,0.037
		c-0.892-0.246-1.798-0.414-2.718-0.514c-0.965-0.104-1.932-0.135-2.901-0.086c-1.289,0.066-2.559,0.26-3.804,0.604
		c-0.072,0.02-0.123,0.007-0.181-0.032c-0.831-0.555-1.693-1.056-2.619-1.438c-0.586-0.242-1.187-0.434-1.82-0.503
		c-0.231-0.025-0.462-0.031-0.694,0.006c-0.052,0.008-0.081,0.026-0.101,0.078c-0.384,0.983-0.586,1.998-0.554,3.055
		c0.02,0.658,0.129,1.301,0.362,1.92c0.029,0.078-0.013,0.109-0.051,0.152c-0.753,0.85-1.292,1.817-1.604,2.91
		c-0.231,0.808-0.309,1.634-0.293,2.472c0.025,1.278,0.175,2.535,0.585,3.752c0.404,1.199,1.039,2.252,1.979,3.111
		c0.8,0.731,1.73,1.241,2.743,1.607c0.821,0.297,1.667,0.49,2.528,0.624c0.279,0.043,0.558,0.083,0.838,0.114
		c0.023,0.003,0.046,0.011,0.08,0.018c-0.244,0.22-0.443,0.464-0.607,0.736c-0.327,0.541-0.508,1.133-0.599,1.755
		c-0.008,0.057-0.028,0.087-0.081,0.11c-0.788,0.34-1.605,0.527-2.467,0.458c-0.954-0.076-1.751-0.484-2.404-1.178
		c-0.241-0.256-0.447-0.54-0.633-0.839c-0.379-0.611-0.846-1.142-1.447-1.546c-0.59-0.395-1.235-0.567-1.944-0.461
		c-0.105,0.016-0.209,0.039-0.306,0.086c-0.182,0.09-0.23,0.228-0.139,0.411c0.046,0.094,0.111,0.174,0.184,0.248
		c0.154,0.158,0.323,0.3,0.517,0.403c0.465,0.246,0.803,0.625,1.106,1.04c0.443,0.609,0.818,1.256,1.102,1.957
		c0.403,0.997,1.15,1.633,2.152,1.985c0.752,0.264,1.533,0.332,2.324,0.312c0.612-0.016,1.218-0.085,1.82-0.197
		c0.078-0.014,0.109-0.011,0.11,0.086c0.004,1.141,0.014,2.282,0.023,3.423c0.003,0.353-0.103,0.655-0.415,0.854
		c-0.236,0.15-0.5,0.173-0.77,0.141c-0.295-0.036-0.563-0.165-0.837-0.268c-2.314-0.873-4.386-2.142-6.21-3.812
		c-2.36-2.162-4.082-4.751-5.159-7.767c-0.422-1.182-0.72-2.395-0.9-3.637c-0.093-0.642-0.153-1.288-0.185-1.936
		c-0.001-0.021,0.018-0.051-0.018-0.063c0-0.533,0-1.066,0-1.599c0.032-0.01,0.017-0.037,0.018-0.055
		c0.028-0.677,0.093-1.35,0.193-2.02c0.215-1.435,0.576-2.832,1.118-4.178c1.76-4.371,4.71-7.692,8.849-9.942
		c2.481-1.349,5.145-2.079,7.964-2.244c0.116-0.007,0.235,0.008,0.348-0.032c0.508,0,1.016,0,1.524,0
		c0.012,0.029,0.038,0.016,0.057,0.017c0.416,0.017,0.832,0.049,1.246,0.092c0.989,0.102,1.963,0.281,2.923,0.539
		c2.774,0.746,5.259,2.046,7.453,3.899c1.757,1.484,3.205,3.228,4.337,5.23c1.469,2.597,2.286,5.388,2.461,8.367
		c0.006,0.109-0.01,0.221,0.032,0.327c0,0.351,0,0.702,0,1.053C89.933,68.546,89.928,68.728,89.923,68.91z"/>
	<path fill="#FEFEFE" d="M89.923,21.106c-0.03,0.526-0.068,1.05-0.133,1.573c-0.151,1.227-0.417,2.429-0.803,3.603
		c-0.859,2.615-2.213,4.944-4.065,6.98c-1.923,2.115-4.203,3.727-6.841,4.832c-0.398,0.167-0.8,0.324-1.211,0.455
		c-0.269,0.086-0.545,0.086-0.812-0.013c-0.342-0.127-0.563-0.457-0.565-0.854c-0.003-0.486,0.002-0.972,0.006-1.458
		c0.013-1.382,0.027-2.765,0.006-4.147c-0.013-0.858-0.19-1.684-0.616-2.442c-0.174-0.311-0.391-0.588-0.672-0.838
		c0.155-0.02,0.294-0.037,0.431-0.055c1.032-0.138,2.048-0.341,3.031-0.694c0.896-0.322,1.73-0.756,2.47-1.362
		c0.996-0.815,1.694-1.841,2.151-3.038c0.282-0.74,0.46-1.506,0.568-2.29c0.108-0.784,0.152-1.572,0.128-2.363
		c-0.055-1.814-0.671-3.411-1.872-4.776c-0.072-0.081-0.084-0.142-0.048-0.245c0.287-0.805,0.377-1.637,0.329-2.488
		c-0.048-0.829-0.238-1.626-0.534-2.4c-0.024-0.063-0.056-0.093-0.124-0.103c-0.372-0.058-0.738-0.017-1.102,0.055
		c-0.864,0.172-1.662,0.519-2.436,0.928c-0.54,0.285-1.061,0.603-1.565,0.947c-0.071,0.048-0.131,0.06-0.215,0.037
		c-0.892-0.246-1.798-0.414-2.718-0.514c-0.965-0.104-1.932-0.135-2.901-0.086c-1.289,0.066-2.559,0.26-3.804,0.604
		c-0.072,0.02-0.123,0.007-0.181-0.032c-0.831-0.555-1.693-1.056-2.619-1.438c-0.586-0.242-1.187-0.434-1.82-0.503
		c-0.231-0.025-0.462-0.031-0.694,0.006c-0.052,0.008-0.081,0.026-0.101,0.078c-0.384,0.983-0.586,1.998-0.554,3.055
		c0.02,0.658,0.129,1.301,0.362,1.92c0.029,0.078-0.013,0.109-0.051,0.152c-0.753,0.85-1.292,1.817-1.604,2.91
		c-0.231,0.808-0.309,1.634-0.293,2.472c0.025,1.278,0.175,2.535,0.585,3.752c0.404,1.199,1.039,2.252,1.979,3.111
		c0.8,0.731,1.73,1.241,2.743,1.607c0.821,0.297,1.667,0.49,2.528,0.624c0.279,0.043,0.558,0.083,0.838,0.114
		c0.023,0.003,0.046,0.011,0.08,0.018c-0.244,0.22-0.443,0.464-0.607,0.736c-0.327,0.541-0.508,1.133-0.599,1.755
		c-0.008,0.057-0.028,0.087-0.081,0.11c-0.788,0.34-1.605,0.527-2.467,0.458c-0.954-0.076-1.751-0.484-2.404-1.178
		c-0.241-0.256-0.447-0.54-0.633-0.839c-0.379-0.611-0.846-1.142-1.447-1.546c-0.59-0.395-1.235-0.567-1.944-0.461
		c-0.105,0.016-0.209,0.039-0.306,0.086c-0.182,0.09-0.23,0.228-0.139,0.411c0.046,0.094,0.111,0.174,0.184,0.248
		c0.154,0.158,0.323,0.3,0.517,0.403c0.465,0.246,0.803,0.625,1.106,1.04c0.443,0.609,0.818,1.256,1.102,1.957
		c0.403,0.997,1.15,1.633,2.152,1.985c0.752,0.264,1.533,0.332,2.324,0.312c0.612-0.016,1.218-0.085,1.82-0.197
		c0.078-0.014,0.109-0.011,0.11,0.086c0.004,1.141,0.014,2.282,0.023,3.423c0.003,0.353-0.103,0.655-0.415,0.854
		c-0.236,0.15-0.5,0.173-0.77,0.141c-0.295-0.036-0.563-0.165-0.837-0.268c-2.314-0.873-4.386-2.142-6.21-3.812
		c-2.36-2.162-4.082-4.751-5.159-7.767c-0.422-1.182-0.72-2.395-0.9-3.637c-0.093-0.642-0.153-1.288-0.185-1.936
		c-0.001-0.021,0.018-0.051-0.018-0.063c0-0.533,0-1.066,0-1.599c0.032-0.01,0.017-0.037,0.018-0.055
		c0.028-0.677,0.093-1.35,0.193-2.02c0.215-1.435,0.576-2.832,1.118-4.178c1.76-4.371,4.71-7.692,8.849-9.942
		c2.481-1.349,5.145-2.079,7.964-2.244c0.116-0.007,0.235,0.008,0.348-0.032c0.508,0,1.016,0,1.524,0
		c0.012,0.029,0.038,0.016,0.057,0.017c0.416,0.017,0.832,0.049,1.246,0.092c0.989,0.102,1.963,0.281,2.923,0.539
		c2.774,0.746,5.259,2.046,7.453,3.899c1.757,1.484,3.205,3.228,4.337,5.23c1.469,2.597,2.286,5.388,2.461,8.367
		c0.006,0.109-0.01,0.221,0.032,0.327c0,0.351,0,0.702,0,1.053C89.933,20.742,89.928,20.924,89.923,21.106z"/>
	<path fill="#FEFEFE" d="M137.652,13.325c-0.03,0.526-0.068,1.05-0.133,1.573c-0.151,1.227-0.417,2.429-0.803,3.603
		c-0.859,2.615-2.213,4.944-4.065,6.98c-1.923,2.115-4.203,3.727-6.841,4.832c-0.398,0.167-0.8,0.324-1.211,0.455
		c-0.269,0.086-0.545,0.086-0.812-0.013c-0.342-0.127-0.563-0.457-0.565-0.854c-0.003-0.486,0.002-0.972,0.006-1.458
		c0.013-1.382,0.027-2.765,0.006-4.147c-0.013-0.858-0.19-1.684-0.616-2.442c-0.174-0.311-0.391-0.588-0.672-0.838
		c0.155-0.02,0.294-0.037,0.431-0.055c1.032-0.138,2.048-0.341,3.031-0.694c0.896-0.322,1.73-0.756,2.47-1.362
		c0.996-0.815,1.694-1.841,2.151-3.038c0.282-0.74,0.46-1.506,0.568-2.29c0.108-0.784,0.152-1.572,0.128-2.363
		c-0.055-1.814-0.671-3.411-1.872-4.776c-0.072-0.081-0.084-0.142-0.048-0.245c0.287-0.805,0.377-1.637,0.329-2.488
		c-0.048-0.829-0.238-1.626-0.534-2.4c-0.024-0.063-0.056-0.093-0.124-0.103c-0.372-0.058-0.738-0.017-1.102,0.055
		c-0.864,0.172-1.662,0.519-2.436,0.928c-0.54,0.285-1.061,0.603-1.565,0.947c-0.071,0.048-0.131,0.06-0.215,0.037
		c-0.892-0.246-1.798-0.414-2.718-0.514c-0.965-0.104-1.932-0.135-2.901-0.086c-1.289,0.066-2.559,0.26-3.804,0.604
		c-0.072,0.02-0.123,0.007-0.181-0.032c-0.831-0.555-1.693-1.056-2.619-1.438c-0.586-0.242-1.187-0.434-1.82-0.503
		c-0.231-0.025-0.462-0.031-0.694,0.006c-0.052,0.008-0.081,0.026-0.101,0.078c-0.384,0.983-0.586,1.998-0.554,3.055
		c0.02,0.658,0.129,1.301,0.362,1.92c0.029,0.078-0.013,0.109-0.051,0.152c-0.753,0.85-1.292,1.817-1.604,2.91
		c-0.231,0.808-0.309,1.634-0.293,2.472c0.025,1.278,0.175,2.535,0.585,3.752c0.404,1.199,1.039,2.252,1.979,3.111
		c0.8,0.731,1.73,1.241,2.743,1.607c0.821,0.297,1.667,0.49,2.528,0.624c0.279,0.043,0.558,0.083,0.838,0.114
		c0.023,0.003,0.046,0.011,0.08,0.018c-0.244,0.22-0.443,0.464-0.607,0.736c-0.327,0.541-0.508,1.133-0.599,1.755
		c-0.008,0.057-0.028,0.087-0.081,0.11c-0.788,0.34-1.605,0.527-2.467,0.458c-0.954-0.076-1.751-0.484-2.404-1.178
		c-0.241-0.256-0.447-0.54-0.633-0.839c-0.379-0.611-0.846-1.142-1.447-1.546c-0.59-0.395-1.235-0.567-1.944-0.461
		c-0.105,0.016-0.209,0.039-0.306,0.086c-0.182,0.09-0.23,0.228-0.139,0.411c0.046,0.094,0.111,0.174,0.184,0.248
		c0.154,0.158,0.323,0.3,0.517,0.403c0.465,0.246,0.803,0.625,1.106,1.04c0.443,0.609,0.818,1.256,1.102,1.957
		c0.403,0.997,1.15,1.633,2.152,1.985c0.752,0.264,1.533,0.332,2.324,0.312c0.612-0.016,1.218-0.085,1.82-0.197
		c0.078-0.014,0.109-0.011,0.109,0.086c0.004,1.141,0.014,2.282,0.023,3.423c0.003,0.353-0.103,0.655-0.415,0.854
		c-0.236,0.15-0.5,0.173-0.77,0.141c-0.295-0.036-0.563-0.165-0.837-0.268c-2.314-0.873-4.386-2.142-6.21-3.812
		c-2.36-2.162-4.082-4.751-5.159-7.767c-0.422-1.182-0.72-2.395-0.9-3.637c-0.093-0.642-0.153-1.288-0.185-1.936
		c-0.001-0.021,0.018-0.051-0.018-0.063c0-0.533,0-1.066,0-1.599c0.032-0.01,0.017-0.037,0.018-0.055
		c0.028-0.677,0.093-1.35,0.193-2.02c0.215-1.435,0.576-2.832,1.118-4.178c1.76-4.371,4.71-7.692,8.849-9.942
		c2.481-1.349,5.145-2.079,7.964-2.244c0.116-0.007,0.235,0.008,0.348-0.032c0.508,0,1.016,0,1.524,0
		c0.012,0.029,0.038,0.016,0.057,0.017c0.416,0.017,0.832,0.049,1.246,0.092c0.989,0.102,1.963,0.281,2.923,0.539
		c2.774,0.746,5.259,2.046,7.453,3.899c1.757,1.484,3.205,3.228,4.337,5.23c1.469,2.597,2.286,5.388,2.461,8.367
		c0.006,0.109-0.01,0.221,0.032,0.327c0,0.351,0,0.702,0,1.053C137.662,12.962,137.657,13.144,137.652,13.325z"/>
</g>
</svg>
