<?xml version="1.0" encoding="utf-8"?>
<!-- Generator: Adobe Illustrator 16.0.0, SVG Export Plug-In . SVG Version: 6.00 Build 0)  -->
<!DOCTYPE svg PUBLIC "-//W3C//DTD SVG 1.1//EN" "http://www.w3.org/Graphics/SVG/1.1/DTD/svg11.dtd">
<svg version="1.1" id="Capa_1" xmlns="http://www.w3.org/2000/svg" xmlns:xlink="http://www.w3.org/1999/xlink" x="0px" y="0px"
	 width="276.333px" height="230.667px" viewBox="0 0 276.333 230.667" enable-background="new 0 0 276.333 230.667"
	 xml:space="preserve">
<g>
	<path fill="#FFFFFF" d="M135.112,67.927c0.021-0.267,0.289-0.624,0.807-1.069c0.515-0.444,2.194-1.728,5.001-3.824
		c2.755-2.057,4.632-3.521,5.662-4.414c1.02-0.884,1.624-1.474,1.816-1.775c0.763,0.316,0.921,0.826,0.469,1.535
		c1.066-0.176,1.992-0.149,2.78,0.084c0.794,0.235,1.138,0.679,1.024,1.336c-0.115,0.664-0.602,1.384-1.463,2.159
		c-1.076,0.968-2.391,1.742-3.935,2.315c-0.742,0.271-1.498,0.44-2.264,0.506c-0.764,0.067-1.445-0.003-2.042-0.208
		c-0.251-0.086-0.467-0.186-0.649-0.301l0.632-0.597c0.032,0.011,0.066,0.022,0.1,0.033c0.945,0.32,2.15,0.184,3.605-0.41
		c1.021-0.429,1.875-0.948,2.558-1.556c0.995-0.887,1.308-1.573,0.946-2.058c-0.317-0.397-1.002-0.545-2.054-0.446l-0.029,0.026
		c-0.387,0.338-1.775,1.412-4.195,3.243c-2.461,1.862-4.468,3.469-6.006,4.809c-0.694,0.605-1.213,1.087-1.551,1.445
		c-0.284-0.08-0.467-0.136-0.549-0.167C135.313,68.417,135.093,68.195,135.112,67.927"/>
	<path fill="#FFFFFF" d="M157.045,60.691c-0.095,0.175-0.205,0.329-0.333,0.464c-0.128,0.134-0.381,0.374-0.757,0.72
		c-0.38,0.348-1.884,1.545-4.55,3.618c-2.715,2.111-4.587,3.634-5.584,4.546c-1.007,0.919-1.636,1.575-1.882,1.962
		c-0.51-0.515-0.695-1.007-0.56-1.48c0.134-0.47,0.561-1.029,1.277-1.677c0.417-0.376,1.562-1.295,3.417-2.742
		c3.044-2.353,5.27-4.17,6.706-5.475c0.305-0.275,0.699-0.656,1.186-1.14c0.64,0.237,1.02,0.494,1.136,0.772
		C157.156,60.373,157.139,60.517,157.045,60.691"/>
	<path fill="#FFFFFF" d="M171.023,65.552c0.487-0.462,0.858-0.779,1.112-0.953c1.127,0.558,2.376,1.042,3.75,1.45
		c1.393,0.415,2.419,0.68,3.071,0.792c0.592-0.366,1.04-0.672,1.346-0.918c0.084,0.914-0.206,1.728-0.874,2.438
		c-0.662,0.703-2.21,1.559-4.646,2.568c-1.145,0.48-2.328,0.962-3.552,1.446c-3.372,1.322-6.162,2.524-8.371,3.608l0.239,0.088
		c2.625,0.96,4.819,1.463,6.544,1.491c-0.927,0.833-1.825,1.42-2.692,1.756c-0.868,0.337-1.603,0.391-2.201,0.164
		c-0.31-0.117-0.883-0.424-1.716-0.916c-0.825-0.486-1.73-0.915-2.715-1.286c-0.976-0.367-1.978-0.589-3.008-0.667
		c1.076-0.787,2.15-1.187,3.231-1.202c6.783-2.697,12.222-5.153,16.31-7.358c-3.438-0.285-5.584-0.567-6.484-0.847
		C169.863,67.048,170.084,66.495,171.023,65.552"/>
	<path fill="#FFFFFF" d="M181.256,68.643c0.487-0.492,0.86-0.829,1.119-1.013c1.258,0.607,2.641,1.136,4.153,1.587
		c1.533,0.456,2.662,0.749,3.374,0.875c0.607-0.388,1.066-0.713,1.375-0.975c0.166,0.983-0.079,1.856-0.741,2.613
		c-0.656,0.751-2.257,1.659-4.802,2.724c-1.196,0.506-2.434,1.015-3.714,1.526c-3.532,1.394-6.445,2.665-8.742,3.814l0.266,0.097
		c2.903,1.061,5.311,1.627,7.176,1.673c-0.936,0.893-1.86,1.52-2.771,1.875c-0.911,0.355-1.7,0.406-2.362,0.155
		c-0.344-0.13-0.986-0.468-1.924-1.008c-0.927-0.534-1.935-1.006-3.024-1.416c-1.078-0.407-2.173-0.656-3.287-0.75
		c1.1-0.839,2.226-1.26,3.388-1.266c7.099-2.845,12.766-5.44,16.994-7.776c-3.728-0.337-6.061-0.658-7.052-0.966
		C180.125,70.239,180.319,69.646,181.256,68.643"/>
	<path fill="#FFFFFF" d="M192.605,81.03l-1.911-0.675c-0.583-0.199-1.03-0.343-1.342-0.433c-1.626,1.617-2.975,3.044-4.035,4.274
		c3.128,1.143,5.716,1.757,7.714,1.817c-0.939,0.961-1.89,1.632-2.847,2.008c-0.959,0.377-1.811,0.424-2.551,0.143
		c-0.218-0.083-0.777-0.372-1.675-0.862c-0.887-0.487-1.87-0.933-2.947-1.339c-1.066-0.403-2.193-0.681-3.383-0.836
		c0.672-0.559,1.412-0.943,2.222-1.155l0.066-0.078c0.604-0.696,2.141-2.201,4.581-4.486c-0.417,0.002-0.778,0.007-1.083,0.014
		c0.211-0.281,0.375-0.489,0.493-0.625c0.714-0.823,1.54-1.217,2.485-1.186c1.611-1.529,2.992-2.908,4.148-4.141
		c-0.454-0.17-0.668-0.362-0.644-0.577c0.023-0.214,0.257-0.577,0.699-1.088c0.486-0.508,0.83-0.832,1.033-0.974
		c1.283,0.597,2.813,1.159,4.595,1.688c1.808,0.537,3.696,0.918,5.663,1.139c-1.225,1.222-2.731,1.728-4.498,1.508
		c-1.037-0.119-2.456-0.426-4.242-0.916c-0.124,0.128-1.494,1.466-4.152,4.058c0.77,0.287,1.31,0.481,1.615,0.583
		c1.271,0.421,2.354,0.514,3.242,0.275c-0.182,0.263-0.323,0.458-0.428,0.585C194.471,80.915,193.526,81.344,192.605,81.03"/>
	<path fill="#FFFFFF" d="M193.857,90.111c-0.136-0.418,0.059-0.955,0.58-1.612c0.518-0.653,2.307-2.523,5.314-5.554
		c2.934-2.959,4.883-5.059,5.891-6.343c0.996-1.268,1.54-2.117,1.641-2.556c1.362,0.519,1.946,1.293,1.736,2.327
		c1.438-0.192,2.834-0.089,4.193,0.313c1.375,0.406,2.262,1.084,2.653,2.037c0.398,0.967,0.266,1.917-0.407,2.847
		c-0.679,0.938-1.728,1.762-3.145,2.469c-1.422,0.708-3.028,1.067-4.809,1.075l-0.31,0.912c-0.621,1.765-0.993,3.632-1.107,5.611
		c-0.119,2.025-0.058,3.488,0.19,4.363c-0.703-0.073-1.345-0.221-1.924-0.443c-0.577-0.222-1.024-0.622-1.342-1.197
		c-0.316-0.571-0.507-1.135-0.576-1.692c-0.07-0.553,0.001-1.359,0.208-2.412c0.204-1.04,0.389-1.832,0.557-2.382
		c0.167-0.547,0.352-1.146,0.553-1.796c0.198-0.646,0.307-0.99,0.323-1.036c0.017-0.047,0.033-0.106,0.052-0.177
		c0.017-0.072,0.039-0.138,0.065-0.197c-0.326-0.111-0.644-0.219-0.954-0.324l0.652-0.956c1.933,0.562,3.818,0.414,5.632-0.448
		c1-0.483,1.749-1.061,2.247-1.732c0.188-0.254,0.34-0.511,0.457-0.769c0.38-0.939,0.163-1.657-0.64-2.158
		c-0.221-0.146-0.568-0.291-1.043-0.435c-0.474-0.144-1.2-0.199-2.183-0.167c-0.375,0.488-1.818,2.03-4.374,4.669
		c-2.611,2.697-4.696,5.044-6.231,7.023c-0.695,0.895-1.195,1.613-1.497,2.151c-0.493-0.15-0.812-0.253-0.957-0.308
		C194.475,90.899,193.993,90.531,193.857,90.111"/>
	<path fill="#FFFFFF" d="M222.431,91.188l-2.437-0.857c-0.74-0.252-1.305-0.435-1.698-0.551c-1.61,1.899-2.931,3.579-3.948,5.031
		c3.992,1.46,7.237,2.27,9.658,2.396c-0.927,1.138-1.931,1.926-3.006,2.357c-1.076,0.431-2.093,0.465-3.043,0.104
		c-0.28-0.106-1.016-0.472-2.196-1.09c-1.169-0.612-2.44-1.178-3.816-1.697c-1.361-0.513-2.767-0.878-4.221-1.095
		c0.69-0.655,1.499-1.099,2.425-1.334l0.063-0.091c0.58-0.821,2.113-2.589,4.563-5.265c-0.498-0.008-0.928-0.011-1.29-0.009
		c0.193-0.331,0.347-0.576,0.46-0.735c0.684-0.965,1.589-1.416,2.724-1.356c1.608-1.785,2.97-3.393,4.091-4.832
		c-0.577-0.211-0.873-0.443-0.89-0.697c-0.016-0.254,0.187-0.678,0.606-1.273c0.474-0.591,0.814-0.966,1.026-1.13
		c1.655,0.733,3.601,1.432,5.843,2.098c2.278,0.676,4.626,1.171,7.032,1.478c-1.198,1.428-2.896,1.997-5.065,1.695
		c-1.269-0.166-3.034-0.564-5.276-1.186c-0.121,0.149-1.475,1.711-4.108,4.74c0.98,0.361,1.668,0.606,2.056,0.735
		c1.614,0.535,2.936,0.672,3.95,0.408c-0.161,0.31-0.291,0.54-0.389,0.69C224.647,91.096,223.604,91.588,222.431,91.188"/>
	<path fill="#FFFFFF" d="M146.521,87.983c-0.367-0.17-0.52-0.41-0.461-0.718s0.262-0.72,0.605-1.235
		c0.344-0.512,10.988-15.615,12.41-17.434c-0.439,0.13-0.923,0.12-1.449-0.03l-2.554-0.74c-2.181,1.313-19.927,12.007-21.597,13.183
		c-0.423-0.76-0.371-1.373,0.151-1.845c0.229-0.208,17.04-10.206,18.906-11.257c1.856-1.045,3.949-2.225,6.274-3.536
		c2.307-1.301,3.937-2.251,4.901-2.856l0.994-0.622c0.062-0.155,0.127-0.449,0.195-0.882c0.465-0.015,0.825,0.014,1.082,0.087
		c0.257,0.073,0.451,0.152,0.582,0.238s0.216,0.193,0.254,0.321s0.06,0.254,0.063,0.379s-0.048,0.294-0.152,0.507
		c-0.106,0.213-0.207,0.403-0.302,0.57c-0.098,0.167-0.248,0.398-0.456,0.692c-0.208,0.295-0.395,0.55-0.558,0.764
		c-0.163,0.215-0.394,0.514-0.691,0.898c-0.3,0.386-0.586,0.761-0.857,1.126c-0.271,0.366-0.807,1.065-1.607,2.103
		c-0.812,1.05-1.417,1.846-1.813,2.383c-0.396,0.539-0.809,1.161-1.236,1.866c-0.431,0.711-10.531,15.64-10.706,16.179
		C147.55,88.201,146.891,88.153,146.521,87.983 M163.367,63.002c-0.461,0.27-1.456,0.844-2.988,1.725
		c-1.542,0.887-2.767,1.6-3.668,2.137l2.967,0.982C161.484,65.521,162.704,63.917,163.367,63.002"/>
	<path fill="#FFFFFF" d="M133.477,81.009c0,0,6.888,7.301,15.025,7.115c2.348-3.656,1.719-2.703,1.719-2.703
		s-12.528,0.445-14.802-7.356C133.626,79.165,133.477,81.009,133.477,81.009"/>
	<path fill="#FFFFFF" d="M134.306,80.648c-0.772-0.016,0.441,0.2,0.129,0.73c-0.932,1.964-4.551,3.928-5.295,5.735
		c2.416-1.346,3.597-3.436,5.549-5.111c1.908-0.148,0.177,1.457-0.553,2.514l0.09,0.044c1.093-0.889,2.306-2.396,3.187-1.823"/>
	<path fill="#FFFFFF" d="M141.957,85.875c0.014,1.814-5.047,5.16-6.054,7.578c3.591-1.309,3.885-4.778,6.503-6.47
		c2.589-1.674,2.541,0.821,0.967,2.67c1.092-0.041,2.157-1.395,3.138-2.22"/>
	<path fill="#FFFFFF" d="M105.015,96.175c0,1.872,85.331,57.675,85.331,57.675"/>
	<path fill="#FFFFFF" d="M105.015,96.175c-0.021,0.024,0.237,0.325,0.87,0.74c0.616,0.433,1.567,1.005,2.758,1.756
		c2.404,1.47,5.839,3.572,9.96,6.093c2.059,1.264,4.293,2.625,6.629,4.107c2.342,1.473,4.827,3,7.357,4.645
		c2.533,1.641,5.186,3.283,7.824,5.035c2.648,1.738,5.34,3.504,8.03,5.27c2.67,1.801,5.339,3.6,7.967,5.369
		c2.641,1.752,5.177,3.57,7.667,5.277c2.49,1.703,4.86,3.41,7.115,5.016c2.264,1.596,4.375,3.143,6.323,4.576
		c3.906,2.85,7.111,5.301,9.344,7.033c2.234,1.73,3.486,2.758,3.486,2.758s-1.443-0.734-3.922-2.092
		c-2.479-1.357-6.004-3.322-10.17-5.781c-2.088-1.221-4.346-2.549-6.704-4c-2.366-1.439-4.868-2.947-7.415-4.572
		c-2.547-1.621-5.215-3.242-7.858-4.994c-2.653-1.734-5.351-3.498-8.047-5.26c-2.668-1.807-5.335-3.613-7.961-5.391
		c-2.632-1.77-5.162-3.6-7.64-5.328c-2.479-1.727-4.831-3.463-7.069-5.099c-2.242-1.626-4.33-3.214-6.253-4.687
		c-3.851-2.934-6.987-5.486-9.133-7.339c-1.08-0.917-1.888-1.691-2.429-2.228C105.192,96.549,104.983,96.182,105.015,96.175"/>
	<path fill="#FFFFFF" d="M7.673,134.665c-1.271,0.539-1.866,2.006-1.328,3.277c0.539,1.271,2.006,1.865,3.277,1.326l45.904-19.43
		c0.443-1.973,0.642-3.942,1.142-5.914L7.673,134.665z"/>
	<path fill="#FFFFFF" d="M269.99,54.283c-0.012-0.943-0.552-1.799-1.398-2.214l-94.738-46.5c-0.991-0.486-2.182-0.265-2.934,0.542
		L99.956,82.498c-0.586,0.631-0.807,1.52-0.582,2.352l2.66,9.873l-18.298,7.746c1.702,1.512,4.458,1.621,6.503,2.678l15.75-6.668
		c1.15-0.487,1.765-1.747,1.439-2.953l-2.866-10.639l68.756-74.011l91.69,45.004l0.166,13.931l-75.588,80.236l-2.13,1.434
		c-1.146,0.771-1.448,2.326-0.678,3.471c0.483,0.717,1.272,1.104,2.076,1.104c0.48,0,0.966-0.137,1.395-0.426l2.361-1.59
		c0.154-0.104,0.296-0.225,0.423-0.359l76.472-81.175c0.444-0.471,0.688-1.097,0.681-1.744L269.99,54.283z"/>
	<path fill-rule="evenodd" clip-rule="evenodd" fill="#FFFFFF" d="M75.139,185.571c-0.988-5.475-2.288-10.891-2.804-16.453
		c-0.363-3.916-1.06-7.811-1.025-11.752c0.022-2.607-0.284-5.193-0.164-7.814c0.191-4.117,0.322-8.236,0.812-12.328
		c0.386-3.201,0.794-6.408,1.548-9.549c0.282-1.182-0.08-1.873-1.177-2.26c-1.429-0.141-2.255,0.631-2.34,1.936
		c-0.3,4.498-1.529,8.859-1.838,13.352c-0.147,2.127,0.034,4.252-0.196,6.385c-0.391,3.643-0.436,7.291-0.068,10.955
		c0.364,3.621,0.299,7.293,0.803,10.889c0.641,4.576,1.51,9.119,2.533,13.629C72.376,183.665,73.376,185.177,75.139,185.571z"/>
	<path fill-rule="evenodd" clip-rule="evenodd" fill="#FFFFFF" d="M125.164,169.735c-0.635-1.162-1.551-1.393-2.757-0.916
		c-7.611,3.01-15.251,5.951-22.826,9.047c-1.718,0.703-3.443,1.393-5.168,2.07c-4.966,1.951-9.943,3.875-14.908,5.83
		c-0.73,0.287-1.449,0.609-2.16,0.947c1.092,0.256,1.551,1.801,2.497,2.615c3.472-1.326,6.947-2.643,10.398-4.023
		c6.842-2.736,13.687-5.463,20.535-8.182c2.829-1.123,5.687-2.172,8.504-3.316c1.569-0.641,3.128-1.313,4.69-1.975
		C124.896,171.438,125.376,170.784,125.164,169.735z"/>
	<path fill-rule="evenodd" clip-rule="evenodd" fill="#FFFFFF" d="M164.134,144.628c-1.325-0.91-2.825-1.49-4.218-2.266
		c-5.646-3.145-11.181-6.5-16.882-9.539c-6.42-3.42-12.754-6.992-19.105-10.535c-6.215-3.469-12.475-6.857-18.691-10.325
		c-6.305-3.517-12.669-6.924-18.911-10.555c-0.528-0.307-1.178-0.402-1.718-0.695c-2.01-1.086-3.715-2.199-4.719-4.64
		c-2.205-5.346-9.752-7.841-15.1-4.365c-1.841,1.198-3.308,2.984-4.15,5.117c-2.012,5.092-4.012,10.228-5.275,15.534
		c-1.512,6.338-3.154,12.662-3.861,19.201c-0.434,4.002-1.006,8.004-1.193,12.016c-0.252,5.463-0.557,10.932-0.02,16.42
		c0.252,2.58,0.264,5.184,0.474,7.773c0.965,1.156,2.319,1.922,3.728,2.635c-0.106-0.824-0.229-1.646-0.324-2.471
		c-0.384-3.313-0.232-6.672-0.553-9.975c-0.612-6.322,0.023-12.598,0.327-18.875c0.131-2.68,0.827-5.387,1.096-8.072
		c0.64-6.365,2.298-12.482,3.94-18.607c1.261-4.699,2.701-9.356,4.629-13.842c0.919-2.14,2.255-3.914,4.498-4.706
		c3.13-1.104,5.807,0.082,7.912,2.295c1.924,2.022,1.963,4.56,1.067,7.179c-1.735,5.078-3.739,10.07-4.894,15.346
		c-0.297,1.35,0.033,2.08,1.158,2.639l0.096-0.031l0.08,0.057c0.134-0.031,0.267-0.064,0.4-0.096
		c0.692-0.18,1.228-0.498,1.357-1.293c0.516-3.18,1.762-6.137,2.895-9.117c0.547-1.442,0.637-3.039,1.508-4.36
		c0.041-1.169,0.654-2.18,0.908-3.293c0.078-0.343,0.174-0.694,0.737-0.437c1.735,0.793,3.444,1.621,5.05,2.801
		c-1.119,0.99-1.9,2.154-2.781,3.236c-2.725,5.759-2.44,11.402,1.902,16.08c5.842,6.291,14.333,5.838,20.217,0.088
		c0.86-0.84,1.346-2.064,2.006-3.111c0.459-1.199,0.918-2.4,1.44-3.768c7.739,4.264,15.5,8.543,23.263,12.822
		c-0.986,1.049-1.871,1.994-2.756,2.936c-1.207,2.918-2.675,5.777-2.166,9.1c0.885,5.785,3.937,9.791,9.584,11.693
		c6.331,2.135,12.594-0.928,15.819-5.963c0.271-0.426,0.389-0.947,0.578-1.426c0.449-1.271,0.9-2.543,1.364-3.855
		c2.396,1.307,4.705,2.564,7.01,3.826c1.263,0.693,1.85,1.73,1.745,3.203c-0.109,1.535-0.872,2.484-2.288,3.016
		c-0.865,0.326-1.696,0.744-2.542,1.121c-5.853,2.264-11.75,4.41-17.538,6.83c-3.588,1.498-7.198,2.928-10.85,4.248
		c-1.371,0.498-1.147,1.533-1.211,2.537c0.732,1.027,1.481,1.428,2.729,0.574c0.915-0.627,2.082-0.883,3.142-1.293
		c5.252-2.021,10.567-3.896,15.734-6.109c3.377-1.445,6.877-2.545,10.228-4.033c1.076-0.475,2.172-0.951,3.153-1.586
		C168.115,153.147,168.078,147.339,164.134,144.628z M105.813,117.085c-1.284,5.373-4.723,9.199-11.327,8.668
		c-1.486,0.117-2.942-0.625-4.421-1.457c-5.713-3.207-6.43-12.292-1.244-16.357c0.387-0.304,0.695-0.604,1.357-0.291
		c5.106,2.43,9.828,5.562,14.871,8.103C105.601,116.026,105.987,116.36,105.813,117.085z M139.438,151.718
		c-2.488-0.25-5.463-1.682-7.223-5.047c-2.303-4.396-1.594-10.084,2.443-13.082c0.52-0.389,0.98-0.836,1.786-0.41
		c4.675,2.461,9.152,5.281,13.921,7.566c0.638,0.307,1.025,0.682,0.979,1.549C151.056,147.931,146.163,152.29,139.438,151.718z"/>
	<path fill-rule="evenodd" clip-rule="evenodd" fill="#FFFFFF" d="M112.025,148.519c-0.81,1.068-0.472,1.939,0.292,2.928
		c4.885,6.328,1.434,15.09-5.695,16.467c-6.851,1.326-11.1-2.459-12.373-8.162c-0.957-4.295,0.844-7.93,4.549-10.406
		c2.066-1.383,4.207-1.938,6.623-1.521c1.09,0.188,1.961-0.072,2.481-1.125c0.142-1.615-0.728-2.141-2.217-2.355
		c-6.204-0.904-12.161,3.43-14.035,8.504c-2.547,6.898-0.26,13.639,6.203,17.141c5.819,3.156,11.944,2.133,16.54-2.758
		c3.176-3.379,4.496-7.734,3.322-12.441c-0.498-2.002-1.541-3.824-2.78-5.523C114.114,148.14,113.237,147.821,112.025,148.519"/>
	<path fill-rule="evenodd" clip-rule="evenodd" fill="#FFFFFF" d="M78.634,139.659c-0.705-1.174-1.129-2.438-1.615-3.697
		c-1.174-3.027-0.878-3.729,2.174-4.551c0.248-0.068,0.5-0.133,0.753-0.188c3.222-0.678,6.406-1.041,9.032,1.58
		c2.206,2.201,3.433,4.914,3.882,7.977c0.158,1.076-0.55,1.641-1.46,1.932c-2.035,0.654-4.096,1.182-6.368,0.805
		C82.165,143.585,80.12,142.134,78.634,139.659 M80.331,134.755c-0.416,0.832,0.504,2.109,1.109,3.076
		c1.557,2.492,4.689,3.4,7.363,2.18c0.457-0.209,0.498-0.52,0.318-0.85c-0.815-1.484-1.379-3.139-2.81-4.213
		c-0.835-0.627-1.832-0.656-2.708-0.773C82.382,134.198,80.811,133.79,80.331,134.755"/>
	<path fill-rule="evenodd" clip-rule="evenodd" fill="#FFFFFF" d="M111.079,128.839c0.761-1.848,1.598-2.066,3.46-1.277
		c0.476,0.201,0.935,0.441,1.405,0.648c3.216,1.414,5.264,3.656,5.757,7.307c0.312,2.305-0.409,4.332-1.146,6.35
		c-1.006,2.758-1.951,3.031-4.59,1.777c-0.281-0.133-0.551-0.293-0.834-0.42c-4.063-1.807-5.939-4.877-5.658-9.236
		C109.577,132.138,110.396,130.497,111.079,128.839 M114.647,131.12c-0.603-0.289-0.836-0.143-1.088,0.338
		c-1.746,3.281-0.776,6.633,2.453,8.631c0.916,0.566,1.488,0.734,1.86-0.596c0.211-0.76,0.37-1.502,0.438-2.277
		C118.556,134.452,117.257,132.372,114.647,131.12"/>
	<path fill-rule="evenodd" clip-rule="evenodd" fill="#FFFFFF" d="M77.489,164.28c-1.037,0.898-0.982,1.842-0.178,2.871
		c0.908,1.162,1.924,2.209,3.097,3.098c0.726,0.549,1.556,0.746,2.302,0.133c3.137-2.58,5.307-6.141,4.621-10.311
		c-0.555-3.389-2.98-5.418-5.521-7.234c-1.301-0.932-2.357,0.256-3.165,1.217c-0.729,0.865-1.3,1.865-1.951,2.799
		c-0.772,1.105-0.63,2.035,0.513,2.783c1.081,0.184,1.938-0.041,2.438-1.154c0.248-0.555,0.699-1.02,1.002-1.555
		c0.264-0.467,0.496-0.408,0.84-0.104c2.87,2.543,3.75,5.291,1.273,8.652c-1.162,1.582-1.172,1.615-2.432,0.031
		C79.577,164.563,78.87,163.685,77.489,164.28"/>
	<path fill-rule="evenodd" clip-rule="evenodd" fill="#FFFFFF" d="M73.925,121.243c-0.134,0.031-0.267,0.063-0.4,0.096
		C73.658,121.306,73.791,121.274,73.925,121.243"/>
	<path fill="#FFFFFF" d="M191.822,152.95c-1.808,0.396-3.614,0.73-5.42,1c0.004,0.096-0.015,0.186-0.024,0.277
		c0.03,0.16,0.057,0.32,0.05,0.477l0.045,0.029v18.945l-89.509,46.051l-85.348-62.705v-18.352l0.164-0.078
		c-1.838-0.813-3.563-1.838-5.229-2.953c-0.203,0.389-0.322,0.826-0.322,1.285v21.5c0,0.879,0.416,1.705,1.117,2.221l87.795,64.5
		c0.467,0.344,1.02,0.52,1.576,0.52c0.413,0,0.829-0.098,1.213-0.297l92.284-46.998c0.906-0.467,1.645-1.977,1.645-3.01v-22.113
		C191.859,153.147,191.833,153.052,191.822,152.95"/>
	<path fill="#FFFFFF" d="M96.371,215.554l-0.608-4.188l-0.562-4.193c-0.335-2.799-0.71-5.594-1.011-8.395l-0.068-0.639l0.624-0.332
		l5.403-2.883l5.432-2.818c3.612-1.898,7.268-3.705,10.906-5.549c3.631-1.857,7.314-3.604,10.971-5.408
		c3.653-1.813,7.346-3.535,11.027-5.287c1.844-0.869,3.677-1.762,5.53-2.609l5.555-2.555c3.694-1.723,7.428-3.359,11.15-5.023
		c1.856-0.84,3.736-1.631,5.606-2.443c1.871-0.811,3.741-1.621,5.627-2.4c3.759-1.584,7.534-3.133,11.349-4.598
		c-3.531,2.072-7.102,4.063-10.688,6.02c-1.786,0.99-3.589,1.947-5.39,2.908c-1.804,0.957-3.596,1.936-5.411,2.865
		c-3.623,1.877-7.234,3.777-10.884,5.594l-5.462,2.756c-1.819,0.92-3.659,1.799-5.487,2.699c-3.665,1.787-7.316,3.604-11.008,5.332
		c-3.689,1.732-7.35,3.527-11.063,5.209c-3.707,1.697-7.396,3.43-11.128,5.07l-5.586,2.49l-5.613,2.428l0.555-0.971
		c0.101,2.814,0.129,5.637,0.197,8.455l0.041,4.23L96.371,215.554z"/>
	<line fill="#FFFFFF" x1="172.753" y1="26.813" x2="173.699" y2="8.278"/>
	<path fill="#FFFFFF" d="M172.753,26.813c0,0-0.275-1.176-0.423-2.925c-0.084-0.876-0.14-1.895-0.155-2.984
		c-0.021-1.09-0.007-2.251,0.053-3.41c0.06-1.158,0.16-2.314,0.293-3.397c0.125-1.082,0.284-2.09,0.457-2.952
		c0.327-1.726,0.722-2.867,0.722-2.867s0.277,1.175,0.426,2.925c0.085,0.876,0.14,1.895,0.153,2.984
		c0.022,1.09,0.005,2.251-0.054,3.409c-0.059,1.159-0.164,2.315-0.295,3.397c-0.127,1.083-0.285,2.091-0.458,2.953
		C173.146,25.672,172.753,26.813,172.753,26.813"/>
	<path fill="#FFFFFF" d="M178.393,181.134c0,0-0.086-0.213-0.246-0.615c-0.068-0.211-0.124-0.457-0.149-0.719l-0.009-0.1
		l0.001-0.035l0.002-0.064c0.001-0.045,0.003-0.092,0.004-0.139c0.005-0.203,0.021-0.414,0.049-0.594
		c0.047-0.404,0.126-0.813,0.226-1.275c0.097-0.463,0.219-0.961,0.357-1.498c0.553-2.146,1.389-4.898,2.261-7.639
		c1.741-5.477,3.622-10.883,3.622-10.883s-0.792,5.686-1.431,11.367c-0.317,2.838-0.598,5.682-0.714,7.764
		c-0.028,0.52-0.049,0.992-0.053,1.393c-0.007,0.4-0.002,0.75,0.022,0.969c0.005,0.131,0.021,0.199,0.034,0.24l0.009,0.035
		l0.004,0.016l0.001,0.006l-0.002-0.061c-0.012-0.16-0.053-0.314-0.107-0.443c-0.028-0.063-0.059-0.121-0.09-0.172
		c-0.021-0.037-0.089-0.131-0.062-0.09c0.018,0.025,0.031,0.049,0.043,0.066c0.023,0.037,0.035,0.055,0.035,0.055L178.393,181.134z"
		/>
	<path fill="#FFFFFF" d="M13.925,141.313c0,0,4.986,3.008,12.26,7.816c1.82,1.197,3.793,2.496,5.857,3.902
		c2.068,1.4,4.258,2.863,6.491,4.422c2.235,1.559,4.567,3.135,6.897,4.795c2.334,1.654,4.705,3.334,7.078,5.014
		c2.353,1.705,4.707,3.412,7.022,5.09c2.325,1.668,4.567,3.375,6.761,4.992c4.374,3.254,8.422,6.342,11.861,9.031
		c3.449,2.678,6.283,4.965,8.256,6.58c0.991,0.803,1.75,1.459,2.273,1.9c0.261,0.221,0.459,0.393,0.594,0.508
		c0.133,0.117,0.201,0.178,0.195,0.184c0.006-0.006-0.07-0.057-0.217-0.152c-0.15-0.096-0.369-0.236-0.658-0.42
		c-0.576-0.363-1.422-0.896-2.498-1.574c-2.146-1.367-5.207-3.328-8.838-5.74c-3.639-2.4-7.853-5.248-12.334-8.346
		c-2.233-1.559-4.567-3.133-6.893-4.799c-2.334-1.654-4.705-3.334-7.076-5.016c-2.354-1.705-4.706-3.41-7.023-5.09
		c-2.321-1.67-4.567-3.373-6.762-4.988c-2.197-1.611-4.291-3.215-6.283-4.723c-1.998-1.502-3.865-2.953-5.59-4.291
		C18.394,145.069,13.925,141.313,13.925,141.313"/>
	<line fill="#FFFFFF" x1="253.99" y1="64.313" x2="175.025" y2="27.862"/>
	<path fill="#FFFFFF" d="M253.97,64.358L214.341,46.45c-4.953-2.241-9.905-4.482-14.549-6.582c-2.308-1.081-4.539-2.126-6.653-3.116
		c-2.108-1.006-4.102-1.957-5.941-2.835c-7.349-3.535-12.193-6.01-12.193-6.01l0.043-0.091c0,0,5.025,2.082,12.482,5.381
		c1.862,0.831,3.879,1.731,6.012,2.683c2.126,0.967,4.368,1.987,6.688,3.042c4.611,2.171,9.529,4.486,14.447,6.802
		c19.668,9.272,39.336,18.543,39.336,18.543L253.97,64.358z"/>
	
		<path fill="#FFFFFF" stroke="#FFFFFF" stroke-width="2" stroke-linecap="round" stroke-linejoin="round" stroke-miterlimit="10" d="
		M188.875,153.54c-0.804,0.543,0.771-17.955,0.771-17.955l77.844-81.272"/>
</g>
<path fill="#FFFFFF" d="M442.234,67.92c0.02-0.267,0.289-0.624,0.806-1.069c0.515-0.444,2.194-1.728,5.001-3.824
	c2.755-2.057,4.632-3.521,5.662-4.414c1.02-0.884,1.624-1.474,1.816-1.775c0.763,0.316,0.921,0.826,0.469,1.535
	c1.066-0.176,1.992-0.149,2.78,0.084c0.794,0.235,1.138,0.679,1.024,1.336c-0.115,0.664-0.602,1.384-1.463,2.159
	c-1.076,0.968-2.391,1.742-3.935,2.315c-0.742,0.271-1.498,0.44-2.264,0.506c-0.764,0.067-1.445-0.003-2.042-0.208
	c-0.251-0.086-0.467-0.186-0.649-0.301l0.632-0.597c0.032,0.011,0.066,0.022,0.1,0.033c0.945,0.32,2.15,0.184,3.605-0.41
	c1.021-0.429,1.875-0.948,2.558-1.556c0.995-0.887,1.308-1.573,0.946-2.058c-0.317-0.397-1.002-0.545-2.054-0.446l-0.029,0.026
	c-0.387,0.338-1.775,1.412-4.195,3.243c-2.461,1.862-4.468,3.469-6.006,4.809c-0.694,0.605-1.212,1.087-1.552,1.445
	c-0.283-0.08-0.467-0.136-0.549-0.167C442.434,68.411,442.214,68.188,442.234,67.92"/>
<path fill="#FFFFFF" d="M464.166,60.685c-0.095,0.175-0.205,0.329-0.333,0.464c-0.128,0.134-0.381,0.374-0.757,0.72
	c-0.38,0.348-1.884,1.545-4.55,3.618c-2.715,2.111-4.587,3.634-5.584,4.546c-1.007,0.919-1.636,1.575-1.882,1.962
	c-0.51-0.515-0.695-1.007-0.56-1.48c0.134-0.47,0.561-1.029,1.277-1.677c0.417-0.376,1.562-1.295,3.417-2.742
	c3.044-2.353,5.27-4.17,6.706-5.475c0.305-0.275,0.699-0.656,1.186-1.14c0.64,0.237,1.02,0.494,1.136,0.772
	C464.277,60.367,464.26,60.511,464.166,60.685"/>
<path fill="#FFFFFF" d="M478.145,65.546c0.487-0.462,0.858-0.779,1.112-0.953c1.127,0.558,2.376,1.042,3.75,1.45
	c1.393,0.415,2.419,0.68,3.071,0.792c0.592-0.366,1.04-0.672,1.346-0.918c0.084,0.914-0.206,1.728-0.874,2.438
	c-0.662,0.703-2.21,1.559-4.646,2.568c-1.145,0.48-2.328,0.962-3.552,1.446c-3.372,1.322-6.162,2.524-8.371,3.608l0.239,0.088
	c2.625,0.96,4.819,1.463,6.544,1.491c-0.927,0.833-1.825,1.42-2.692,1.756c-0.868,0.337-1.603,0.391-2.201,0.164
	c-0.31-0.117-0.883-0.424-1.716-0.916c-0.825-0.486-1.73-0.915-2.715-1.286c-0.976-0.367-1.978-0.589-3.008-0.667
	c1.076-0.787,2.15-1.187,3.231-1.202c6.783-2.697,12.222-5.153,16.31-7.358c-3.438-0.285-5.584-0.567-6.484-0.847
	C476.984,67.042,477.205,66.489,478.145,65.546"/>
<path fill="#FFFFFF" d="M488.377,68.636c0.487-0.492,0.86-0.829,1.119-1.013c1.258,0.607,2.641,1.136,4.153,1.587
	c1.533,0.456,2.662,0.749,3.374,0.875c0.607-0.388,1.066-0.713,1.375-0.975c0.166,0.983-0.079,1.856-0.741,2.613
	c-0.656,0.751-2.257,1.659-4.802,2.724c-1.196,0.506-2.434,1.015-3.714,1.526c-3.532,1.394-6.445,2.665-8.742,3.814l0.266,0.097
	c2.903,1.061,5.311,1.627,7.176,1.673c-0.936,0.893-1.86,1.52-2.771,1.875c-0.911,0.355-1.7,0.406-2.362,0.155
	c-0.344-0.13-0.986-0.468-1.924-1.008c-0.927-0.534-1.935-1.006-3.024-1.416c-1.078-0.407-2.173-0.656-3.287-0.75
	c1.1-0.839,2.226-1.26,3.388-1.266c7.099-2.845,12.766-5.44,16.994-7.776c-3.728-0.337-6.061-0.658-7.052-0.966
	C487.246,70.232,487.44,69.64,488.377,68.636"/>
<path fill="#FFFFFF" d="M499.727,81.024l-1.911-0.675c-0.583-0.199-1.03-0.343-1.342-0.433c-1.626,1.617-2.975,3.044-4.035,4.274
	c3.128,1.143,5.716,1.757,7.714,1.817c-0.939,0.961-1.89,1.632-2.847,2.008c-0.959,0.377-1.811,0.424-2.551,0.143
	c-0.218-0.083-0.777-0.372-1.675-0.862c-0.887-0.487-1.87-0.933-2.947-1.339c-1.066-0.403-2.193-0.681-3.383-0.836
	c0.672-0.559,1.412-0.943,2.222-1.155l0.066-0.078c0.604-0.696,2.141-2.201,4.581-4.486c-0.417,0.002-0.778,0.007-1.083,0.014
	c0.211-0.281,0.375-0.489,0.493-0.625c0.714-0.823,1.54-1.217,2.485-1.186c1.611-1.529,2.992-2.908,4.148-4.141
	c-0.454-0.17-0.668-0.362-0.644-0.577c0.023-0.214,0.257-0.577,0.699-1.088c0.486-0.508,0.83-0.832,1.033-0.974
	c1.283,0.597,2.813,1.159,4.595,1.688c1.808,0.537,3.696,0.918,5.663,1.139c-1.225,1.222-2.731,1.728-4.498,1.508
	c-1.037-0.119-2.456-0.426-4.242-0.916c-0.124,0.128-1.494,1.466-4.152,4.058c0.77,0.287,1.31,0.481,1.615,0.583
	c1.271,0.421,2.354,0.514,3.242,0.275c-0.182,0.263-0.323,0.458-0.428,0.585C501.592,80.909,500.647,81.338,499.727,81.024"/>
<path fill="#FFFFFF" d="M500.979,90.104c-0.136-0.418,0.059-0.955,0.58-1.612c0.518-0.653,2.307-2.523,5.314-5.554
	c2.934-2.959,4.883-5.059,5.891-6.343c0.996-1.268,1.54-2.117,1.641-2.556c1.362,0.519,1.946,1.293,1.736,2.327
	c1.438-0.192,2.834-0.089,4.193,0.313c1.375,0.406,2.262,1.084,2.653,2.037c0.398,0.967,0.266,1.917-0.407,2.847
	c-0.679,0.938-1.728,1.762-3.145,2.469c-1.422,0.708-3.028,1.067-4.809,1.075l-0.31,0.912c-0.621,1.765-0.993,3.632-1.107,5.611
	c-0.119,2.025-0.058,3.488,0.19,4.363c-0.703-0.073-1.345-0.221-1.924-0.443c-0.577-0.222-1.024-0.622-1.342-1.197
	c-0.316-0.571-0.507-1.135-0.576-1.692c-0.07-0.553,0.001-1.359,0.208-2.412c0.204-1.04,0.389-1.832,0.557-2.382
	c0.167-0.547,0.352-1.146,0.553-1.796c0.198-0.646,0.307-0.99,0.323-1.036c0.017-0.047,0.033-0.106,0.052-0.177
	c0.017-0.072,0.039-0.138,0.065-0.197c-0.326-0.111-0.644-0.219-0.954-0.324l0.652-0.956c1.933,0.562,3.818,0.414,5.632-0.448
	c1-0.483,1.749-1.061,2.247-1.732c0.188-0.254,0.34-0.511,0.457-0.769c0.38-0.939,0.163-1.657-0.64-2.158
	c-0.221-0.146-0.568-0.291-1.043-0.435c-0.474-0.144-1.2-0.199-2.183-0.167c-0.375,0.488-1.818,2.03-4.374,4.669
	c-2.611,2.697-4.696,5.044-6.231,7.023c-0.695,0.895-1.195,1.613-1.497,2.151c-0.493-0.15-0.812-0.253-0.957-0.308
	C501.596,90.893,501.114,90.524,500.979,90.104"/>
<path fill="#FFFFFF" d="M529.552,91.182l-2.437-0.857c-0.74-0.252-1.305-0.435-1.698-0.551c-1.61,1.899-2.931,3.579-3.948,5.031
	c3.992,1.46,7.237,2.27,9.658,2.396c-0.927,1.138-1.931,1.926-3.006,2.357c-1.076,0.431-2.093,0.465-3.043,0.104
	c-0.28-0.106-1.016-0.472-2.196-1.09c-1.169-0.612-2.44-1.178-3.816-1.697c-1.361-0.513-2.767-0.878-4.221-1.095
	c0.69-0.655,1.499-1.099,2.425-1.334l0.063-0.091c0.58-0.821,2.113-2.589,4.563-5.265c-0.498-0.008-0.928-0.011-1.29-0.009
	c0.193-0.331,0.347-0.576,0.46-0.735c0.684-0.965,1.589-1.416,2.724-1.356c1.608-1.785,2.97-3.393,4.091-4.832
	c-0.577-0.211-0.873-0.443-0.89-0.697c-0.016-0.254,0.187-0.678,0.606-1.273c0.474-0.591,0.814-0.966,1.026-1.13
	c1.655,0.733,3.601,1.432,5.843,2.098c2.278,0.676,4.626,1.171,7.032,1.478c-1.198,1.428-2.896,1.997-5.065,1.695
	c-1.269-0.166-3.034-0.564-5.276-1.186c-0.121,0.149-1.475,1.711-4.108,4.74c0.98,0.361,1.668,0.606,2.056,0.735
	c1.614,0.535,2.936,0.672,3.95,0.408c-0.161,0.31-0.291,0.54-0.389,0.69C531.769,91.09,530.725,91.582,529.552,91.182"/>
<path fill="#FFFFFF" d="M453.643,87.977c-0.367-0.17-0.52-0.41-0.461-0.718s0.262-0.72,0.605-1.235
	c0.344-0.512,10.988-15.615,12.41-17.434c-0.439,0.13-0.923,0.12-1.449-0.03l-2.554-0.74c-2.181,1.313-19.927,12.007-21.597,13.183
	c-0.423-0.76-0.371-1.373,0.15-1.845c0.229-0.208,17.041-10.206,18.907-11.257c1.856-1.045,3.949-2.225,6.274-3.536
	c2.307-1.301,3.937-2.251,4.901-2.856l0.994-0.622c0.062-0.155,0.127-0.449,0.195-0.882c0.465-0.015,0.825,0.014,1.082,0.087
	c0.257,0.073,0.451,0.152,0.582,0.238s0.216,0.193,0.254,0.321s0.06,0.254,0.063,0.379s-0.048,0.294-0.152,0.507
	c-0.106,0.213-0.207,0.403-0.302,0.57c-0.098,0.167-0.248,0.398-0.456,0.692c-0.208,0.295-0.395,0.55-0.558,0.764
	c-0.163,0.215-0.394,0.514-0.691,0.898c-0.3,0.386-0.586,0.761-0.857,1.126c-0.271,0.366-0.807,1.065-1.607,2.103
	c-0.812,1.05-1.417,1.846-1.813,2.383c-0.396,0.539-0.809,1.161-1.236,1.866c-0.431,0.711-10.531,15.64-10.706,16.179
	C454.671,88.194,454.012,88.147,453.643,87.977 M470.488,62.996c-0.461,0.27-1.456,0.844-2.988,1.725
	c-1.542,0.887-2.767,1.6-3.668,2.137l2.967,0.982C468.605,65.514,469.825,63.911,470.488,62.996"/>
<path fill="#FFFFFF" d="M440.598,81.003c0,0,6.888,7.301,15.025,7.115c2.348-3.656,1.719-2.703,1.719-2.703
	s-12.527,0.445-14.803-7.356C440.748,79.158,440.598,81.003,440.598,81.003"/>
<path fill="#FFFFFF" d="M441.426,80.642c-0.771-0.016,0.442,0.2,0.129,0.73c-0.93,1.964-4.551,3.928-5.295,5.735
	c2.416-1.346,3.598-3.436,5.549-5.111c1.908-0.148,0.178,1.457-0.553,2.514l0.092,0.044c1.092-0.889,2.305-2.396,3.186-1.823"/>
<path fill="#FFFFFF" d="M449.078,85.868c0.014,1.814-5.047,5.16-6.053,7.578c3.59-1.309,3.884-4.778,6.502-6.47
	c2.589-1.674,2.541,0.821,0.967,2.67c1.092-0.041,2.157-1.395,3.138-2.22"/>
<path fill="#FFFFFF" d="M412.137,96.169c0,1.872,85.33,57.676,85.33,57.676"/>
<path fill="#FFFFFF" d="M412.136,96.169c-0.021,0.024,0.237,0.325,0.87,0.74c0.616,0.433,1.566,1.005,2.758,1.756
	c2.404,1.47,5.838,3.572,9.961,6.093c2.057,1.264,4.291,2.626,6.627,4.108c2.342,1.472,4.828,3,7.358,4.644
	c2.532,1.641,5.185,3.283,7.824,5.036c2.648,1.738,5.34,3.504,8.03,5.27c2.67,1.8,5.339,3.599,7.967,5.369
	c2.641,1.751,5.177,3.57,7.667,5.276c2.49,1.704,4.86,3.41,7.115,5.017c2.264,1.595,4.375,3.143,6.323,4.575
	c3.906,2.85,7.111,5.302,9.344,7.034c2.234,1.73,3.486,2.758,3.486,2.758s-1.443-0.735-3.922-2.093
	c-2.479-1.357-6.004-3.322-10.17-5.78c-2.088-1.221-4.346-2.55-6.704-4.001c-2.366-1.438-4.868-2.947-7.415-4.571
	c-2.547-1.622-5.215-3.243-7.858-4.994c-2.653-1.735-5.351-3.498-8.047-5.261c-2.668-1.806-5.335-3.612-7.961-5.391
	c-2.632-1.77-5.163-3.599-7.64-5.328c-2.48-1.726-4.831-3.463-7.069-5.098c-2.243-1.626-4.331-3.214-6.253-4.686
	c-3.852-2.934-6.986-5.487-9.133-7.34c-1.08-0.917-1.889-1.691-2.428-2.228C412.314,96.543,412.104,96.176,412.136,96.169"/>
<path fill="#FFFFFF" d="M314.793,134.658c-1.271,0.539-1.865,2.006-1.327,3.277c0.539,1.271,2.005,1.866,3.276,1.327l45.905-19.431
	c0.444-1.972,0.642-3.942,1.142-5.913L314.793,134.658z"/>
<path fill="#FFFFFF" d="M577.111,54.276c-0.012-0.943-0.552-1.799-1.398-2.214l-94.738-46.5c-0.991-0.486-2.182-0.265-2.934,0.542
	l-70.963,76.387c-0.587,0.631-0.807,1.52-0.583,2.352l2.661,9.873l-18.299,7.745c1.703,1.513,4.457,1.622,6.502,2.678l15.752-6.667
	c1.149-0.487,1.764-1.747,1.439-2.953l-2.867-10.639l68.756-74.011l91.69,45.004l0.166,13.931l-75.588,80.236l-2.13,1.434
	c-1.146,0.771-1.448,2.325-0.678,3.471c0.483,0.717,1.272,1.104,2.076,1.104c0.48,0,0.966-0.138,1.395-0.426l2.361-1.59
	c0.154-0.104,0.296-0.225,0.423-0.36l76.472-81.174c0.444-0.471,0.688-1.097,0.681-1.744L577.111,54.276z"/>
<path fill-rule="evenodd" clip-rule="evenodd" fill="#FFFFFF" d="M382.26,185.564c-0.988-5.475-2.287-10.891-2.804-16.452
	c-0.364-3.917-1.06-7.812-1.024-11.753c0.021-2.606-0.285-5.193-0.164-7.814c0.189-4.117,0.32-8.235,0.811-12.328
	c0.385-3.201,0.794-6.408,1.547-9.549c0.283-1.182-0.078-1.872-1.176-2.259c-1.429-0.141-2.255,0.631-2.34,1.936
	c-0.301,4.497-1.529,8.859-1.838,13.352c-0.146,2.126,0.033,4.252-0.196,6.385c-0.39,3.642-0.437,7.29-0.067,10.954
	c0.363,3.622,0.297,7.293,0.801,10.89c0.642,4.576,1.511,9.118,2.534,13.629C379.496,183.658,380.496,185.171,382.26,185.564z"/>
<path fill-rule="evenodd" clip-rule="evenodd" fill="#FFFFFF" d="M432.285,169.729c-0.635-1.163-1.551-1.394-2.757-0.916
	c-7.61,3.01-15.251,5.951-22.826,9.046c-1.718,0.704-3.442,1.393-5.168,2.071c-4.966,1.951-9.942,3.874-14.907,5.829
	c-0.731,0.287-1.449,0.61-2.161,0.947c1.093,0.256,1.551,1.801,2.497,2.616c3.471-1.327,6.947-2.644,10.398-4.023
	c6.842-2.737,13.688-5.464,20.535-8.183c2.828-1.123,5.686-2.171,8.504-3.315c1.57-0.641,3.128-1.313,4.689-1.976
	C432.016,171.433,432.497,170.777,432.285,169.729z"/>
<path fill-rule="evenodd" clip-rule="evenodd" fill="#FFFFFF" d="M471.255,144.622c-1.325-0.91-2.825-1.49-4.218-2.267
	c-5.646-3.145-11.181-6.5-16.882-9.538c-6.42-3.421-12.754-6.992-19.106-10.536c-6.215-3.469-12.474-6.857-18.69-10.325
	c-6.306-3.517-12.669-6.924-18.911-10.555c-0.529-0.307-1.178-0.402-1.718-0.695c-2.011-1.086-3.714-2.199-4.72-4.64
	c-2.203-5.346-9.752-7.841-15.099-4.365c-1.841,1.198-3.308,2.984-4.151,5.117c-2.01,5.092-4.01,10.228-5.274,15.533
	c-1.511,6.338-3.154,12.663-3.86,19.202c-0.435,4.001-1.007,8.003-1.193,12.016c-0.254,5.463-0.557,10.932-0.021,16.419
	c0.253,2.581,0.264,5.184,0.474,7.774c0.965,1.155,2.32,1.921,3.729,2.634c-0.107-0.824-0.23-1.646-0.325-2.471
	c-0.384-3.312-0.233-6.672-0.553-9.975c-0.612-6.322,0.024-12.597,0.327-18.875c0.131-2.68,0.828-5.387,1.096-8.072
	c0.639-6.364,2.298-12.482,3.941-18.606c1.26-4.7,2.701-9.357,4.627-13.843c0.92-2.14,2.256-3.914,4.498-4.706
	c3.131-1.104,5.808,0.082,7.912,2.295c1.925,2.022,1.963,4.56,1.068,7.179c-1.734,5.079-3.738,10.07-4.894,15.346
	c-0.296,1.35,0.032,2.081,1.159,2.639l0.095-0.031l0.08,0.058c0.134-0.032,0.267-0.064,0.401-0.097
	c0.691-0.18,1.227-0.497,1.356-1.293c0.515-3.179,1.762-6.136,2.894-9.117c0.549-1.442,0.637-3.039,1.51-4.36
	c0.041-1.169,0.652-2.18,0.906-3.293c0.08-0.343,0.176-0.694,0.738-0.437c1.735,0.793,3.444,1.621,5.051,2.801
	c-1.119,0.99-1.9,2.154-2.781,3.236c-2.726,5.759-2.441,11.402,1.901,16.08c5.843,6.292,14.333,5.838,20.216,0.089
	c0.861-0.841,1.348-2.065,2.006-3.112c0.461-1.199,0.918-2.399,1.441-3.768c7.739,4.265,15.5,8.543,23.262,12.822
	c-0.985,1.05-1.871,1.994-2.754,2.937c-1.209,2.918-2.676,5.776-2.166,9.099c0.885,5.786,3.936,9.791,9.584,11.693
	c6.33,2.136,12.593-0.928,15.818-5.962c0.271-0.426,0.389-0.948,0.578-1.426c0.449-1.271,0.9-2.543,1.364-3.856
	c2.396,1.308,4.705,2.565,7.01,3.826c1.263,0.693,1.85,1.731,1.745,3.203c-0.109,1.535-0.872,2.484-2.288,3.017
	c-0.865,0.325-1.696,0.743-2.542,1.121c-5.853,2.263-11.75,4.41-17.538,6.829c-3.588,1.499-7.198,2.928-10.851,4.249
	c-1.369,0.497-1.146,1.533-1.211,2.536c0.733,1.027,1.482,1.428,2.73,0.574c0.915-0.627,2.082-0.883,3.143-1.293
	c5.251-2.021,10.566-3.896,15.733-6.109c3.377-1.445,6.877-2.545,10.228-4.033c1.076-0.474,2.172-0.95,3.153-1.586
	C475.236,153.141,475.199,147.333,471.255,144.622z M412.934,117.078c-1.283,5.374-4.723,9.2-11.326,8.669
	c-1.486,0.117-2.942-0.626-4.421-1.457c-5.714-3.207-6.429-12.292-1.244-16.358c0.387-0.303,0.696-0.604,1.358-0.29
	c5.105,2.429,9.826,5.561,14.871,8.102C412.723,116.021,413.108,116.354,412.934,117.078z M446.56,151.712
	c-2.488-0.251-5.464-1.682-7.224-5.047c-2.302-4.396-1.593-10.084,2.444-13.083c0.521-0.389,0.981-0.835,1.786-0.409
	c4.675,2.46,9.152,5.281,13.921,7.566c0.638,0.307,1.025,0.681,0.979,1.548C458.177,147.924,453.284,152.283,446.56,151.712z"/>
<path fill-rule="evenodd" clip-rule="evenodd" fill="#FFFFFF" d="M419.146,148.512c-0.809,1.068-0.471,1.939,0.292,2.929
	c4.885,6.327,1.433,15.089-5.694,16.467c-6.852,1.326-11.101-2.459-12.373-8.163c-0.957-4.295,0.842-7.929,4.549-10.406
	c2.065-1.382,4.205-1.938,6.623-1.521c1.088,0.188,1.959-0.072,2.48-1.125c0.143-1.615-0.729-2.142-2.217-2.356
	c-6.204-0.904-12.161,3.43-14.035,8.505c-2.547,6.897-0.26,13.638,6.203,17.141c5.82,3.156,11.945,2.132,16.54-2.758
	c3.176-3.38,4.495-7.735,3.321-12.441c-0.496-2.002-1.541-3.825-2.779-5.524C421.235,148.133,420.358,147.814,419.146,148.512"/>
<path fill-rule="evenodd" clip-rule="evenodd" fill="#FFFFFF" d="M385.754,139.653c-0.703-1.175-1.127-2.438-1.614-3.697
	c-1.175-3.027-0.878-3.729,2.174-4.552c0.248-0.068,0.5-0.132,0.753-0.188c3.221-0.677,6.406-1.04,9.032,1.58
	c2.206,2.201,3.433,4.915,3.882,7.978c0.158,1.076-0.55,1.641-1.46,1.932c-2.035,0.654-4.097,1.181-6.368,0.805
	C389.287,143.579,387.24,142.127,385.754,139.653 M387.451,134.748c-0.414,0.833,0.506,2.109,1.11,3.077
	c1.556,2.491,4.69,3.4,7.362,2.18c0.457-0.21,0.5-0.521,0.318-0.85c-0.814-1.484-1.378-3.139-2.809-4.214
	c-0.835-0.626-1.832-0.655-2.708-0.773C389.504,134.191,387.932,133.784,387.451,134.748"/>
<path fill-rule="evenodd" clip-rule="evenodd" fill="#FFFFFF" d="M418.2,128.832c0.761-1.848,1.599-2.066,3.46-1.277
	c0.477,0.201,0.934,0.442,1.405,0.649c3.216,1.414,5.264,3.655,5.757,7.306c0.311,2.305-0.409,4.332-1.145,6.351
	c-1.008,2.757-1.951,3.031-4.59,1.777c-0.281-0.133-0.552-0.294-0.834-0.421c-4.063-1.807-5.941-4.877-5.66-9.236
	C416.698,132.132,417.516,130.49,418.2,128.832 M421.768,131.114c-0.602-0.29-0.834-0.143-1.088,0.337
	c-1.746,3.281-0.775,6.633,2.455,8.632c0.914,0.565,1.487,0.733,1.859-0.597c0.211-0.759,0.37-1.502,0.439-2.276
	C425.676,134.446,424.379,132.366,421.768,131.114"/>
<path fill-rule="evenodd" clip-rule="evenodd" fill="#FFFFFF" d="M384.61,164.274c-1.037,0.897-0.981,1.841-0.178,2.871
	c0.907,1.162,1.924,2.208,3.097,3.098c0.725,0.548,1.555,0.746,2.303,0.133c3.135-2.58,5.307-6.142,4.62-10.312
	c-0.555-3.389-2.979-5.418-5.521-7.234c-1.301-0.932-2.358,0.256-3.166,1.217c-0.729,0.866-1.301,1.866-1.951,2.799
	c-0.771,1.106-0.63,2.035,0.513,2.784c1.081,0.184,1.937-0.042,2.437-1.155c0.25-0.555,0.701-1.019,1.003-1.554
	c0.264-0.467,0.495-0.408,0.84-0.104c2.87,2.542,3.75,5.291,1.274,8.651c-1.162,1.582-1.172,1.615-2.433,0.032
	C386.698,164.558,385.991,163.678,384.61,164.274"/>
<path fill-rule="evenodd" clip-rule="evenodd" fill="#FFFFFF" d="M381.047,121.236c-0.135,0.032-0.268,0.063-0.402,0.097
	C380.779,121.3,380.912,121.269,381.047,121.236"/>
<path fill="#FFFFFF" d="M498.943,152.944c-1.808,0.396-3.614,0.73-5.42,0.999c0.004,0.096-0.015,0.187-0.024,0.278
	c0.03,0.16,0.057,0.319,0.05,0.476l0.045,0.03v18.944l-89.509,46.051l-85.348-62.704v-18.353l0.164-0.078
	c-1.839-0.812-3.562-1.837-5.228-2.952c-0.205,0.389-0.322,0.826-0.322,1.284v21.5c0,0.88,0.416,1.706,1.117,2.221l87.793,64.5
	c0.467,0.344,1.021,0.52,1.576,0.52c0.414,0,0.83-0.098,1.215-0.296l92.283-46.998c0.906-0.467,1.645-1.977,1.645-3.01v-22.113
	C498.98,153.141,498.954,153.045,498.943,152.944"/>
<path fill="#FFFFFF" d="M403.492,215.548l-0.609-4.188l-0.561-4.193c-0.335-2.799-0.71-5.594-1.011-8.395l-0.068-0.638l0.624-0.333
	l5.403-2.882l5.432-2.818c3.612-1.899,7.267-3.705,10.906-5.55c3.631-1.856,7.315-3.603,10.97-5.407
	c3.654-1.813,7.348-3.535,11.028-5.287c1.844-0.869,3.677-1.762,5.53-2.609l5.555-2.555c3.694-1.723,7.428-3.36,11.15-5.024
	c1.856-0.84,3.736-1.63,5.606-2.443c1.871-0.81,3.741-1.621,5.627-2.4c3.759-1.583,7.534-3.133,11.349-4.598
	c-3.531,2.073-7.102,4.063-10.688,6.02c-1.786,0.991-3.589,1.948-5.39,2.908c-1.804,0.957-3.596,1.936-5.411,2.866
	c-3.623,1.876-7.234,3.776-10.884,5.594l-5.462,2.755c-1.819,0.921-3.659,1.799-5.487,2.7c-3.665,1.787-7.315,3.603-11.007,5.331
	c-3.69,1.733-7.352,3.527-11.064,5.21c-3.707,1.696-7.396,3.43-11.128,5.07l-5.586,2.489l-5.614,2.428l0.555-0.971
	c0.102,2.815,0.129,5.638,0.197,8.455l0.043,4.231L403.492,215.548z"/>
<line fill="#FFFFFF" x1="479.874" y1="26.806" x2="480.82" y2="8.271"/>
<path fill="#FFFFFF" d="M479.874,26.806c0,0-0.275-1.176-0.423-2.925c-0.084-0.876-0.14-1.895-0.155-2.984
	c-0.021-1.09-0.007-2.251,0.053-3.41c0.06-1.158,0.16-2.314,0.293-3.397c0.125-1.082,0.284-2.09,0.457-2.952
	c0.327-1.726,0.722-2.867,0.722-2.867s0.277,1.175,0.426,2.925c0.085,0.876,0.14,1.895,0.153,2.984
	c0.022,1.09,0.005,2.251-0.054,3.409c-0.059,1.159-0.164,2.315-0.295,3.397c-0.127,1.083-0.285,2.091-0.458,2.953
	C480.267,25.666,479.874,26.806,479.874,26.806"/>
<path fill="#FFFFFF" d="M485.514,181.128c0,0-0.086-0.214-0.246-0.616c-0.068-0.21-0.124-0.456-0.149-0.719l-0.009-0.1l0.001-0.035
	l0.002-0.064c0.001-0.045,0.003-0.091,0.004-0.139c0.005-0.203,0.021-0.414,0.049-0.594c0.047-0.404,0.126-0.813,0.226-1.274
	c0.097-0.463,0.219-0.961,0.357-1.499c0.553-2.146,1.389-4.897,2.261-7.639c1.741-5.477,3.622-10.883,3.622-10.883
	s-0.792,5.686-1.431,11.367c-0.317,2.838-0.598,5.683-0.714,7.765c-0.028,0.52-0.049,0.992-0.053,1.393
	c-0.007,0.4-0.002,0.749,0.022,0.968c0.005,0.132,0.021,0.2,0.034,0.24l0.009,0.036l0.004,0.016l0.001,0.005l-0.002-0.06
	c-0.012-0.161-0.053-0.315-0.107-0.443c-0.028-0.063-0.059-0.121-0.09-0.173c-0.021-0.037-0.089-0.13-0.062-0.089
	c0.018,0.025,0.031,0.049,0.043,0.066c0.023,0.036,0.035,0.055,0.035,0.055L485.514,181.128z"/>
<path fill="#FFFFFF" d="M321.047,141.308c0,0,4.985,3.007,12.26,7.815c1.82,1.198,3.793,2.497,5.856,3.903
	c2.068,1.399,4.259,2.863,6.491,4.422c2.236,1.558,4.568,3.135,6.896,4.795c2.336,1.653,4.707,3.333,7.078,5.013
	c2.354,1.706,4.707,3.412,7.023,5.091c2.324,1.667,4.566,3.374,6.761,4.991c4.374,3.255,8.423,6.342,11.861,9.031
	c3.448,2.678,6.282,4.965,8.256,6.581c0.991,0.803,1.75,1.459,2.274,1.899c0.26,0.222,0.459,0.393,0.593,0.508
	c0.133,0.117,0.202,0.178,0.196,0.184c0.006-0.006-0.071-0.057-0.219-0.152c-0.148-0.095-0.369-0.235-0.656-0.419
	c-0.576-0.363-1.422-0.896-2.5-1.575c-2.146-1.366-5.207-3.327-8.836-5.74c-3.64-2.4-7.854-5.247-12.336-8.345
	c-2.232-1.559-4.566-3.134-6.892-4.8c-2.334-1.654-4.705-3.334-7.076-5.016c-2.353-1.704-4.706-3.41-7.022-5.09
	c-2.322-1.67-4.568-3.372-6.764-4.987c-2.195-1.612-4.289-3.216-6.283-4.724c-1.996-1.502-3.864-2.952-5.59-4.29
	C325.514,145.063,321.047,141.308,321.047,141.308"/>
<line fill="#FFFFFF" x1="561.111" y1="64.306" x2="482.146" y2="27.855"/>
<path fill="#FFFFFF" d="M561.091,64.352l-39.629-17.908c-4.953-2.241-9.905-4.482-14.549-6.582
	c-2.308-1.081-4.539-2.126-6.653-3.116c-2.108-1.006-4.102-1.957-5.941-2.835c-7.349-3.535-12.193-6.01-12.193-6.01l0.043-0.091
	c0,0,5.025,2.082,12.482,5.381c1.862,0.831,3.879,1.731,6.012,2.683c2.126,0.967,4.368,1.987,6.688,3.042
	c4.611,2.171,9.529,4.486,14.447,6.802c19.668,9.272,39.336,18.543,39.336,18.543L561.091,64.352z"/>
<path fill="#FFFFFF" stroke="#FFFFFF" stroke-width="2" stroke-linecap="round" stroke-linejoin="round" stroke-miterlimit="10" d="
	M495.996,153.534c-0.804,0.543,0.771-17.956,0.771-17.956l77.844-81.271"/>
</svg>
