<?xml version="1.0" encoding="utf-8"?>
<!-- Generator: Adobe Illustrator 17.0.0, SVG Export Plug-In . SVG Version: 6.00 Build 0)  -->
<!DOCTYPE svg PUBLIC "-//W3C//DTD SVG 1.1//EN" "http://www.w3.org/Graphics/SVG/1.1/DTD/svg11.dtd">
<svg version="1.1" xmlns="http://www.w3.org/2000/svg" xmlns:xlink="http://www.w3.org/1999/xlink" x="0px" y="0px" width="49px"
	 height="39px" viewBox="1973.776 -471.917 49 39" enable-background="new 1973.776 -471.917 49 39" xml:space="preserve">
<g id="LOGOTIPO">
	<rect x="1048.388" y="6" fill="#3A3A3A" width="552.776" height="233.167"/>
	<g id="Capa_1_1_">
		<path fill="#FFFFFF" d="M1084.576,118.082c-1.667-1.333-2.5-3.566-2.5-6.7c0-3.133,1.116-12.616,3.35-28.45
			c2.233-15.833,3.35-27.133,3.35-33.9c0-6.766-0.467-11.183-1.4-13.25c6.8,0.535,11.266,3.2,13.4,8c5.133-2.8,10.783-4.2,16.95-4.2
			c6.166,0,11.033,1.917,14.6,5.75c3.565,3.834,5.35,8.55,5.35,14.15c0,6.934-2.535,13.2-7.6,18.8c-2.467,2.667-5.65,4.834-9.55,6.5
			c-3.9,1.667-8.217,2.5-12.95,2.5c-2,0-3.9-0.133-5.7-0.4l-0.3-4.2c0.266,0,0.533,0,0.8,0c7.533,0,13.533-2.8,18-8.4
			c3.066-4,4.6-8.2,4.6-12.6c0-6.465-2.634-10.732-7.9-12.8c-4.467-1.666-9.467-1.333-15,1v0.2c0,2.534-0.95,10.817-2.85,24.85
			c-1.9,14.035-2.85,25.75-2.85,35.15c0,4.2,0.2,7.467,0.6,9.8c-2.134,0.133-3.534,0.2-4.2,0.2
			C1088.976,120.082,1086.241,119.414,1084.576,118.082z"/>
		<path fill="#FFFFFF" d="M1162.474,43.031c0.533,1.1,0.85,2.117,0.95,3.05c0.1,0.934,0.15,2.634,0.15,5.1
			c0,2.467-1.1,11.234-3.3,26.3c-2.2,15.067-3.3,25.617-3.3,31.65c0,6.034,0.466,10.15,1.4,12.35
			c-5.667-1.467-9.535-3.416-11.6-5.85c-2.067-2.433-3.1-5.815-3.1-10.15c0-2.533,0.7-8.966,2.1-19.3
			c2.465-17.133,3.7-30.4,3.7-39.8c0-2-0.134-4.733-0.4-8.2c5.066,0.268,8.766,1.067,11.1,2.4
			C1161.175,41.116,1161.94,41.931,1162.474,43.031z"/>
		<path fill="#FFFFFF" d="M1261.583,46.482c0.133-3.066,0.4-5.233,0.8-6.5c8.201,1.134,16.533,1.7,25,1.7c8.467,0,14.467-0.2,18-0.6
			c1.133-2.666,1.867-4.833,2.201-6.5c4.4,4.4,6.6,8.8,6.6,13.2c0,4.334-3.367,10.667-10.1,19c-3.135,3.935-6.436,7.935-9.9,12
			c-9.6,11.134-17.035,20.8-22.301,29h1.5c16.201,0,28.166-1.266,35.9-3.8c-0.6,4.934-2.1,8.767-4.5,11.5c-2.4,2.734-5.4,4.1-9,4.1
			c-1.867,0-5.734-0.367-11.6-1.1c-5.867-0.733-11.9-1.1-18.1-1.1c-6.201,0-11.9,0.667-17.101,2c1.334-5.133,4.5-8.6,9.5-10.4
			c19.2-22.666,33.366-42.3,42.501-58.9c-17.4,3.734-28.936,5.6-34.602,5.6C1263.183,55.681,1261.583,52.616,1261.583,46.482z"/>
		<path fill="#E84855" d="M1323.681,46.482c0.133-3.066,0.4-5.233,0.8-6.5c8.2,1.134,16.533,1.7,25,1.7c8.466,0,14.466-0.2,18-0.6
			c1.133-2.666,1.866-4.833,2.2-6.5c4.4,4.4,6.6,8.8,6.6,13.2c0,4.334-3.367,10.667-10.1,19c-3.135,3.935-6.435,7.935-9.9,12
			c-9.6,11.134-17.034,20.8-22.3,29h1.5c16.2,0,28.166-1.266,35.9-3.8c-0.601,4.934-2.101,8.767-4.5,11.5c-2.4,2.734-5.4,4.1-9,4.1
			c-1.867,0-5.734-0.367-11.601-1.1c-5.867-0.733-11.899-1.1-18.1-1.1c-6.2,0-11.9,0.667-17.099,2c1.334-5.133,4.5-8.6,9.5-10.4
			c19.199-22.666,33.365-42.3,42.5-58.9c-17.4,3.734-28.935,5.6-34.601,5.6C1325.281,55.681,1323.681,52.616,1323.681,46.482z"/>
		<path fill="#FFFFFF" d="M1416.481,84.982l-9.601-0.1c-2.934,0-5.167,0.034-6.699,0.1c-1,8.867-1.535,16.467-1.601,22.8
			c15.666,0,27.3-1.266,34.9-3.8c-0.601,4.934-2.101,8.767-4.5,11.5c-2.4,2.734-5.4,4.1-9,4.1c-1.067,0-4.05-0.285-8.95-0.85
			c-4.9-0.566-10.084-0.85-15.55-0.85c-5.468,0-10.8,0.565-16,1.7c0.732-3.133,2.333-5.7,4.8-7.7v-0.4c0-3.6,0.933-11.8,2.8-24.6
			c-1.667,0.6-3.1,1.134-4.3,1.6c-0.135-1.466-0.2-2.566-0.2-3.3c0-4.465,1.966-7.3,5.9-8.5c1.2-8.8,2-16.732,2.399-23.8
			c-2.467-0.133-4.034-0.7-4.699-1.7c-0.668-1-1-2.965-1-5.9c0.199-3,0.465-4.965,0.8-5.9c7.466,1,15.716,1.5,24.75,1.5
			c9.032,0,17.75-0.8,26.149-2.4c-0.934,7-5.199,11.2-12.8,12.6c-4.467,0.867-11.1,1.434-19.899,1.7
			c-0.067,0.734-1.035,8.467-2.9,23.2c4,0.134,6.766,0.2,8.3,0.2c6.333,0,10.833-1.1,13.5-3.3c0.133,1.334,0.2,2.334,0.2,3
			C1423.28,81.949,1421.013,84.982,1416.481,84.982z"/>
		<path fill="#FFFFFF" d="M1448.38,118.082c-1.667-1.333-2.5-3.566-2.5-6.7c0-3.133,1.115-12.616,3.35-28.45
			c2.233-15.833,3.351-27.133,3.351-33.9c0-6.766-0.468-11.183-1.4-13.25c6.733,0.535,11.2,3.167,13.4,7.9
			c4.8-2.666,10.25-4,16.35-4c6.101,0,11.101,1.75,15,5.25c3.9,3.5,5.851,7.55,5.851,12.15s-1.567,9.184-4.7,13.75
			c-3.135,4.567-7.8,8.017-14,10.35l1.3,3.9c2.4,7.467,5.865,14.85,10.4,22.15c4.532,7.3,8.232,12.283,11.1,14.95
			c-2.467,0.666-4.917,1-7.35,1c-2.435,0-4.885-0.784-7.351-2.35c-2.467-1.567-4.517-3.283-6.149-5.15
			c-1.635-1.865-3.45-4.833-5.45-8.9c-2-4.065-3.435-7.233-4.3-9.5c-0.867-2.266-1.817-4.766-2.851-7.5
			c-1.034-2.733-1.584-4.2-1.649-4.4c-0.067-0.2-0.168-0.45-0.301-0.75c-0.134-0.3-0.234-0.583-0.3-0.85c-1.467,0-2.899,0-4.3,0
			l-0.3-4.6c8.466-0.333,14.766-3.365,18.899-9.1c2.266-3.2,3.4-6.466,3.4-9.8c0-1.266-0.135-2.5-0.4-3.7
			c-1.134-4.333-3.834-7.033-8.1-8.1c-1.2-0.333-2.867-0.5-5-0.5c-2.135,0-4.967,0.7-8.5,2.1c0,2.534-0.95,10.817-2.85,24.85
			c-1.9,14.035-2.851,25.75-2.851,35.15c0,4.2,0.2,7.467,0.601,9.8c-2.135,0.133-3.535,0.2-4.2,0.2
			C1452.78,120.082,1450.046,119.414,1448.38,118.082z"/>
		<path fill="#FFFFFF" d="M1547.078,84.982l-9.601-0.1c-2.934,0-5.167,0.034-6.699,0.1c-1,8.867-1.535,16.467-1.601,22.8
			c15.666,0,27.3-1.266,34.9-3.8c-0.601,4.934-2.101,8.767-4.5,11.5c-2.4,2.734-5.4,4.1-9,4.1c-1.067,0-4.05-0.285-8.95-0.85
			c-4.9-0.566-10.084-0.85-15.55-0.85c-5.468,0-10.8,0.565-16,1.7c0.732-3.133,2.333-5.7,4.8-7.7v-0.4c0-3.6,0.933-11.8,2.8-24.6
			c-1.667,0.6-3.1,1.134-4.3,1.6c-0.135-1.466-0.2-2.566-0.2-3.3c0-4.465,1.966-7.3,5.9-8.5c1.2-8.8,2-16.732,2.399-23.8
			c-2.467-0.133-4.034-0.7-4.699-1.7c-0.668-1-1-2.965-1-5.9c0.199-3,0.465-4.965,0.8-5.9c7.466,1,15.716,1.5,24.75,1.5
			c9.032,0,17.75-0.8,26.149-2.4c-0.934,7-5.199,11.2-12.8,12.6c-4.467,0.867-11.1,1.434-19.899,1.7
			c-0.067,0.734-1.035,8.467-2.9,23.2c4,0.134,6.766,0.2,8.3,0.2c6.333,0,10.833-1.1,13.5-3.3c0.133,1.334,0.2,2.334,0.2,3
			C1553.878,81.949,1551.61,84.982,1547.078,84.982z"/>
		<g>
			<path fill="#7BD860" d="M1251.991,182.186c-2.4,0-4.167-0.617-5.3-1.85c-1.134-1.233-2.1-3.1-2.9-5.6
				c-0.8-2.5-23.826-83.656-26.158-94.591c-1.535,1.334-4.035,2.067-7.5,2.2l-17.1,0.6c-4.067,9.935-35.824,87.784-37.756,95.516
				c-6.4-2.267-9.6-4.833-9.6-7.7c0-1.266,30.691-75.016,34.556-83.216c3.866-8.2,8.25-17.516,13.15-27.95
				c4.9-10.433,8.215-18.016,9.95-22.75l1.8-4.9c-0.535-0.933-1.834-2.633-3.9-5.1c2.4-0.8,4.483-1.2,6.25-1.2
				c1.766,0,3.233,0.134,4.4,0.4c1.166,0.267,2.2,0.717,3.1,1.35c0.9,0.634,1.7,1.284,2.4,1.95c0.7,0.667,1.35,1.65,1.95,2.95
				c0.6,1.3,1.1,2.467,1.5,3.5c0.4,1.035,0.85,2.484,1.35,4.35c0.5,1.867,0.9,3.484,1.2,4.85c0.3,1.367,0.7,3.267,1.2,5.7
				c0.5,2.435,1.016,4.785,1.55,7.05c0.533,2.267,1.465,6.584,2.8,12.95c1.333,6.367,2.383,11.135,3.15,14.3
				c0.766,3.167,1.866,6.717,3.3,10.65c1.433,3.935,24.408,81.475,26.009,83.741
				C1257.524,181.251,1254.391,182.186,1251.991,182.186z M1209.732,45.245c-0.934,2.134-2.984,6.684-6.15,13.65
				c-3.167,6.967-5.617,12.517-7.35,16.65h20.5C1213.598,61.145,1211.265,51.044,1209.732,45.245z"/>
			<path fill="#7BD860" d="M1155.276,178.46c0,0,70.443,15.422,106.115,0.925c-5.81-17.562-4.351-12.894-4.351-12.894
				s-55.582,23.103-108.378-3.497C1145.676,170.761,1155.276,178.46,1155.276,178.46z"/>
			<g>
				<path fill="#7BD860" d="M1157.468,175.523c-4,1.333,3.333,0,4.667,2.667c6,9.333-1.333,23.333,4.667,31.333
					c4.667-9.333-0.667-19.333,0-29.333c8.667-4,8.667,5.333,10.667,10.667h0.667c0.667-5.333-1.333-13.333,6-12.667"/>
			</g>
			<g>
				<path fill="#7BD860" d="M1221.468,182.189c8.667,6.667,1.333,27.333,8,37.333l0,0c10-10.667-4.667-23.333-0.667-34
					s15.333-1.333,16.667,8c4.667-2,3.333-8.667,4-13.333"/>
			</g>
		</g>
	</g>
	<g id="Capa_1_5_">
		<path d="M1084.576,392.082c-1.667-1.333-2.5-3.566-2.5-6.7c0-3.133,1.116-12.616,3.35-28.45c2.233-15.833,3.35-27.133,3.35-33.9
			c0-6.766-0.467-11.183-1.4-13.25c6.8,0.535,11.266,3.2,13.4,8c5.133-2.8,10.783-4.2,16.95-4.2c6.166,0,11.033,1.917,14.6,5.75
			c3.565,3.834,5.35,8.55,5.35,14.15c0,6.934-2.535,13.2-7.6,18.8c-2.467,2.667-5.65,4.834-9.55,6.5c-3.9,1.667-8.217,2.5-12.95,2.5
			c-2,0-3.9-0.133-5.7-0.4l-0.3-4.2c0.266,0,0.533,0,0.8,0c7.533,0,13.533-2.8,18-8.4c3.066-4,4.6-8.2,4.6-12.6
			c0-6.465-2.634-10.732-7.9-12.8c-4.467-1.666-9.467-1.333-15,1v0.2c0,2.534-0.95,10.817-2.85,24.85
			c-1.9,14.035-2.85,25.75-2.85,35.15c0,4.2,0.2,7.467,0.6,9.8c-2.134,0.133-3.534,0.2-4.2,0.2
			C1088.976,394.082,1086.241,393.414,1084.576,392.082z"/>
		<path d="M1162.474,317.031c0.533,1.1,0.85,2.117,0.95,3.05c0.1,0.934,0.15,2.634,0.15,5.1c0,2.467-1.1,11.234-3.3,26.3
			c-2.2,15.067-3.3,25.617-3.3,31.65c0,6.034,0.466,10.15,1.4,12.35c-5.667-1.467-9.535-3.416-11.6-5.85
			c-2.067-2.433-3.1-5.815-3.1-10.15c0-2.533,0.7-8.966,2.1-19.3c2.465-17.133,3.7-30.4,3.7-39.8c0-2-0.134-4.733-0.4-8.2
			c5.066,0.268,8.766,1.067,11.1,2.4C1161.175,315.116,1161.94,315.931,1162.474,317.031z"/>
		<path d="M1261.583,320.482c0.133-3.066,0.4-5.233,0.8-6.5c8.201,1.134,16.533,1.7,25,1.7c8.467,0,14.467-0.2,18-0.6
			c1.133-2.666,1.867-4.833,2.201-6.5c4.4,4.4,6.6,8.8,6.6,13.2c0,4.334-3.367,10.667-10.1,19c-3.135,3.935-6.436,7.935-9.9,12
			c-9.6,11.134-17.035,20.8-22.301,29h1.5c16.201,0,28.166-1.266,35.9-3.8c-0.6,4.934-2.1,8.767-4.5,11.5c-2.4,2.734-5.4,4.1-9,4.1
			c-1.867,0-5.734-0.367-11.6-1.1c-5.867-0.733-11.9-1.1-18.1-1.1c-6.201,0-11.9,0.667-17.101,2c1.334-5.133,4.5-8.6,9.5-10.4
			c19.2-22.666,33.366-42.3,42.501-58.9c-17.4,3.734-28.936,5.6-34.602,5.6C1263.183,329.681,1261.583,326.616,1261.583,320.482z"/>
		<path fill="#E84855" d="M1323.681,320.482c0.133-3.066,0.4-5.233,0.8-6.5c8.2,1.134,16.533,1.7,25,1.7c8.466,0,14.466-0.2,18-0.6
			c1.133-2.666,1.866-4.833,2.2-6.5c4.4,4.4,6.6,8.8,6.6,13.2c0,4.334-3.367,10.667-10.1,19c-3.135,3.935-6.435,7.935-9.9,12
			c-9.6,11.134-17.034,20.8-22.3,29h1.5c16.2,0,28.166-1.266,35.9-3.8c-0.601,4.934-2.101,8.767-4.5,11.5c-2.4,2.734-5.4,4.1-9,4.1
			c-1.867,0-5.734-0.367-11.601-1.1c-5.867-0.733-11.899-1.1-18.1-1.1c-6.2,0-11.9,0.667-17.099,2c1.334-5.133,4.5-8.6,9.5-10.4
			c19.199-22.666,33.365-42.3,42.5-58.9c-17.4,3.734-28.935,5.6-34.601,5.6C1325.281,329.681,1323.681,326.616,1323.681,320.482z"/>
		<path d="M1416.481,358.982l-9.601-0.1c-2.934,0-5.167,0.034-6.699,0.1c-1,8.867-1.535,16.467-1.601,22.8
			c15.666,0,27.3-1.266,34.9-3.8c-0.601,4.934-2.101,8.767-4.5,11.5c-2.4,2.734-5.4,4.1-9,4.1c-1.067,0-4.05-0.285-8.95-0.85
			c-4.9-0.566-10.084-0.85-15.55-0.85c-5.468,0-10.8,0.565-16,1.7c0.732-3.133,2.333-5.7,4.8-7.7v-0.4c0-3.6,0.933-11.8,2.8-24.6
			c-1.667,0.6-3.1,1.134-4.3,1.6c-0.135-1.466-0.2-2.566-0.2-3.3c0-4.465,1.966-7.3,5.9-8.5c1.2-8.8,2-16.732,2.399-23.8
			c-2.467-0.133-4.034-0.7-4.699-1.7c-0.668-1-1-2.965-1-5.9c0.199-3,0.465-4.965,0.8-5.9c7.466,1,15.716,1.5,24.75,1.5
			c9.032,0,17.75-0.8,26.149-2.4c-0.934,7-5.199,11.2-12.8,12.6c-4.467,0.867-11.1,1.434-19.899,1.7
			c-0.067,0.734-1.035,8.467-2.9,23.2c4,0.134,6.766,0.2,8.3,0.2c6.333,0,10.833-1.1,13.5-3.3c0.133,1.334,0.2,2.334,0.2,3
			C1423.28,355.949,1421.013,358.982,1416.481,358.982z"/>
		<path d="M1448.38,392.082c-1.667-1.333-2.5-3.566-2.5-6.7c0-3.133,1.115-12.616,3.35-28.45c2.233-15.833,3.351-27.133,3.351-33.9
			c0-6.766-0.468-11.183-1.4-13.25c6.733,0.535,11.2,3.167,13.4,7.9c4.8-2.666,10.25-4,16.35-4c6.101,0,11.101,1.75,15,5.25
			c3.9,3.5,5.851,7.55,5.851,12.15s-1.567,9.184-4.7,13.75c-3.135,4.567-7.8,8.017-14,10.35l1.3,3.9
			c2.4,7.467,5.865,14.85,10.4,22.15c4.532,7.3,8.232,12.283,11.1,14.95c-2.467,0.666-4.917,1-7.35,1
			c-2.435,0-4.885-0.784-7.351-2.35c-2.467-1.567-4.517-3.283-6.149-5.15c-1.635-1.865-3.45-4.833-5.45-8.9
			c-2-4.065-3.435-7.233-4.3-9.5c-0.867-2.266-1.817-4.766-2.851-7.5c-1.034-2.733-1.584-4.2-1.649-4.4
			c-0.067-0.2-0.168-0.45-0.301-0.75c-0.134-0.3-0.234-0.583-0.3-0.85c-1.467,0-2.899,0-4.3,0l-0.3-4.6
			c8.466-0.333,14.766-3.365,18.899-9.1c2.266-3.2,3.4-6.466,3.4-9.8c0-1.266-0.135-2.5-0.4-3.7c-1.134-4.333-3.834-7.033-8.1-8.1
			c-1.2-0.333-2.867-0.5-5-0.5c-2.135,0-4.967,0.7-8.5,2.1c0,2.534-0.95,10.817-2.85,24.85c-1.9,14.035-2.851,25.75-2.851,35.15
			c0,4.2,0.2,7.467,0.601,9.8c-2.135,0.133-3.535,0.2-4.2,0.2C1452.78,394.082,1450.046,393.414,1448.38,392.082z"/>
		<path d="M1547.078,358.982l-9.601-0.1c-2.934,0-5.167,0.034-6.699,0.1c-1,8.867-1.535,16.467-1.601,22.8
			c15.666,0,27.3-1.266,34.9-3.8c-0.601,4.934-2.101,8.767-4.5,11.5c-2.4,2.734-5.4,4.1-9,4.1c-1.067,0-4.05-0.285-8.95-0.85
			c-4.9-0.566-10.084-0.85-15.55-0.85c-5.468,0-10.8,0.565-16,1.7c0.732-3.133,2.333-5.7,4.8-7.7v-0.4c0-3.6,0.933-11.8,2.8-24.6
			c-1.667,0.6-3.1,1.134-4.3,1.6c-0.135-1.466-0.2-2.566-0.2-3.3c0-4.465,1.966-7.3,5.9-8.5c1.2-8.8,2-16.732,2.399-23.8
			c-2.467-0.133-4.034-0.7-4.699-1.7c-0.668-1-1-2.965-1-5.9c0.199-3,0.465-4.965,0.8-5.9c7.466,1,15.716,1.5,24.75,1.5
			c9.032,0,17.75-0.8,26.149-2.4c-0.934,7-5.199,11.2-12.8,12.6c-4.467,0.867-11.1,1.434-19.899,1.7
			c-0.067,0.734-1.035,8.467-2.9,23.2c4,0.134,6.766,0.2,8.3,0.2c6.333,0,10.833-1.1,13.5-3.3c0.133,1.334,0.2,2.334,0.2,3
			C1553.878,355.949,1551.61,358.982,1547.078,358.982z"/>
		<g>
			<path fill="#7BD860" d="M1251.991,456.186c-2.4,0-4.167-0.617-5.3-1.85c-1.134-1.233-2.1-3.1-2.9-5.6
				c-0.8-2.5-23.826-83.656-26.158-94.591c-1.535,1.334-4.035,2.067-7.5,2.2l-17.1,0.6c-4.067,9.935-35.824,87.784-37.756,95.516
				c-6.4-2.267-9.6-4.833-9.6-7.7c0-1.266,30.691-75.016,34.556-83.216c3.866-8.2,8.25-17.516,13.15-27.95
				c4.9-10.433,8.215-18.016,9.95-22.75l1.8-4.9c-0.535-0.933-1.834-2.633-3.9-5.1c2.4-0.8,4.483-1.2,6.25-1.2
				c1.766,0,3.233,0.134,4.4,0.4c1.166,0.267,2.2,0.717,3.1,1.35c0.9,0.634,1.7,1.284,2.4,1.95c0.7,0.667,1.35,1.65,1.95,2.95
				c0.6,1.3,1.1,2.467,1.5,3.5c0.4,1.035,0.85,2.484,1.35,4.35c0.5,1.867,0.9,3.484,1.2,4.85c0.3,1.367,0.7,3.267,1.2,5.7
				c0.5,2.435,1.016,4.785,1.55,7.05c0.533,2.267,1.465,6.584,2.8,12.95c1.333,6.367,2.383,11.135,3.15,14.3
				c0.766,3.167,1.866,6.717,3.3,10.65c1.433,3.935,24.408,81.475,26.009,83.741
				C1257.524,455.251,1254.391,456.186,1251.991,456.186z M1209.732,319.245c-0.934,2.134-2.984,6.684-6.15,13.65
				c-3.167,6.967-5.617,12.517-7.35,16.65h20.5C1213.598,335.145,1211.265,325.044,1209.732,319.245z"/>
			<path fill="#7BD860" d="M1155.276,452.46c0,0,70.443,15.422,106.115,0.925c-5.81-17.562-4.351-12.894-4.351-12.894
				s-55.582,23.103-108.378-3.497C1145.676,444.761,1155.276,452.46,1155.276,452.46z"/>
			<g>
				<path fill="#7BD860" d="M1157.468,449.523c-4,1.333,3.333,0,4.667,2.667c6,9.333-1.333,23.333,4.667,31.333
					c4.667-9.333-0.667-19.333,0-29.333c8.667-4,8.667,5.333,10.667,10.667h0.667c0.667-5.333-1.333-13.333,6-12.667"/>
			</g>
			<g>
				<path fill="#7BD860" d="M1221.468,456.189c8.667,6.667,1.333,27.333,8,37.333l0,0c10-10.667-4.667-23.333-0.667-34
					s15.333-1.333,16.667,8c4.667-2,3.333-8.667,4-13.333"/>
			</g>
		</g>
	</g>
</g>
<g id="ISOTIPO">
	<rect x="1672.593" y="6" fill="#3A3A3A" width="156.914" height="233.167"/>
	<g id="Capa_2">
		<g>
			<path fill="#7BD860" d="M1804.387,186.414c-2.57,0-4.463-0.661-5.676-1.981c-1.214-1.32-2.249-3.32-3.106-5.997
				c-0.857-2.677-25.517-89.592-28.014-101.302c-1.644,1.429-4.321,2.214-8.032,2.356l-18.313,0.643
				c-4.356,10.64-38.366,94.012-40.435,102.293c-6.854-2.428-10.281-5.176-10.281-8.246c0-1.356,32.869-80.339,37.008-89.12
				c4.14-8.782,8.835-18.759,14.083-29.933c5.248-11.173,8.798-19.294,10.656-24.364l1.928-5.248
				c-0.573-0.999-1.964-2.82-4.177-5.462c2.57-0.857,4.801-1.285,6.693-1.285c1.891,0,3.462,0.144,4.712,0.428
				c1.249,0.286,2.356,0.768,3.32,1.446c0.964,0.679,1.821,1.375,2.57,2.088c0.75,0.714,1.446,1.767,2.088,3.159
				c0.643,1.392,1.178,2.642,1.606,3.748c0.428,1.108,0.91,2.66,1.446,4.659c0.535,1.999,0.964,3.731,1.285,5.194
				c0.321,1.464,0.75,3.499,1.285,6.104c0.535,2.608,1.088,5.125,1.66,7.55c0.571,2.428,1.569,7.051,2.999,13.869
				c1.428,6.819,2.552,11.925,3.373,15.315c0.82,3.392,1.998,7.194,3.534,11.406c1.535,4.214,26.14,87.256,27.854,89.683
				C1810.313,185.413,1806.957,186.414,1804.387,186.414z M1759.13,39.757c-1,2.285-3.196,7.158-6.586,14.618
				c-3.392,7.461-6.016,13.405-7.871,17.831h21.955C1763.27,56.785,1760.772,45.967,1759.13,39.757z"/>
			<path fill="#7BD860" d="M1700.81,182.424c0,0,75.441,16.516,113.644,0.991c-6.222-18.808-4.66-13.809-4.66-13.809
				s-59.526,24.742-116.068-3.745C1690.529,174.178,1700.81,182.424,1700.81,182.424z"/>
			<g>
				<path fill="#7BD860" d="M1703.158,179.278c-4.284,1.428,3.569,0,4.998,2.856c6.426,9.995-1.428,24.989,4.998,33.556
					c4.998-9.995-0.714-20.705,0-31.414c9.282-4.284,9.282,5.711,11.424,11.424h0.714c0.714-5.711-1.428-14.279,6.426-13.566"/>
			</g>
			<g>
				<path fill="#7BD860" d="M1771.699,186.417c9.282,7.14,1.428,29.272,8.568,39.982l0,0c10.71-11.424-4.998-24.989-0.714-36.412
					c4.284-11.424,16.421-1.428,17.85,8.568c4.998-2.142,3.569-9.282,4.284-14.279"/>
			</g>
		</g>
		<path fill="#E84855" d="M1726.553,75.541c0.172-3.977,0.519-6.787,1.038-8.43c10.635,1.471,21.443,2.205,32.425,2.205
			c10.98,0,18.762-0.259,23.346-0.778c1.469-3.458,2.42-6.268,2.853-8.43c5.707,5.707,8.56,11.414,8.56,17.12
			c0,5.621-4.367,13.835-13.1,24.643c-4.066,5.104-8.346,10.292-12.84,15.564c-12.451,14.441-22.093,26.977-28.923,37.613h1.945
			c21.011,0,36.531-1.642,46.562-4.929c-0.78,6.399-2.725,11.371-5.836,14.915c-3.113,3.546-7.004,5.318-11.673,5.318
			c-2.421,0-7.437-0.476-15.046-1.427s-15.433-1.427-23.476-1.427c-8.041,0-15.434,0.865-22.177,2.594
			c1.73-6.657,5.836-11.154,12.321-13.489c24.901-29.398,43.274-54.863,55.122-76.393c-22.568,4.843-37.528,7.263-44.877,7.263
			C1728.628,87.472,1726.553,83.497,1726.553,75.541z"/>
	</g>
	<rect x="1864.584" y="6" fill="#3A3A3A" width="156.914" height="233.167"/>
	<g id="Capa_2_2_">
		<g>
			<path fill="#FFFFFF" d="M1996.377,186.414c-2.57,0-4.463-0.661-5.676-1.981c-1.214-1.32-2.249-3.32-3.106-5.997
				c-0.857-2.677-25.517-89.592-28.014-101.302c-1.644,1.429-4.321,2.214-8.032,2.356l-18.313,0.643
				c-4.356,10.64-38.366,94.012-40.435,102.293c-6.854-2.428-10.281-5.176-10.281-8.246c0-1.356,32.869-80.339,37.008-89.12
				c4.14-8.782,8.835-18.759,14.083-29.933c5.248-11.173,8.798-19.294,10.656-24.364l1.928-5.248
				c-0.573-0.999-1.964-2.82-4.177-5.462c2.57-0.857,4.801-1.285,6.693-1.285c1.891,0,3.462,0.144,4.712,0.428
				c1.249,0.286,2.356,0.768,3.32,1.446c0.964,0.679,1.821,1.375,2.57,2.088c0.75,0.714,1.446,1.767,2.088,3.159
				c0.643,1.392,1.178,2.642,1.606,3.748c0.428,1.108,0.91,2.66,1.446,4.659c0.535,1.999,0.964,3.731,1.285,5.194
				c0.321,1.464,0.75,3.499,1.285,6.104c0.535,2.608,1.088,5.125,1.66,7.55c0.571,2.428,1.569,7.051,2.999,13.869
				c1.428,6.819,2.552,11.925,3.373,15.315c0.82,3.392,1.998,7.194,3.534,11.406c1.535,4.214,26.14,87.256,27.854,89.683
				C2002.303,185.413,1998.947,186.414,1996.377,186.414z M1951.12,39.757c-1,2.285-3.196,7.158-6.586,14.618
				c-3.392,7.461-6.016,13.405-7.871,17.831h21.955C1955.26,56.785,1952.762,45.967,1951.12,39.757z"/>
			<path fill="#FFFFFF" d="M1892.8,182.424c0,0,75.441,16.516,113.644,0.991c-6.222-18.808-4.66-13.809-4.66-13.809
				s-59.526,24.742-116.068-3.745C1882.519,174.178,1892.8,182.424,1892.8,182.424z"/>
			<g>
				<path fill="#FFFFFF" d="M1895.148,179.278c-4.284,1.428,3.569,0,4.998,2.856c6.426,9.995-1.428,24.989,4.998,33.556
					c4.998-9.995-0.714-20.705,0-31.414c9.282-4.284,9.282,5.711,11.424,11.424h0.714c0.714-5.711-1.428-14.279,6.426-13.566"/>
			</g>
			<g>
				<path fill="#FFFFFF" d="M1963.689,186.417c9.282,7.14,1.428,29.272,8.568,39.982l0,0c10.71-11.424-4.998-24.989-0.714-36.412
					c4.284-11.424,16.421-1.428,17.85,8.568c4.998-2.142,3.569-9.282,4.284-14.279"/>
			</g>
		</g>
		<path fill="#FFFFFF" d="M1918.543,75.541c0.172-3.977,0.519-6.787,1.038-8.43c10.635,1.471,21.443,2.205,32.425,2.205
			c10.98,0,18.762-0.259,23.346-0.778c1.469-3.458,2.42-6.268,2.853-8.43c5.707,5.707,8.56,11.414,8.56,17.12
			c0,5.621-4.367,13.835-13.1,24.643c-4.066,5.104-8.346,10.292-12.84,15.564c-12.451,14.441-22.093,26.977-28.923,37.613h1.945
			c21.011,0,36.531-1.642,46.562-4.929c-0.78,6.399-2.725,11.371-5.836,14.915c-3.113,3.546-7.004,5.318-11.673,5.318
			c-2.421,0-7.437-0.476-15.046-1.427s-15.433-1.427-23.476-1.427c-8.041,0-15.434,0.865-22.177,2.594
			c1.73-6.657,5.836-11.154,12.321-13.489c24.901-29.398,43.274-54.863,55.122-76.393c-22.568,4.843-37.528,7.263-44.877,7.263
			C1920.618,87.472,1918.543,83.497,1918.543,75.541z"/>
	</g>
	<g id="Capa_2_1_">
		<g>
			<path fill="#7BD860" d="M1804.387,460.414c-2.57,0-4.463-0.661-5.676-1.981c-1.214-1.32-2.249-3.32-3.106-5.997
				c-0.857-2.677-25.517-89.592-28.014-101.302c-1.644,1.429-4.321,2.214-8.032,2.356l-18.313,0.643
				c-4.356,10.64-38.366,94.012-40.435,102.293c-6.854-2.428-10.281-5.176-10.281-8.246c0-1.356,32.869-80.339,37.008-89.12
				c4.14-8.782,8.835-18.759,14.083-29.933c5.248-11.173,8.798-19.294,10.656-24.364l1.928-5.248
				c-0.573-0.999-1.964-2.82-4.177-5.462c2.57-0.857,4.801-1.285,6.693-1.285c1.891,0,3.462,0.144,4.712,0.428
				c1.249,0.286,2.356,0.768,3.32,1.446c0.964,0.679,1.821,1.375,2.57,2.088c0.75,0.714,1.446,1.767,2.088,3.159
				c0.643,1.392,1.178,2.642,1.606,3.748c0.428,1.108,0.91,2.66,1.446,4.659c0.535,1.999,0.964,3.731,1.285,5.194
				c0.321,1.464,0.75,3.499,1.285,6.104c0.535,2.608,1.088,5.125,1.66,7.55c0.571,2.428,1.569,7.051,2.999,13.869
				c1.428,6.819,2.552,11.925,3.373,15.315c0.82,3.392,1.998,7.194,3.534,11.406c1.535,4.214,26.14,87.256,27.854,89.683
				C1810.313,459.413,1806.957,460.414,1804.387,460.414z M1759.13,313.757c-1,2.285-3.196,7.158-6.586,14.618
				c-3.392,7.461-6.016,13.405-7.871,17.831h21.955C1763.27,330.785,1760.772,319.967,1759.13,313.757z"/>
			<path fill="#7BD860" d="M1700.81,456.424c0,0,75.441,16.516,113.644,0.991c-6.222-18.808-4.66-13.809-4.66-13.809
				s-59.526,24.742-116.068-3.745C1690.529,448.178,1700.81,456.424,1700.81,456.424z"/>
			<g>
				<path fill="#7BD860" d="M1703.158,453.278c-4.284,1.428,3.569,0,4.998,2.856c6.426,9.995-1.428,24.989,4.998,33.556
					c4.998-9.995-0.714-20.705,0-31.414c9.282-4.284,9.282,5.711,11.424,11.424h0.714c0.714-5.711-1.428-14.279,6.426-13.566"/>
			</g>
			<g>
				<path fill="#7BD860" d="M1771.699,460.417c9.282,7.14,1.428,29.272,8.568,39.982l0,0c10.71-11.424-4.998-24.989-0.714-36.412
					c4.284-11.424,16.421-1.428,17.85,8.568c4.998-2.142,3.569-9.282,4.284-14.279"/>
			</g>
		</g>
		<path fill="#E84855" d="M1726.553,349.541c0.172-3.977,0.519-6.787,1.038-8.43c10.635,1.471,21.443,2.205,32.425,2.205
			c10.98,0,18.762-0.259,23.346-0.778c1.469-3.458,2.42-6.268,2.853-8.43c5.707,5.707,8.56,11.414,8.56,17.12
			c0,5.621-4.367,13.835-13.1,24.643c-4.066,5.104-8.346,10.292-12.84,15.564c-12.451,14.441-22.093,26.977-28.923,37.613h1.945
			c21.011,0,36.531-1.642,46.562-4.929c-0.78,6.399-2.725,11.371-5.836,14.915c-3.113,3.546-7.004,5.318-11.673,5.318
			c-2.421,0-7.437-0.476-15.046-1.427s-15.433-1.427-23.476-1.427c-8.041,0-15.434,0.865-22.177,2.594
			c1.73-6.657,5.836-11.154,12.321-13.489c24.901-29.398,43.274-54.863,55.122-76.393c-22.568,4.843-37.528,7.263-44.877,7.263
			C1728.628,361.472,1726.553,357.497,1726.553,349.541z"/>
	</g>
</g>
<g id="CERRADA">
	<g id="Capa_4">
	</g>
	<g id="Capa_6">
	</g>
	<g>
		<polygon fill="#FFFFFF" points="1056.104,-152.768 1056.794,-142.062 1147.261,-78.878 1238.59,-124.862 1237.382,-135.393 
			1148.899,-194.715 		"/>
		<polygon fill="#D0D0D0" points="1057.139,-147.327 1145.542,-83.793 1236.002,-128.723 1237.382,-110.295 1145.542,-66.029 
			1058.001,-130.215 		"/>
		<polygon fill="#A8A8A8" points="1057.139,-138.903 1144.242,-72.385 1236.347,-118.368 1237.382,-111.699 1144.932,-65.715 
			1057.829,-131.068 		"/>
		<polygon fill="#EEEEEE" points="1066.281,-152.066 1142,-97.482 1226.688,-140.307 1151.831,-190.503 		"/>
		<g id="Capa_1_3_">
			<path d="M1100.939-167.678c0.119-0.234,0.537-0.473,1.252-0.716c0.712-0.242,2.977-0.882,6.744-1.907
				c3.698-1.007,6.24-1.749,7.667-2.236c1.414-0.483,2.275-0.829,2.591-1.041c0.7,0.518,0.684,1.027-0.06,1.527
				c1.205,0.169,2.186,0.478,2.944,0.93c0.764,0.456,0.969,0.962,0.608,1.519c-0.365,0.563-1.148,1.062-2.352,1.495
				c-1.505,0.541-3.192,0.835-5.053,0.877c-0.893,0.016-1.763-0.064-2.607-0.24c-0.841-0.175-1.544-0.447-2.107-0.815
				c-0.237-0.155-0.432-0.311-0.585-0.47l0.893-0.345c0.031,0.02,0.063,0.041,0.094,0.061c0.894,0.579,2.232,0.826,4.005,0.738
				c1.249-0.072,2.352-0.278,3.304-0.616c1.389-0.493,1.973-1.014,1.764-1.563c-0.195-0.455-0.873-0.798-2.033-1.033l-0.042,0.015
				c-0.536,0.186-2.413,0.726-5.67,1.632c-3.312,0.921-6.044,1.751-8.179,2.486c-0.963,0.331-1.693,0.607-2.187,0.824
				c-0.275-0.16-0.45-0.266-0.526-0.318C1100.975-167.175,1100.82-167.443,1100.939-167.678z"/>
			<path d="M1127.037-167.455c-0.164,0.128-0.339,0.234-0.525,0.315c-0.186,0.082-0.544,0.22-1.073,0.416
				c-0.531,0.197-2.577,0.813-6.185,1.861c-3.674,1.068-6.232,1.865-7.632,2.379c-1.412,0.519-2.324,0.916-2.729,1.189
				c-0.357-0.62-0.375-1.121-0.058-1.505c0.315-0.382,0.975-0.754,1.978-1.118c0.583-0.211,2.143-0.687,4.655-1.42
				c4.115-1.184,7.158-2.137,9.171-2.871c0.425-0.155,0.987-0.376,1.683-0.663c0.598,0.41,0.911,0.759,0.933,1.044
				C1127.274-167.707,1127.201-167.583,1127.037-167.455z"/>
			<path d="M1140.215-158.778c0.69-0.267,1.202-0.439,1.537-0.517c1.001,0.849,2.161,1.669,3.482,2.46
				c1.337,0.801,2.34,1.356,2.996,1.657c0.766-0.148,1.358-0.286,1.774-0.414c-0.244,0.85-0.851,1.494-1.824,1.928
				c-0.965,0.43-2.934,0.726-5.906,0.886c-1.399,0.08-2.842,0.15-4.326,0.211c-4.09,0.154-7.513,0.38-10.271,0.677l0.224,0.153
				c2.457,1.672,4.621,2.8,6.455,3.355c-1.296,0.466-2.471,0.719-3.521,0.755c-1.051,0.036-1.856-0.141-2.413-0.529
				c-0.288-0.201-0.79-0.653-1.502-1.353c-0.705-0.692-1.516-1.356-2.434-1.993c-0.909-0.631-1.899-1.138-2.972-1.526
				c1.439-0.378,2.733-0.408,3.894-0.09c8.239-0.345,14.953-0.885,20.13-1.614c-3.573-1.315-5.765-2.228-6.627-2.758
				C1138.428-157.786,1138.866-158.217,1140.215-158.778z"/>
			<path fill="#A0425B" d="M1150.031-152.848c0.701-0.293,1.223-0.482,1.568-0.568c1.122,0.933,2.409,1.835,3.862,2.706
				c1.473,0.882,2.573,1.493,3.289,1.826c0.792-0.163,1.4-0.315,1.826-0.456c-0.181,0.937-0.761,1.648-1.746,2.126
				c-0.976,0.475-3.02,0.801-6.13,0.978c-1.464,0.089-2.974,0.166-4.529,0.233c-4.287,0.171-7.867,0.42-10.742,0.749l0.248,0.169
				c2.718,1.849,5.087,3.099,7.064,3.714c-1.326,0.517-2.544,0.797-3.646,0.837c-1.104,0.04-1.966-0.156-2.584-0.587
				c-0.319-0.222-0.884-0.724-1.689-1.499c-0.796-0.766-1.702-1.501-2.718-2.206c-1.005-0.697-2.085-1.258-3.243-1.686
				c1.483-0.418,2.84-0.451,4.086-0.099c8.63-0.381,15.639-0.977,21.014-1.782c-3.864-1.449-6.242-2.455-7.19-3.038
				C1148.239-151.758,1148.663-152.231,1150.031-152.848z"/>
			<path d="M1157.649-138.198l-1.798-1.196c-0.551-0.358-0.976-0.625-1.277-0.802c-2.329,0.957-4.292,1.828-5.875,2.61
				c2.927,1.992,5.472,3.341,7.587,4.009c-1.355,0.576-2.617,0.889-3.778,0.933c-1.162,0.045-2.09-0.174-2.779-0.655
				c-0.203-0.142-0.697-0.574-1.477-1.292c-0.772-0.711-1.66-1.415-2.664-2.112c-0.994-0.691-2.098-1.288-3.313-1.793
				c0.922-0.297,1.854-0.416,2.797-0.358l0.1-0.049c0.898-0.442,3.092-1.325,6.536-2.634c-0.447-0.126-0.834-0.233-1.163-0.319
				c0.328-0.189,0.58-0.326,0.755-0.412c1.064-0.522,2.091-0.623,3.091-0.304c2.282-0.882,4.262-1.7,5.948-2.456
				c-0.424-0.292-0.583-0.532-0.478-0.717c0.104-0.186,0.486-0.441,1.144-0.765c0.706-0.308,1.192-0.494,1.461-0.56
				c1.155,0.932,2.585,1.91,4.298,2.934c1.738,1.039,3.619,1.964,5.641,2.767c-1.755,0.725-3.551,0.717-5.361-0.024
				c-1.065-0.426-2.47-1.139-4.202-2.13c-0.18,0.077-2.133,0.862-5.922,2.38c0.718,0.495,1.224,0.836,1.514,1.021
				c1.206,0.77,2.332,1.188,3.368,1.245c-0.289,0.181-0.513,0.313-0.671,0.395C1159.686-137.729,1158.519-137.633,1157.649-138.198z
				"/>
			<path d="M1155.674-129.632c0.007-0.418,0.411-0.843,1.209-1.274c0.792-0.429,3.388-1.563,7.71-3.37
				c4.218-1.764,7.07-3.057,8.616-3.903c1.528-0.837,2.42-1.434,2.688-1.799c1.267,0.887,1.609,1.764,1.007,2.631
				c1.608,0.269,3.063,0.791,4.371,1.571c1.322,0.789,2.024,1.671,2.095,2.651c0.073,0.993-0.417,1.809-1.475,2.44
				c-1.068,0.636-2.49,1.057-4.264,1.257c-1.779,0.201-3.629,0.03-5.536-0.51l-0.664,0.727c-1.308,1.399-2.387,2.967-3.233,4.715
				c-0.866,1.787-1.333,3.125-1.388,3.99c-0.725-0.282-1.358-0.613-1.896-0.991c-0.536-0.377-0.868-0.875-0.998-1.491
				c-0.129-0.612-0.128-1.179,0.001-1.702c0.128-0.52,0.497-1.224,1.102-2.109c0.598-0.874,1.085-1.531,1.466-1.975
				c0.378-0.441,0.793-0.924,1.246-1.449c0.449-0.52,0.69-0.797,0.725-0.834c0.034-0.037,0.074-0.085,0.119-0.144
				c0.045-0.059,0.092-0.112,0.143-0.157c-0.309-0.2-0.609-0.395-0.902-0.585l1.046-0.661c1.863,1.1,3.934,1.547,6.188,1.327
				c1.246-0.128,2.259-0.418,3.035-0.87c0.294-0.171,0.55-0.355,0.77-0.552c0.749-0.73,0.78-1.443,0.103-2.141
				c-0.182-0.199-0.501-0.437-0.956-0.713c-0.454-0.275-1.212-0.548-2.274-0.821c-0.578,0.324-2.687,1.269-6.382,2.861
				c-3.777,1.627-6.864,3.101-9.228,4.412c-1.07,0.593-1.867,1.086-2.386,1.478c-0.472-0.287-0.776-0.477-0.912-0.572
				C1156.047-128.732,1155.667-129.212,1155.674-129.632z"/>
			<path d="M1185.841-119.877l-2.292-1.521c-0.699-0.454-1.237-0.793-1.615-1.018c-2.416,1.216-4.441,2.323-6.06,3.319
				c3.738,2.543,6.913,4.271,9.457,5.128c-1.407,0.74-2.769,1.142-4.076,1.199c-1.308,0.058-2.408-0.224-3.293-0.841
				c-0.261-0.182-0.914-0.737-1.951-1.658c-1.026-0.91-2.181-1.811-3.462-2.702c-1.269-0.881-2.639-1.642-4.115-2.285
				c0.979-0.377,2.004-0.529,3.08-0.456l0.103-0.063c0.92-0.562,3.204-1.683,6.801-3.341c-0.53-0.16-0.989-0.294-1.377-0.404
				c0.328-0.239,0.582-0.412,0.761-0.521c1.083-0.659,2.216-0.787,3.409-0.385c2.37-1.114,4.413-2.144,6.137-3.095
				c-0.54-0.368-0.771-0.668-0.696-0.902c0.075-0.233,0.446-0.553,1.112-0.96c0.722-0.386,1.224-0.62,1.511-0.702
				c1.503,1.169,3.328,2.397,5.483,3.686c2.191,1.31,4.521,2.478,6.983,3.494c-1.804,0.918-3.828,0.908-6.037-0.03
				c-1.296-0.54-3.04-1.441-5.21-2.691c-0.184,0.097-2.203,1.088-6.125,3.007c0.917,0.627,1.563,1.059,1.931,1.294
				c1.531,0.978,2.894,1.508,4.076,1.581c-0.285,0.23-0.508,0.398-0.667,0.503C1188.246-119.279,1186.95-119.156,1185.841-119.877z"
				/>
			<g>
				<path fill="#007532" d="M1105.822-146.101c-0.331-0.266-0.407-0.529-0.231-0.789c0.175-0.259,0.542-0.568,1.099-0.926
					c0.553-0.356,17.45-10.691,19.635-11.892c-0.517-0.018-1.031-0.176-1.54-0.474l-2.461-1.451
					c-2.812,0.512-25.695,4.691-27.91,5.238c-0.175-0.815,0.105-1.351,0.834-1.616c0.321-0.117,21.95-3.956,24.331-4.329
					c2.366-0.371,5.036-0.79,8.001-1.257c2.942-0.463,5.032-0.818,6.284-1.066l1.291-0.255c0.123-0.12,0.3-0.366,0.531-0.735
					c0.502,0.13,0.877,0.267,1.125,0.411c0.248,0.144,0.427,0.276,0.536,0.393c0.109,0.118,0.16,0.24,0.155,0.367
					c-0.006,0.127-0.029,0.248-0.071,0.361c-0.042,0.114-0.157,0.25-0.348,0.41c-0.191,0.16-0.368,0.3-0.531,0.421
					c-0.164,0.121-0.41,0.282-0.739,0.483c-0.33,0.202-0.622,0.375-0.875,0.518c-0.253,0.143-0.609,0.342-1.068,0.596
					c-0.461,0.255-0.904,0.506-1.327,0.751c-0.425,0.247-1.252,0.712-2.488,1.4c-1.251,0.697-2.19,1.228-2.807,1.59
					c-0.622,0.364-1.289,0.797-2.004,1.301c-0.721,0.508-16.972,10.853-17.357,11.286
					C1106.843-145.589,1106.154-145.834,1105.822-146.101z M1132.957-163.429c-0.592,0.101-1.865,0.313-3.827,0.635
					c-1.973,0.325-3.542,0.591-4.703,0.798l2.816,1.797C1130.024-161.739,1131.914-162.808,1132.957-163.429z"/>
				<path fill="#007532" d="M1094.415-156.394c0,0,4.702,8.695,13.473,11.03c3.846-2.572,2.826-1.907,2.826-1.907
					s-13.562-3.45-13.147-11.178C1095.249-158.011,1094.415-156.394,1094.415-156.394z"/>
				<g>
					<path fill="#007532" d="M1095.433-156.465c-0.819-0.252,0.4,0.316-0.128,0.697c-1.713,1.483-6.301,2.139-7.757,3.539
						c3.076-0.47,5.101-1.991,7.801-2.899c2.094,0.452-0.343,1.367-1.509,2.095l0.081,0.067c1.492-0.465,3.34-1.449,4.073-0.663"/>
				</g>
				<g>
					<path fill="#007532" d="M1101.71-149.404c-0.647,1.639-7.281,3.098-9.24,4.967l0,0c4.318-0.076,5.898-3.111,9.316-3.831
						c3.38-0.712,2.419,1.521,0.06,2.704c1.183,0.299,2.816-0.594,4.167-1.036"/>
				</g>
			</g>
		</g>
		<path d="M1062.141-147.327c0,0,4.986,3.007,12.26,7.815c1.821,1.199,3.793,2.498,5.857,3.904c2.069,1.399,4.258,2.863,6.492,4.422
			c2.235,1.557,4.568,3.133,6.897,4.795c2.334,1.653,4.706,3.333,7.078,5.012c2.353,1.706,4.707,3.412,7.023,5.091
			c2.325,1.667,4.567,3.374,6.761,4.991c4.374,3.255,8.422,6.341,11.861,9.032c3.448,2.677,6.283,4.964,8.255,6.581
			c0.991,0.802,1.751,1.459,2.274,1.899c0.26,0.223,0.459,0.393,0.593,0.508c0.133,0.116,0.202,0.178,0.196,0.182
			c0.006-0.004-0.071-0.056-0.218-0.152c-0.149-0.095-0.369-0.235-0.656-0.418c-0.577-0.364-1.423-0.897-2.499-1.575
			c-2.147-1.366-5.207-3.327-8.837-5.741c-3.639-2.4-7.854-5.246-12.335-8.344c-2.233-1.56-4.567-3.134-6.892-4.8
			c-2.334-1.654-4.705-3.334-7.075-5.015c-2.353-1.706-4.707-3.411-7.023-5.09c-2.323-1.67-4.568-3.372-6.763-4.988
			c-2.197-1.613-4.29-3.216-6.283-4.724c-1.998-1.502-3.865-2.951-5.59-4.29C1066.609-143.571,1062.141-147.327,1062.141-147.327z"
			/>
		<path d="M1144.587-73.087l-0.609-4.189l-0.561-4.193c-0.334-2.798-0.709-5.593-1.011-8.394l-0.069-0.637l0.624-0.333l5.403-2.882
			l5.432-2.82c3.612-1.899,7.268-3.705,10.906-5.548c3.631-1.858,7.315-3.603,10.971-5.409c3.653-1.811,7.347-3.535,11.028-5.287
			c1.844-0.868,3.677-1.76,5.53-2.609l5.555-2.555c3.694-1.722,7.428-3.36,11.15-5.024c1.857-0.84,3.737-1.63,5.607-2.444
			c1.871-0.809,3.741-1.622,5.627-2.401c3.76-1.582,7.534-3.132,11.348-4.598c-3.531,2.074-7.101,4.063-10.686,6.02
			c-1.787,0.991-3.589,1.948-5.391,2.908c-1.803,0.956-3.595,1.936-5.411,2.865c-3.623,1.876-7.234,3.777-10.884,5.595l-5.462,2.754
			c-1.819,0.921-3.659,1.799-5.487,2.7c-3.664,1.787-7.315,3.603-11.007,5.331c-3.689,1.734-7.35,3.528-11.064,5.209
			c-3.707,1.696-7.396,3.43-11.128,5.07l-5.585,2.49l-5.615,2.427l0.556-0.97c0.101,2.816,0.129,5.637,0.197,8.455l0.042,4.231
			L1144.587-73.087z"/>
		<path d="M1226.608-107.507c0,0-0.086-0.214-0.246-0.616c-0.068-0.21-0.123-0.457-0.149-0.719l-0.008-0.099l0-0.035l0.002-0.066
			c0.001-0.045,0.003-0.091,0.005-0.139c0.005-0.203,0.02-0.414,0.048-0.593c0.047-0.405,0.126-0.813,0.226-1.275
			c0.098-0.464,0.219-0.961,0.358-1.499c0.553-2.146,1.389-4.897,2.26-7.639c1.742-5.476,3.622-10.883,3.622-10.883
			s-0.792,5.684-1.43,11.367c-0.318,2.838-0.599,5.683-0.714,7.765c-0.029,0.519-0.049,0.992-0.053,1.392
			c-0.007,0.4-0.002,0.748,0.021,0.967c0.005,0.133,0.022,0.201,0.036,0.24l0.008,0.036l0.003,0.017l0.001,0.005l-0.002-0.06
			c-0.01-0.161-0.052-0.315-0.107-0.443c-0.028-0.064-0.058-0.122-0.09-0.173c-0.021-0.038-0.089-0.131-0.061-0.09
			c0.017,0.027,0.032,0.049,0.043,0.067c0.023,0.036,0.035,0.055,0.035,0.055L1226.608-107.507z"/>
		<g>
			<path d="M1144.932-62.975c-0.556,0-1.109-0.175-1.576-0.519l-87.793-64.5c-0.701-0.515-1.117-1.341-1.117-2.221v-21.5
				c0-1.065,0.607-2.034,1.556-2.484l90.725-43c0.843-0.4,1.828-0.329,2.607,0.188l89.517,59.322
				c0.763,0.505,1.224,1.369,1.224,2.296v22.114c0,1.033-0.572,1.979-1.478,2.445l-92.449,47.563
				C1145.763-63.072,1145.347-62.975,1144.932-62.975z M1059.832-131.616l85.348,62.704l89.51-46.051v-18.944l-87.042-57.682
				l-87.815,41.621V-131.616z"/>
		</g>
	</g>
</g>
<g id="ABIERTA">
	<polyline fill="#939292" points="1458.095,-175.515 1530.203,-125.908 1448.073,-84.116 1373.264,-136.035 1457.535,-175.515 	"/>
	<polygon fill="#A8A8A8" points="1362.866,-131.164 1362.003,-152.277 1458.095,-193.415 1458.095,-175.777 	"/>
	<polygon fill="#D0D0D0" points="1458.095,-193.415 1542.246,-136.246 1543.977,-116.432 1458.095,-175.515 	"/>
	<polygon fill="#FFFFFF" points="1454.868,-205.39 1458.095,-193.415 1543.251,-135.55 1620.766,-218.8 1620.57,-235.277 
		1525.833,-281.777 	"/>
	<polygon fill="#EEEEEE" points="1532.583,-142.769 1612.276,-222.881 1525.833,-262.777 1458.095,-193.415 	"/>
	<g id="Capa_1_4_">
		<path d="M1488.193-221.663c0.02-0.267,0.289-0.624,0.806-1.069c0.515-0.444,2.194-1.727,5-3.823
			c2.755-2.058,4.633-3.522,5.662-4.414c1.02-0.884,1.624-1.474,1.817-1.775c0.762,0.315,0.921,0.826,0.468,1.535
			c1.067-0.176,1.993-0.149,2.781,0.084c0.794,0.235,1.138,0.679,1.024,1.336c-0.115,0.664-0.601,1.383-1.463,2.158
			c-1.076,0.968-2.39,1.742-3.934,2.316c-0.743,0.271-1.498,0.44-2.264,0.506c-0.764,0.066-1.445-0.004-2.041-0.208
			c-0.251-0.086-0.467-0.186-0.649-0.301l0.631-0.598c0.033,0.011,0.066,0.022,0.1,0.034c0.945,0.32,2.15,0.184,3.605-0.41
			c1.022-0.429,1.875-0.948,2.558-1.557c0.996-0.887,1.308-1.572,0.947-2.058c-0.318-0.396-1.002-0.544-2.053-0.446l-0.03,0.027
			c-0.386,0.338-1.774,1.411-4.195,3.243c-2.461,1.862-4.468,3.468-6.006,4.809c-0.694,0.605-1.212,1.087-1.552,1.444
			c-0.284-0.08-0.467-0.136-0.548-0.166C1488.393-221.173,1488.173-221.395,1488.193-221.663z"/>
		<path d="M1510.125-228.899c-0.094,0.175-0.205,0.329-0.333,0.464c-0.128,0.135-0.381,0.375-0.757,0.721
			c-0.378,0.347-1.883,1.544-4.549,3.618c-2.715,2.112-4.587,3.635-5.584,4.546c-1.006,0.919-1.636,1.575-1.882,1.962
			c-0.509-0.514-0.695-1.007-0.56-1.48c0.134-0.47,0.56-1.029,1.277-1.677c0.417-0.377,1.561-1.295,3.417-2.742
			c3.045-2.353,5.27-4.17,6.707-5.475c0.303-0.275,0.699-0.656,1.185-1.14c0.64,0.237,1.02,0.494,1.136,0.772
			C1510.237-229.217,1510.218-229.073,1510.125-228.899z"/>
		<path d="M1524.104-224.038c0.487-0.462,0.858-0.779,1.112-0.953c1.127,0.558,2.376,1.042,3.75,1.451
			c1.392,0.414,2.419,0.679,3.071,0.792c0.592-0.366,1.04-0.672,1.346-0.918c0.084,0.914-0.206,1.729-0.874,2.438
			c-0.662,0.703-2.211,1.56-4.646,2.569c-1.145,0.48-2.329,0.962-3.551,1.446c-3.373,1.322-6.163,2.525-8.372,3.608l0.24,0.088
			c2.625,0.96,4.819,1.463,6.544,1.491c-0.927,0.834-1.826,1.421-2.693,1.757c-0.868,0.336-1.602,0.39-2.201,0.163
			c-0.309-0.117-0.883-0.424-1.717-0.915c-0.825-0.487-1.73-0.915-2.715-1.286c-0.975-0.367-1.977-0.589-3.007-0.667
			c1.076-0.787,2.15-1.187,3.231-1.202c6.783-2.697,12.222-5.152,16.31-7.357c-3.438-0.286-5.584-0.568-6.485-0.848
			C1522.943-222.541,1523.164-223.094,1524.104-224.038z"/>
		<path fill="#A0425B" d="M1534.336-220.947c0.488-0.492,0.861-0.829,1.12-1.013c1.256,0.607,2.64,1.136,4.152,1.586
			c1.533,0.456,2.662,0.749,3.374,0.876c0.608-0.388,1.066-0.713,1.375-0.975c0.166,0.983-0.079,1.856-0.741,2.613
			c-0.657,0.751-2.257,1.66-4.802,2.724c-1.196,0.506-2.434,1.015-3.714,1.526c-3.532,1.395-6.446,2.665-8.742,3.814l0.265,0.097
			c2.904,1.062,5.311,1.627,7.176,1.674c-0.935,0.893-1.86,1.519-2.77,1.874c-0.911,0.355-1.7,0.407-2.363,0.155
			c-0.343-0.13-0.986-0.467-1.923-1.008c-0.927-0.534-1.935-1.006-3.024-1.416c-1.078-0.406-2.173-0.655-3.287-0.749
			c1.1-0.839,2.226-1.26,3.388-1.266c7.098-2.845,12.766-5.44,16.994-7.776c-3.728-0.336-6.061-0.657-7.052-0.966
			C1533.205-219.351,1533.399-219.943,1534.336-220.947z"/>
		<path d="M1545.685-208.56l-1.911-0.675c-0.583-0.198-1.029-0.342-1.342-0.433c-1.626,1.617-2.974,3.044-4.035,4.274
			c3.127,1.144,5.716,1.758,7.714,1.818c-0.939,0.96-1.89,1.631-2.848,2.008c-0.958,0.377-1.809,0.424-2.549,0.143
			c-0.218-0.083-0.778-0.372-1.675-0.863c-0.888-0.486-1.871-0.932-2.948-1.339c-1.067-0.403-2.194-0.681-3.383-0.836
			c0.672-0.558,1.411-0.943,2.221-1.155l0.067-0.078c0.602-0.696,2.14-2.201,4.58-4.486c-0.417,0.002-0.778,0.007-1.083,0.015
			c0.211-0.281,0.375-0.49,0.493-0.625c0.714-0.823,1.54-1.217,2.485-1.186c1.612-1.529,2.992-2.908,4.148-4.141
			c-0.454-0.17-0.668-0.362-0.644-0.577c0.024-0.214,0.257-0.577,0.699-1.088c0.487-0.508,0.831-0.832,1.034-0.974
			c1.284,0.597,2.813,1.16,4.594,1.688c1.808,0.537,3.697,0.918,5.662,1.139c-1.224,1.222-2.73,1.727-4.498,1.508
			c-1.037-0.12-2.455-0.427-4.242-0.916c-0.124,0.128-1.494,1.466-4.152,4.058c0.769,0.287,1.308,0.481,1.614,0.583
			c1.271,0.421,2.356,0.514,3.243,0.275c-0.181,0.262-0.323,0.458-0.428,0.585C1547.551-208.675,1546.606-208.246,1545.685-208.56z"
			/>
		<path d="M1546.938-199.479c-0.136-0.418,0.059-0.955,0.58-1.612c0.518-0.653,2.307-2.522,5.314-5.554
			c2.934-2.959,4.884-5.059,5.891-6.342c0.996-1.268,1.54-2.117,1.641-2.557c1.362,0.52,1.946,1.294,1.736,2.328
			c1.438-0.192,2.834-0.089,4.193,0.313c1.375,0.406,2.262,1.084,2.654,2.037c0.398,0.967,0.265,1.917-0.408,2.847
			c-0.678,0.938-1.727,1.762-3.144,2.468c-1.422,0.708-3.028,1.067-4.809,1.075l-0.309,0.912c-0.621,1.765-0.993,3.632-1.108,5.611
			c-0.119,2.024-0.056,3.488,0.191,4.363c-0.703-0.073-1.345-0.221-1.924-0.444c-0.577-0.221-1.024-0.621-1.342-1.197
			c-0.315-0.571-0.507-1.135-0.576-1.692c-0.069-0.553,0.001-1.359,0.208-2.412c0.204-1.04,0.389-1.832,0.557-2.382
			c0.167-0.547,0.351-1.146,0.552-1.796c0.2-0.646,0.307-0.99,0.324-1.036c0.016-0.046,0.033-0.105,0.05-0.177
			c0.017-0.072,0.039-0.137,0.066-0.197c-0.326-0.111-0.644-0.218-0.954-0.324l0.652-0.956c1.933,0.561,3.819,0.414,5.632-0.448
			c1-0.483,1.75-1.061,2.247-1.732c0.188-0.254,0.34-0.51,0.457-0.769c0.38-0.939,0.164-1.658-0.64-2.158
			c-0.22-0.146-0.568-0.292-1.042-0.436c-0.473-0.144-1.201-0.199-2.183-0.166c-0.375,0.487-1.819,2.03-4.374,4.668
			c-2.612,2.697-4.697,5.044-6.232,7.023c-0.695,0.895-1.195,1.613-1.497,2.151c-0.493-0.15-0.812-0.252-0.957-0.308
			C1547.555-198.691,1547.074-199.059,1546.938-199.479z"/>
		<path d="M1575.51-198.402l-2.436-0.857c-0.74-0.252-1.305-0.435-1.698-0.551c-1.611,1.899-2.931,3.579-3.949,5.031
			c3.993,1.46,7.239,2.27,9.66,2.396c-0.928,1.138-1.932,1.926-3.007,2.357c-1.076,0.431-2.092,0.465-3.043,0.105
			c-0.28-0.106-1.015-0.472-2.196-1.09c-1.168-0.612-2.441-1.178-3.816-1.697c-1.361-0.514-2.767-0.878-4.222-1.096
			c0.692-0.655,1.499-1.098,2.425-1.333l0.065-0.092c0.58-0.821,2.113-2.589,4.562-5.265c-0.498-0.008-0.928-0.01-1.29-0.008
			c0.194-0.331,0.348-0.576,0.461-0.735c0.684-0.965,1.589-1.416,2.724-1.356c1.607-1.784,2.968-3.393,4.09-4.831
			c-0.577-0.211-0.873-0.444-0.889-0.698c-0.016-0.253,0.186-0.678,0.605-1.273c0.474-0.591,0.815-0.966,1.027-1.13
			c1.656,0.733,3.6,1.432,5.842,2.097c2.28,0.677,4.627,1.171,7.034,1.478c-1.199,1.428-2.898,1.997-5.066,1.695
			c-1.269-0.166-3.034-0.564-5.276-1.186c-0.121,0.149-1.476,1.711-4.109,4.74c0.981,0.361,1.668,0.606,2.056,0.735
			c1.614,0.535,2.936,0.673,3.95,0.408c-0.161,0.31-0.29,0.541-0.388,0.69C1577.727-198.494,1576.683-198.002,1575.51-198.402z"/>
		<g>
			<path fill="#007532" d="M1499.602-201.607c-0.367-0.17-0.521-0.409-0.461-0.718c0.059-0.308,0.262-0.719,0.606-1.234
				c0.343-0.512,10.987-15.615,12.409-17.434c-0.439,0.13-0.923,0.119-1.45-0.031l-2.553-0.739
				c-2.181,1.312-19.927,12.006-21.597,13.183c-0.423-0.76-0.371-1.373,0.151-1.845c0.229-0.208,17.04-10.205,18.907-11.257
				c1.856-1.045,3.949-2.224,6.275-3.536c2.307-1.301,3.937-2.251,4.901-2.855l0.994-0.623c0.062-0.155,0.127-0.449,0.196-0.882
				c0.465-0.014,0.825,0.015,1.082,0.087c0.257,0.073,0.451,0.152,0.582,0.238c0.131,0.086,0.216,0.193,0.254,0.321
				c0.038,0.128,0.059,0.255,0.063,0.379c0.004,0.125-0.047,0.294-0.152,0.506c-0.106,0.213-0.207,0.403-0.302,0.57
				c-0.096,0.168-0.248,0.398-0.455,0.692c-0.208,0.295-0.394,0.55-0.557,0.765c-0.164,0.215-0.394,0.514-0.693,0.898
				c-0.3,0.386-0.585,0.761-0.856,1.126c-0.272,0.367-0.807,1.065-1.609,2.103c-0.811,1.05-1.417,1.847-1.812,2.383
				c-0.397,0.54-0.809,1.161-1.236,1.866c-0.431,0.711-10.531,15.64-10.707,16.18C1500.63-201.389,1499.97-201.436,1499.602-201.607
				z M1516.448-226.587c-0.461,0.27-1.456,0.844-2.989,1.725c-1.542,0.886-2.766,1.6-3.668,2.137l2.968,0.982
				C1514.565-224.069,1515.785-225.672,1516.448-226.587z"/>
			<path fill="#007532" d="M1486.557-208.58c0,0,6.888,7.301,15.025,7.115c2.349-3.656,1.72-2.704,1.72-2.704
				s-12.528,0.446-14.802-7.356C1486.707-210.426,1486.557-208.58,1486.557-208.58z"/>
			<g>
				<path fill="#007532" d="M1487.385-208.941c-0.772-0.016,0.442,0.2,0.129,0.73c-0.931,1.964-4.551,3.928-5.295,5.735
					c2.417-1.346,3.597-3.437,5.549-5.111c1.907-0.149,0.177,1.457-0.553,2.514l0.091,0.043c1.092-0.888,2.305-2.395,3.186-1.823"/>
			</g>
			<g>
				<path fill="#007532" d="M1495.037-203.716c0.014,1.814-5.047,5.16-6.053,7.578l0,0c3.591-1.309,3.884-4.779,6.502-6.471
					c2.589-1.674,2.542,0.821,0.968,2.671c1.092-0.041,2.157-1.395,3.138-2.22"/>
			</g>
		</g>
	</g>
	<g id="Capa_7">
		<g>
			<path d="M1458.095-193.415c0,1.872,85.331,57.676,85.331,57.676"/>
			<path d="M1458.095-193.415c-0.021,0.024,0.237,0.325,0.87,0.74c0.617,0.432,1.567,1.004,2.758,1.755
				c2.404,1.471,5.839,3.572,9.96,6.093c2.058,1.264,4.293,2.626,6.628,4.108c2.343,1.472,4.829,3.001,7.359,4.645
				c2.532,1.64,5.185,3.283,7.823,5.036c2.649,1.738,5.34,3.504,8.031,5.27c2.669,1.799,5.339,3.598,7.966,5.369
				c2.641,1.751,5.177,3.57,7.667,5.276c2.491,1.704,4.861,3.41,7.116,5.016c2.263,1.594,4.375,3.143,6.323,4.575
				c3.906,2.85,7.111,5.302,9.344,7.034c2.234,1.731,3.486,2.759,3.486,2.759s-1.443-0.735-3.922-2.093
				c-2.479-1.357-6.005-3.322-10.17-5.78c-2.088-1.221-4.346-2.55-6.704-4.001c-2.366-1.439-4.868-2.947-7.415-4.571
				c-2.547-1.622-5.215-3.245-7.859-4.995c-2.654-1.735-5.35-3.498-8.047-5.26c-2.668-1.806-5.335-3.612-7.961-5.39
				c-2.632-1.769-5.163-3.6-7.64-5.329c-2.48-1.725-4.831-3.462-7.068-5.098c-2.244-1.626-4.331-3.213-6.253-4.686
				c-3.851-2.934-6.987-5.487-9.133-7.339c-1.08-0.917-1.888-1.691-2.428-2.228C1458.273-193.04,1458.063-193.408,1458.095-193.415z
				"/>
		</g>
	</g>
	
		<polyline fill="none" stroke="#000000" stroke-width="5" stroke-linecap="round" stroke-linejoin="round" stroke-miterlimit="10" points="
		1361.727,-152.622 1458.095,-193.415 1454.868,-205.39 1525.833,-281.777 1620.57,-235.277 1620.766,-218.8 1544.295,-137.625 
		1541.933,-136.035 	"/>
	<g id="Capa_10">
		<g>
			<path fill-rule="evenodd" clip-rule="evenodd" fill="#DDB581" d="M1475.487-120.77c-7.611,3.01-15.251,5.951-22.826,9.047
				c-1.718,0.703-3.442,1.392-5.168,2.071c-4.966,1.951-9.943,3.874-14.908,5.829c-1.05,0.413-2.084,0.885-3.09,1.393
				c-0.753,0.382-0.989,0.023-1.101-0.619c-1.003-5.806-2.434-11.532-2.979-17.421c-0.364-3.917-1.06-7.812-1.026-11.753
				c0.022-2.607-0.284-5.193-0.164-7.815c0.19-4.116,0.321-8.235,0.812-12.327c0.384-3.201,0.794-6.408,1.546-9.549
				c0.284-1.182-0.078-1.872-1.176-2.257c0.148-1.417,0.468-2.79,1.021-4.105l0.095-0.031l0.08,0.058
				c0.134-0.033,0.267-0.064,0.401-0.096c0.692-0.18,1.227-0.497,1.357-1.293c0.516-3.179,1.763-6.136,2.895-9.117
				c0.548-1.442,0.636-3.039,1.509-4.36c1.524,0.394,2.746,1.307,3.914,2.307c-2.726,5.76-2.441,11.402,1.901,16.081
				c5.842,6.292,14.333,5.837,20.216,0.089c0.862-0.841,1.348-2.066,2.007-3.112c2.262,0.756,4.088,2.3,6.161,3.402
				c5.291,2.811,10.529,5.721,15.788,8.589c-1.208,2.918-2.675,5.776-2.167,9.098c0.886,5.787,3.936,9.791,9.584,11.694
				c6.332,2.135,12.593-0.928,15.819-5.963c0.271-0.425,0.389-0.948,0.578-1.425c4.281,1.273,5.663,3.184,5.289,7.311
				c-5.852,2.262-11.75,4.41-17.538,6.829c-3.588,1.498-7.198,2.927-10.85,4.249c-1.37,0.497-1.147,1.533-1.211,2.536
				c-1.352,0.491-2.762,0.832-4.012,1.58C1477.61-121.017,1476.694-121.248,1475.487-120.77z M1430.569-125.309
				c-1.037,0.897-0.983,1.841-0.178,2.871c0.908,1.161,1.923,2.208,3.097,3.097c0.724,0.548,1.555,0.747,2.301,0.133
				c3.137-2.58,5.307-6.141,4.621-10.311c-0.555-3.388-2.98-5.418-5.521-7.235c-1.301-0.93-2.359,0.256-3.166,1.217
				c-0.73,0.866-1.3,1.866-1.951,2.799c-0.772,1.106-0.63,2.035,0.513,2.784C1429.459-128.349,1429.94-126.824,1430.569-125.309z
				 M1460.983-142.891c0.142-1.615-0.728-2.141-2.218-2.356c-6.203-0.904-12.161,3.43-14.035,8.504
				c-2.546,6.898-0.26,13.638,6.203,17.142c5.82,3.156,11.945,2.132,16.54-2.759c3.175-3.38,4.496-7.735,3.322-12.44
				c-0.497-2.002-1.542-3.826-2.78-5.525c-0.82-1.126-1.698-1.444-2.91-0.746C1463.876-142.01,1462.534-142.685,1460.983-142.891z
				 M1444.48-146.877c0.909-0.291,1.617-0.856,1.459-1.932c-0.449-3.063-1.676-5.777-3.882-7.977
				c-2.626-2.62-5.811-2.257-9.032-1.579c-0.253,0.055-0.505,0.119-0.753,0.187c-3.052,0.823-3.348,1.525-2.174,4.551
				c0.487,1.26,0.911,2.522,1.615,3.697c1.485,2.473,3.531,3.925,6.398,3.858C1440.383-145.696,1442.445-146.223,1444.48-146.877z
				 M1468.213-146.366c0.283,0.127,0.552,0.288,0.834,0.421c2.639,1.253,3.582,0.978,4.59-1.778c0.736-2.018,1.456-4.046,1.145-6.35
				c-0.493-3.651-2.541-5.892-5.756-7.306c-0.472-0.207-0.93-0.448-1.405-0.649c-1.862-0.79-2.699-0.571-3.461,1.277
				c-0.684,1.657-1.502,3.3-1.605,5.147C1462.272-151.243,1464.149-148.174,1468.213-146.366z"/>
			<path fill-rule="evenodd" clip-rule="evenodd" fill="#13100C" d="M1485.506-158.699c-7.762-4.279-15.522-8.556-23.262-12.821
				c-0.522,1.367-0.98,2.567-1.441,3.767c-0.659,1.047-1.145,2.271-2.007,3.112c-5.883,5.749-14.374,6.203-20.216-0.089
				c-4.343-4.679-4.627-10.321-1.901-16.081c0.88-1.082,1.662-2.246,2.78-3.236c-1.606-1.18-3.314-2.008-5.05-2.801
				c-0.564-0.257-0.659,0.093-0.738,0.437c-0.254,1.113-0.866,2.124-0.907,3.293c-0.873,1.321-0.961,2.918-1.509,4.36
				c-1.132,2.981-2.379,5.938-2.895,9.117c-0.129,0.796-0.665,1.113-1.357,1.293c-0.134,0.032-0.267,0.063-0.401,0.096l-0.08-0.058
				l-0.095,0.031c-1.127-0.557-1.455-1.289-1.159-2.639c1.155-5.275,3.158-10.266,4.893-15.345c0.895-2.619,0.856-5.157-1.068-7.179
				c-2.104-2.213-4.782-3.399-7.912-2.296c-2.243,0.792-3.578,2.566-4.498,4.706c-1.926,4.486-3.368,9.143-4.628,13.843
				c-1.643,6.124-3.302,12.242-3.941,18.607c-0.269,2.685-0.965,5.393-1.096,8.073c-0.303,6.278-0.939,12.552-0.327,18.875
				c0.32,3.301,0.169,6.662,0.553,9.973c0.842,7.308,2.14,14.546,3.983,21.667c0.941,3.644,6.825,7.01,11.265,3.381
				c2.256-1.845,3.211-4.505,2.498-7.439c-1.333-5.489-2.442-11.024-3.224-16.61c-0.504-3.596-0.438-7.267-0.802-10.889
				c-0.368-3.664-0.322-7.313,0.068-10.954c0.23-2.133,0.049-4.258,0.196-6.384c0.309-4.492,1.538-8.855,1.838-13.352
				c0.086-1.305,0.911-2.076,2.34-1.936c1.097,0.386,1.459,1.077,1.175,2.259c-0.752,3.141-1.162,6.348-1.546,9.549
				c-0.491,4.093-0.621,8.211-0.812,12.327c-0.12,2.622,0.186,5.208,0.164,7.815c-0.034,3.941,0.661,7.836,1.026,11.753
				c0.545,5.889,1.976,11.615,2.979,17.421c0.112,0.642,0.348,1.002,1.101,0.619c1.006-0.509,2.04-0.98,3.09-1.393
				c4.964-1.955,9.942-3.878,14.908-5.829c1.725-0.679,3.45-1.368,5.168-2.071c7.575-3.095,15.215-6.037,22.826-9.047
				c1.206-0.477,2.122-0.247,2.757,0.917c0.212,1.047-0.269,1.703-1.195,2.096c-1.562,0.664-3.12,1.336-4.69,1.975
				c-2.818,1.145-5.675,2.194-8.504,3.316c-6.848,2.718-13.692,5.445-20.534,8.182c-4.697,1.878-9.444,3.625-14.156,5.466
				c-0.794,0.311-1.493,0.68-1.921,1.628c-0.541,1.2-1.375,2.322-2.457,3.146c-6.387,4.87-14.969,1.644-16.918-5.569
				c-0.683-2.532-1.378-5.071-1.849-7.646c-0.717-3.915-1.23-7.867-1.856-11.8c-0.554-3.494-0.451-7.036-0.793-10.536
				c-0.537-5.488-0.233-10.956,0.02-16.419c0.187-4.013,0.759-8.014,1.193-12.016c0.707-6.539,2.35-12.865,3.861-19.203
				c1.264-5.304,3.264-10.44,5.275-15.532c0.844-2.133,2.311-3.919,4.151-5.117c5.347-3.477,12.895-0.981,15.1,4.364
				c1.005,2.441,2.708,3.554,4.719,4.64c0.54,0.293,1.189,0.388,1.718,0.695c6.241,3.631,12.606,7.038,18.911,10.556
				c6.217,3.468,12.476,6.856,18.691,10.325c6.351,3.544,12.686,7.115,19.106,10.536c5.701,3.039,11.235,6.393,16.882,9.538
				c1.392,0.776,2.893,1.356,4.218,2.267c3.944,2.711,3.981,8.518,0.029,11.08c-0.982,0.635-2.077,1.112-3.152,1.587
				c-3.351,1.487-6.852,2.587-10.229,4.032c-5.167,2.215-10.482,4.089-15.734,6.11c-1.06,0.41-2.228,0.666-3.142,1.293
				c-1.249,0.854-1.997,0.453-2.73-0.574c0.064-1.003-0.159-2.039,1.211-2.536c3.652-1.322,7.262-2.75,10.85-4.249
				c5.788-2.419,11.686-4.568,17.538-6.829c0.845-0.378,1.677-0.797,2.542-1.121c1.416-0.534,2.179-1.483,2.288-3.018
				c0.105-1.472-0.482-2.51-1.745-3.203c-2.305-1.261-4.614-2.519-7.01-3.826c-0.464,1.313-0.915,2.585-1.364,3.856
				c-0.189,0.478-0.307,1-0.578,1.425c-3.226,5.035-9.488,8.098-15.819,5.963c-5.648-1.903-8.698-5.907-9.584-11.694
				c-0.509-3.322,0.958-6.18,2.167-9.098C1483.635-156.705,1484.521-157.649,1485.506-158.699z M1504.425-147.296
				c0.047-0.868-0.34-1.242-0.979-1.548c-4.769-2.286-9.246-5.107-13.921-7.568c-0.805-0.425-1.266,0.021-1.786,0.41
				c-4.037,3-4.746,8.686-2.444,13.083c1.76,3.365,4.735,4.795,7.223,5.046C1499.243-137.3,1504.135-141.66,1504.425-147.296z
				 M1458.893-172.505c0.174-0.725-0.213-1.058-0.764-1.335c-5.044-2.541-9.764-5.673-14.871-8.102
				c-0.661-0.314-0.97-0.012-1.358,0.29c-5.185,4.066-4.469,13.152,1.244,16.359c1.479,0.831,2.935,1.574,4.421,1.457
				C1454.17-163.305,1457.609-167.131,1458.893-172.505z"/>
			<path fill-rule="evenodd" clip-rule="evenodd" fill="#D7A565" d="M1426.43-168.277c-1.127-0.557-1.455-1.289-1.159-2.639
				c1.155-5.275,3.158-10.266,4.893-15.345c0.895-2.619,0.856-5.157-1.068-7.179c-2.104-2.213-4.782-3.399-7.912-2.296
				c-2.243,0.792-3.578,2.566-4.498,4.706c-1.926,4.486-3.368,9.143-4.628,13.843c-1.643,6.124-3.302,12.242-3.941,18.607
				c-0.269,2.685-0.965,5.393-1.096,8.073c-0.303,6.278-0.939,12.552-0.327,18.875c0.32,3.301,0.169,6.662,0.553,9.973
				c0.842,7.308,2.14,14.546,3.983,21.667c0.941,3.644,6.825,7.01,11.265,3.381c2.256-1.845,3.211-4.505,2.498-7.439
				c-1.333-5.489-2.442-11.024-3.224-16.61c-0.504-3.596-0.438-7.267-0.802-10.889c-0.368-3.664-0.322-7.313,0.068-10.954
				c0.23-2.133,0.049-4.258,0.196-6.384c0.309-4.492,1.538-8.855,1.838-13.352c0.086-1.305,0.911-2.076,2.34-1.936
				C1425.557-165.589,1425.876-166.962,1426.43-168.277z"/>
			<path fill-rule="evenodd" clip-rule="evenodd" fill="#BE4B55" d="M1465.105-141.072c-1.229-0.938-2.571-1.613-4.123-1.819
				c-0.521,1.052-1.392,1.312-2.481,1.125c-2.417-0.416-4.557,0.138-6.623,1.52c-3.706,2.478-5.506,6.112-4.548,10.406
				c1.272,5.705,5.521,9.489,12.373,8.163c7.129-1.377,10.581-10.139,5.695-16.467
				C1464.634-139.132,1464.297-140.004,1465.105-141.072z"/>
			<path fill-rule="evenodd" clip-rule="evenodd" fill="#13100C" d="M1465.105-141.072c-0.809,1.068-0.471,1.939,0.292,2.929
				c4.886,6.327,1.434,15.089-5.695,16.467c-6.851,1.326-11.1-2.458-12.373-8.163c-0.957-4.294,0.842-7.928,4.548-10.406
				c2.067-1.382,4.206-1.937,6.623-1.52c1.089,0.187,1.96-0.073,2.481-1.125c0.142-1.615-0.728-2.141-2.218-2.356
				c-6.203-0.904-12.161,3.43-14.035,8.504c-2.546,6.898-0.26,13.638,6.203,17.142c5.82,3.156,11.945,2.132,16.54-2.759
				c3.175-3.38,4.496-7.735,3.322-12.44c-0.497-2.002-1.542-3.826-2.78-5.525C1467.195-141.451,1466.318-141.769,1465.105-141.072z"
				/>
			<path fill-rule="evenodd" clip-rule="evenodd" fill="#13100C" d="M1431.714-149.93c-0.705-1.175-1.129-2.437-1.615-3.697
				c-1.174-3.027-0.878-3.729,2.174-4.551c0.248-0.068,0.5-0.132,0.753-0.187c3.221-0.677,6.406-1.04,9.032,1.579
				c2.206,2.201,3.433,4.915,3.882,7.977c0.158,1.076-0.55,1.641-1.459,1.932c-2.035,0.654-4.096,1.181-6.368,0.805
				C1435.245-146.005,1433.199-147.457,1431.714-149.93z M1433.41-154.835c-0.415,0.833,0.505,2.109,1.11,3.077
				c1.556,2.492,4.69,3.401,7.363,2.18c0.457-0.21,0.499-0.521,0.318-0.85c-0.815-1.484-1.378-3.139-2.809-4.213
				c-0.834-0.626-1.832-0.655-2.708-0.773C1435.462-155.392,1433.89-155.799,1433.41-154.835z"/>
			<path fill-rule="evenodd" clip-rule="evenodd" fill="#13100C" d="M1464.159-160.751c0.761-1.848,1.599-2.067,3.461-1.277
				c0.475,0.201,0.933,0.441,1.405,0.649c3.215,1.414,5.263,3.655,5.756,7.306c0.311,2.304-0.408,4.332-1.145,6.35
				c-1.008,2.756-1.951,3.032-4.59,1.778c-0.281-0.134-0.551-0.294-0.834-0.421c-4.063-1.808-5.94-4.877-5.659-9.237
				C1462.657-157.451,1463.475-159.094,1464.159-160.751z M1467.727-158.469c-0.602-0.29-0.835-0.142-1.088,0.337
				c-1.746,3.281-0.776,6.633,2.454,8.632c0.915,0.564,1.489,0.733,1.861-0.597c0.21-0.759,0.37-1.503,0.439-2.276
				C1471.635-155.137,1470.337-157.217,1467.727-158.469z"/>
			<path fill-rule="evenodd" clip-rule="evenodd" fill="#D7A565" d="M1482.752-155.762c0.883-0.943,1.769-1.887,2.755-2.937
				c-7.762-4.279-15.522-8.556-23.262-12.821c-0.522,1.367-0.98,2.567-1.441,3.767c2.262,0.756,4.088,2.3,6.161,3.402
				C1472.255-161.54,1477.493-158.63,1482.752-155.762z"/>
			<path fill-rule="evenodd" clip-rule="evenodd" fill="#13100C" d="M1430.569-125.309c-1.037,0.897-0.983,1.841-0.178,2.871
				c0.908,1.161,1.923,2.208,3.097,3.097c0.724,0.548,1.555,0.747,2.301,0.133c3.137-2.58,5.307-6.141,4.621-10.311
				c-0.555-3.388-2.98-5.418-5.521-7.235c-1.301-0.93-2.359,0.256-3.166,1.217c-0.73,0.866-1.3,1.866-1.951,2.799
				c-0.772,1.106-0.63,2.035,0.513,2.784c1.081,0.184,1.937-0.042,2.438-1.156c0.249-0.555,0.7-1.018,1.002-1.554
				c0.264-0.467,0.495-0.408,0.84-0.103c2.869,2.542,3.75,5.291,1.274,8.651c-1.162,1.581-1.173,1.615-2.432,0.032
				C1432.658-125.026,1431.95-125.906,1430.569-125.309z"/>
			<path fill-rule="evenodd" clip-rule="evenodd" fill="#D7A565" d="M1511.856-135.047c0.845-0.378,1.677-0.797,2.542-1.121
				c1.416-0.534,2.179-1.483,2.288-3.018c0.105-1.472-0.482-2.51-1.745-3.203c-2.305-1.261-4.614-2.519-7.01-3.826
				c-0.464,1.313-0.915,2.585-1.364,3.856C1510.848-141.085,1512.229-139.173,1511.856-135.047z"/>
			<path fill-rule="evenodd" clip-rule="evenodd" fill="#B9CB55" d="M1430.569-125.309c1.381-0.597,2.089,0.283,2.838,1.226
				c1.26,1.583,1.27,1.549,2.432-0.032c2.475-3.36,1.595-6.109-1.274-8.651c-0.344-0.305-0.576-0.364-0.84,0.103
				c-0.302,0.536-0.753,1-1.002,1.554c-0.5,1.113-1.356,1.34-2.438,1.156C1429.459-128.349,1429.94-126.824,1430.569-125.309z"/>
			<path fill-rule="evenodd" clip-rule="evenodd" fill="#D7A565" d="M1436.68-180.81c0.88-1.082,1.662-2.246,2.78-3.236
				c-1.606-1.18-3.314-2.008-5.05-2.801c-0.564-0.257-0.659,0.093-0.738,0.437c-0.254,1.113-0.866,2.124-0.907,3.293
				C1434.29-182.723,1435.511-181.81,1436.68-180.81z"/>
			<path fill-rule="evenodd" clip-rule="evenodd" fill="#D7A565" d="M1427.005-168.347c-0.134,0.032-0.267,0.063-0.401,0.096
				C1426.738-168.283,1426.872-168.315,1427.005-168.347z"/>
			<path fill-rule="evenodd" clip-rule="evenodd" fill="#BE4B55" d="M1492.518-137.872c6.725,0.572,11.617-3.788,11.907-9.424
				c0.047-0.868-0.34-1.242-0.979-1.548c-4.769-2.286-9.246-5.107-13.921-7.568c-0.805-0.425-1.266,0.021-1.786,0.41
				c-4.037,3-4.746,8.686-2.444,13.083C1487.055-139.553,1490.03-138.123,1492.518-137.872z"/>
			<path fill-rule="evenodd" clip-rule="evenodd" fill="#BE4B55" d="M1447.566-163.836c6.604,0.531,10.043-3.295,11.327-8.669
				c0.174-0.725-0.213-1.058-0.764-1.335c-5.044-2.541-9.764-5.673-14.871-8.102c-0.661-0.314-0.97-0.012-1.358,0.29
				c-5.185,4.066-4.469,13.152,1.244,16.359C1444.624-164.462,1446.08-163.719,1447.566-163.836z"/>
			<path fill-rule="evenodd" clip-rule="evenodd" fill="#B9CB55" d="M1436.684-155.415c-1.222,0.023-2.794-0.384-3.274,0.58
				c-0.415,0.833,0.505,2.109,1.11,3.077c1.556,2.492,4.69,3.401,7.363,2.18c0.457-0.21,0.499-0.521,0.318-0.85
				c-0.815-1.484-1.378-3.139-2.809-4.213C1438.558-155.268,1437.56-155.297,1436.684-155.415z"/>
			<path fill-rule="evenodd" clip-rule="evenodd" fill="#B9CB55" d="M1471.392-152.373c0.243-2.764-1.055-4.844-3.665-6.096
				c-0.602-0.29-0.835-0.142-1.088,0.337c-1.746,3.281-0.776,6.633,2.454,8.632c0.915,0.564,1.489,0.733,1.861-0.597
				C1471.164-150.856,1471.323-151.6,1471.392-152.373z"/>
		</g>
	</g>
	<polygon fill="#D0D0D0" stroke="#000000" stroke-miterlimit="10" points="1448.662,-89.987 1362.003,-152.277 1362.866,-131.164 
		1450.406,-66.978 1542.246,-111.243 1542.246,-135.944 	"/>
	<polygon fill="#A8A8A8" points="1362.003,-139.851 1449.106,-73.333 1541.212,-119.317 1542.246,-112.647 1449.796,-66.664 
		1362.693,-132.017 	"/>
	<g>
		<path d="M1544.902-136.639c-1.807,0.396-3.614,0.73-5.42,0.999c0.005,0.095-0.014,0.186-0.023,0.279
			c0.029,0.159,0.056,0.319,0.05,0.476l0.045,0.03v18.944l-89.51,46.051l-85.348-62.704v-18.352l0.165-0.078
			c-1.839-0.812-3.563-1.837-5.229-2.952c-0.203,0.389-0.321,0.826-0.321,1.284v21.5c0,0.88,0.416,1.706,1.117,2.221l87.793,64.5
			c0.467,0.344,1.02,0.519,1.576,0.519c0.415,0,0.831-0.097,1.215-0.295l92.283-46.998c0.906-0.466,1.644-1.977,1.644-3.01v-22.114
			C1544.939-136.443,1544.913-136.539,1544.902-136.639z"/>
	</g>
	<g id="Capa_8">
		<path fill="#D0D0D0" d="M1542.246-137.568c-0.313-0.091,1.18-16.528,1.18-16.528l78.051-81.688l0.542,16.983L1542.246-137.568z"/>
	</g>
	<path d="M1449.451-74.035l-0.609-4.189l-0.561-4.193c-0.334-2.798-0.709-5.593-1.011-8.394l-0.069-0.637l0.624-0.333l5.403-2.882
		l5.432-2.82c3.612-1.899,7.268-3.705,10.906-5.548c3.632-1.858,7.315-3.603,10.971-5.409c3.653-1.811,7.347-3.535,11.028-5.287
		c1.844-0.868,3.677-1.76,5.53-2.609l5.555-2.555c3.694-1.722,7.428-3.36,11.15-5.024c1.857-0.84,3.737-1.63,5.607-2.444
		c1.871-0.809,3.741-1.622,5.627-2.401c3.76-1.582,7.534-3.133,11.348-4.598c-3.531,2.074-7.101,4.063-10.686,6.02
		c-1.787,0.991-3.589,1.948-5.391,2.908c-1.803,0.956-3.595,1.936-5.41,2.865c-3.623,1.876-7.234,3.777-10.885,5.595l-5.462,2.754
		c-1.819,0.921-3.659,1.799-5.487,2.7c-3.664,1.787-7.315,3.603-11.007,5.331c-3.689,1.734-7.35,3.528-11.064,5.209
		c-3.707,1.696-7.396,3.43-11.128,5.07l-5.585,2.49l-5.615,2.427l0.556-0.97c0.101,2.816,0.129,5.637,0.197,8.455l0.042,4.231
		L1449.451-74.035z"/>
	<g>
		<line x1="1525.833" y1="-262.777" x2="1526.779" y2="-281.313"/>
		<path d="M1525.833-262.777c0,0-0.275-1.176-0.423-2.925c-0.084-0.875-0.139-1.895-0.155-2.984c-0.02-1.09-0.007-2.251,0.052-3.409
			c0.059-1.158,0.16-2.315,0.293-3.397c0.125-1.082,0.284-2.091,0.458-2.953c0.326-1.726,0.721-2.867,0.721-2.867
			s0.277,1.176,0.426,2.925c0.085,0.875,0.14,1.895,0.154,2.984c0.021,1.09,0.005,2.251-0.055,3.409
			c-0.059,1.159-0.164,2.315-0.295,3.397c-0.127,1.082-0.285,2.091-0.458,2.953C1526.226-263.919,1525.833-262.777,1525.833-262.777
			z"/>
	</g>
	<path d="M1531.473-108.456c0,0-0.086-0.214-0.246-0.616c-0.068-0.21-0.123-0.457-0.149-0.719l-0.008-0.099l0-0.035l0.002-0.066
		c0.001-0.045,0.003-0.091,0.005-0.139c0.005-0.203,0.02-0.414,0.048-0.593c0.047-0.405,0.126-0.813,0.226-1.275
		c0.098-0.464,0.219-0.961,0.358-1.499c0.553-2.146,1.389-4.897,2.26-7.639c1.742-5.476,3.622-10.883,3.622-10.883
		s-0.792,5.684-1.43,11.367c-0.318,2.838-0.599,5.683-0.714,7.765c-0.029,0.519-0.049,0.992-0.053,1.392
		c-0.007,0.4-0.002,0.748,0.021,0.967c0.005,0.133,0.022,0.201,0.036,0.24l0.008,0.036l0.003,0.017l0.001,0.005l-0.002-0.06
		c-0.01-0.161-0.052-0.315-0.107-0.443c-0.028-0.064-0.058-0.122-0.09-0.173c-0.021-0.038-0.089-0.131-0.061-0.09
		c0.017,0.027,0.032,0.049,0.043,0.067c0.023,0.036,0.035,0.055,0.035,0.055L1531.473-108.456z"/>
	<path d="M1367.005-148.276c0,0,4.986,3.007,12.26,7.815c1.821,1.199,3.793,2.498,5.857,3.904c2.069,1.399,4.258,2.863,6.492,4.422
		c2.235,1.557,4.568,3.133,6.897,4.795c2.334,1.653,4.706,3.333,7.078,5.012c2.353,1.706,4.707,3.412,7.023,5.091
		c2.325,1.667,4.567,3.374,6.761,4.991c4.374,3.255,8.422,6.341,11.861,9.031c3.448,2.677,6.283,4.964,8.255,6.581
		c0.991,0.802,1.751,1.459,2.274,1.899c0.26,0.223,0.459,0.393,0.593,0.508c0.133,0.116,0.202,0.178,0.196,0.182
		c0.006-0.004-0.071-0.056-0.218-0.152c-0.149-0.095-0.369-0.235-0.656-0.418c-0.577-0.364-1.423-0.897-2.499-1.575
		c-2.147-1.366-5.207-3.327-8.837-5.741c-3.639-2.4-7.854-5.246-12.335-8.344c-2.233-1.56-4.567-3.134-6.892-4.8
		c-2.334-1.654-4.705-3.334-7.075-5.015c-2.353-1.706-4.707-3.411-7.023-5.09c-2.322-1.67-4.568-3.372-6.763-4.988
		c-2.197-1.613-4.29-3.215-6.283-4.724c-1.998-1.502-3.866-2.951-5.59-4.29C1371.474-144.52,1367.005-148.276,1367.005-148.276z"/>
	<g>
		<line x1="1607.07" y1="-225.277" x2="1528.105" y2="-261.728"/>
		<path d="M1607.049-225.232c0,0-19.815-8.954-39.629-17.908c-4.953-2.241-9.905-4.482-14.548-6.583
			c-2.307-1.081-4.538-2.125-6.653-3.116c-2.108-1.006-4.102-1.957-5.942-2.834c-7.349-3.535-12.193-6.01-12.193-6.01l0.042-0.091
			c0,0,5.026,2.081,12.484,5.38c1.861,0.831,3.878,1.731,6.011,2.683c2.126,0.967,4.368,1.987,6.687,3.042
			c4.611,2.171,9.529,4.486,14.447,6.802c19.668,9.272,39.336,18.543,39.336,18.543L1607.049-225.232z"/>
	</g>
	<path fill="none" stroke="#000000" stroke-width="2" stroke-linecap="round" stroke-linejoin="round" stroke-miterlimit="10" d="
		M1541.955-136.05c-0.803,0.543,0.772-17.956,0.772-17.956l77.843-81.271"/>
</g>
<g id="HUMO">
	<g>
		<path fill="#F2F0F0" d="M1753.541-215.552c-0.071-0.545-0.181-1.121-0.337-1.695c-0.182-0.564-0.35-1.15-0.547-1.717
			c-0.411-1.154-0.755-2.19-0.901-3.409c-0.146-0.831-0.37-1.539-0.56-2.26c-0.069-0.375-0.252-0.69-0.378-1.032
			c-0.15-0.336-0.235-0.675-0.423-1.014c-0.375-0.678-0.664-1.36-1.14-2.05c-0.223-0.345-0.413-0.689-0.656-1.037l-0.751-1.046
			c-2.024-2.802-4.718-5.667-7.361-8.866c-1.332-1.584-2.658-3.329-3.924-5.149c-1.231-1.9-2.43-3.874-3.354-6.098l-0.686-1.66
			c-0.197-0.587-0.374-1.192-0.553-1.787c-0.41-1.205-0.573-2.371-0.762-3.542c-0.378-2.337-0.419-4.703-0.258-7.112
			c0.433-4.806,2.312-9.749,5.558-13.472c3.236-3.733,7.463-6.254,11.785-7.568l1.624-0.489l1.639-0.353
			c1.104-0.264,2.157-0.368,3.217-0.496c0.993-0.131,2.292-0.264,3.536-0.228c1.25,0.027,2.464,0.212,3.646,0.468
			c4.707,1.104,8.76,3.747,11.732,7.356c1.683,1.979,2.971,4.285,3.679,6.768c0.696,2.48,0.778,5.14,0.156,7.562
			c-0.13,0.612-0.346,1.193-0.542,1.776c-0.113,0.295-0.231,0.543-0.364,0.864c-0.12,0.325-0.293,0.625-0.484,0.913
			c-0.331,0.609-0.819,1.102-1.281,1.601c-0.499,0.418-0.964,0.859-1.475,1.171c-2.007,1.347-4.128,2.184-6.304,2.78
			c-2.179,0.57-4.422,0.91-6.734,0.756c-1.155-0.112-2.324-0.252-3.47-0.735c-0.605-0.182-1.117-0.561-1.659-0.867
			c-0.486-0.388-0.952-0.812-1.326-1.313c-1.527-1.964-2.079-4.685-1.323-7.059c0.361-1.17,1.08-2.289,2.113-3.066
			c1.025-0.783,2.28-1.161,3.504-1.267c-1.349,0.124-2.757,0.589-3.847,1.552c-1.1,0.961-1.776,2.279-2.007,3.672
			c-0.507,2.778,0.772,5.943,3.247,7.251c2.558,1.234,5.135,0.903,7.451,0.42c2.334-0.528,4.512-1.468,6.452-2.669
			c0.978-0.586,1.86-1.3,2.618-2.052c0.77-0.762,1.217-1.564,1.43-2.483c0.567-2.079,0.469-4.225-0.212-6.166
			c-1.177-3.551-4.637-6.552-8.499-7.97c-1.924-0.725-3.935-1.076-5.748-1.023l-0.671,0.036c-0.217,0.029-0.434,0.053-0.651,0.071
			l-1.589,0.282c-0.566,0.11-1.17,0.174-1.706,0.294c-0.531,0.125-1.063,0.238-1.599,0.339c-2.646,0.617-4.921,1.654-6.712,2.944
			c-1.799,1.289-3.104,2.822-4.015,4.37c-0.963,1.532-1.323,3.167-1.658,4.578c-0.065,0.739-0.175,1.417-0.202,2.063
			c0.009,0.652,0.017,1.252,0.025,1.801c0.159,1.107,0.216,2.016,0.422,2.678c0.18,0.666,0.316,1.116,0.407,1.35
			c0.18,0.468,0.193,0.074-0.049-1.184c0.169,0.845,0.38,1.639,0.804,2.248c0.189,0.319,0.385,0.623,0.583,0.916
			c0.225,0.294,0.492,0.579,0.735,0.856c0.253,0.277,0.487,0.551,0.749,0.82c0.277,0.265,0.556,0.533,0.839,0.804
			c0.514,0.546,1.146,1.107,1.703,1.755c2.143,2.72,4.521,5.619,6.802,8.816c2.28,3.201,4.573,6.646,6.381,10.629
			c0.366,0.504,1.124,1.479,1.629,2.687c0.27,0.586,0.53,1.183,0.726,1.715c0.15,0.542,0.256,1.017,0.29,1.346
			c0.234,1.479,0.296,2.829,0.307,4.216c-0.023,0.7-0.037,1.396-0.085,2.077l-0.237,2.011c-0.411,2.637-1.115,5.085-1.899,7.481
			c-1.541,4.783-3.59,9.438-4.355,15.098c-0.098-0.523-0.166-1.051-0.21-1.449c-0.048-0.399-0.08-0.664-0.08-0.664
			c-0.706,2.043-0.968,3.084-1.439,5.24c-0.81-3.217-0.938-7.202-0.791-11.131C1753.646-208.242,1753.89-212.193,1753.541-215.552z"
			/>
	</g>
</g>
<g id="Capa_11">
	<image overflow="visible" width="225" height="225" xlink:href="6A75ADEA.jpg"  transform="matrix(1 0 0 1 2194.7759 -330.5832)">
	</image>
</g>
<g id="Capa_13">
	<g>
		<path fill="none" stroke="#FFFFFF" stroke-width="2" stroke-linecap="round" stroke-miterlimit="10" d="M1978.825-462.938h3.721
			c1.262,0,1.25,0.017,1.541,0.729c0.304,0.744,3.274,16.331,3.862,17.818c0.251,0.634,0.83,1.016,1.825,1.016
			c0,0,15.132-0.001,17.74,0c1.085,0,1.548-0.769,1.72-1.3c0.153-0.473,1.184-4.199,1.508-7.406"/>
		
			<line fill="none" stroke="#FFFFFF" stroke-width="2" stroke-linecap="round" stroke-miterlimit="10" x1="1988.557" y1="-457.984" x2="2001.105" y2="-457.984"/>
		
			<line fill="none" stroke="#FFFFFF" stroke-width="2" stroke-linecap="round" stroke-miterlimit="10" x1="1989.761" y1="-453.067" x2="2004.717" y2="-453.067"/>
		
			<line fill="none" stroke="#FFFFFF" stroke-width="2" stroke-linecap="round" stroke-miterlimit="10" x1="1991.128" y1="-448.15" x2="2007.124" y2="-448.15"/>
		
			<circle fill="none" stroke="#FFFFFF" stroke-width="2" stroke-linecap="round" stroke-miterlimit="10" cx="1992.413" cy="-438.438" r="2.979"/>
		
			<circle fill="none" stroke="#FFFFFF" stroke-width="2" stroke-linecap="round" stroke-miterlimit="10" cx="2004.717" cy="-438.438" r="2.979"/>
	</g>
	<g>
		<path fill="none" stroke="#FFFFFF" stroke-width="8" stroke-linecap="round" stroke-miterlimit="10" d="M1879.802-738.637h22.794
			c7.731,0,7.656,0.102,9.44,4.467c1.864,4.56,20.057,100.054,23.663,109.16c1.539,3.886,5.083,6.223,11.183,6.223
			c0,0,92.707-0.005,108.685,0c6.649,0.002,9.481-4.711,10.536-7.963c0.94-2.9,7.257-25.725,9.241-45.37"/>
		
			<line fill="none" stroke="#FFFFFF" stroke-width="8" stroke-linecap="round" stroke-miterlimit="10" x1="1939.424" y1="-708.287" x2="2016.299" y2="-708.287"/>
		
			<line fill="none" stroke="#FFFFFF" stroke-width="8" stroke-linecap="round" stroke-miterlimit="10" x1="1946.799" y1="-678.162" x2="2038.424" y2="-678.162"/>
		
			<line fill="none" stroke="#FFFFFF" stroke-width="8" stroke-linecap="round" stroke-miterlimit="10" x1="1955.174" y1="-648.037" x2="2053.174" y2="-648.037"/>
		<g>
			<path fill="#FFFFFF" d="M1963.049-599.787c6.203,0,11.25,5.047,11.25,11.25s-5.047,11.25-11.25,11.25s-11.25-5.047-11.25-11.25
				S1956.846-599.787,1963.049-599.787 M1963.049-606.787c-10.079,0-18.25,8.171-18.25,18.25c0,10.079,8.171,18.25,18.25,18.25
				c10.079,0,18.25-8.171,18.25-18.25C1981.299-598.616,1973.129-606.787,1963.049-606.787L1963.049-606.787z"/>
		</g>
		<g>
			<path fill="#FFFFFF" d="M2038.424-599.787c6.203,0,11.25,5.047,11.25,11.25s-5.047,11.25-11.25,11.25s-11.25-5.047-11.25-11.25
				S2032.221-599.787,2038.424-599.787 M2038.424-606.787c-10.079,0-18.25,8.171-18.25,18.25c0,10.079,8.171,18.25,18.25,18.25
				c10.079,0,18.25-8.171,18.25-18.25C2056.674-598.616,2048.503-606.787,2038.424-606.787L2038.424-606.787z"/>
		</g>
	</g>
</g>
<g id="Capa_12">
</g>
</svg>
